<?xml version="1.0" encoding="UTF-8" standalone="no"?>
<svg width="400px" height="300px" viewBox="0 0 400 300" version="1.1" xmlns="http://www.w3.org/2000/svg" xmlns:xlink="http://www.w3.org/1999/xlink">
    <!-- Generator: Sketch 46.2 (44496) - http://www.bohemiancoding.com/sketch -->
    <title>Artboard 2</title>
    <desc>Created with Sketch.</desc>
    <defs>
        <rect id="path-1" x="221" y="100" width="172" height="11" rx="5.5"></rect>
        <rect id="path-2" x="161" y="100" width="158" height="11" rx="5.5"></rect>
        <rect id="path-3" x="161" y="123" width="169" height="11" rx="5.5"></rect>
        <rect id="path-4" x="73" y="149" width="103" height="11" rx="5.5"></rect>
        <rect id="path-5" x="95" y="128" width="139" height="11" rx="5.5"></rect>
        <path d="M88.0939808,187.802333 C140.432976,178.18531 173.426527,173.254079 187.074633,173.008639 C200.872907,172.760499 209.397617,177.790934 212.648763,188.099944 L212.648769,188.099942 C212.739786,188.388548 212.804415,188.684821 212.841858,188.985113 L213.970468,198.036341 L213.970468,198.036341 C214.21391,199.988704 212.828557,201.768756 210.876194,202.012199 C209.927073,202.130546 208.97023,201.862261 208.220992,201.26772 C202.123705,196.429332 195.83888,193.136488 189.366525,191.389174 C180.674408,189.042601 147.323115,191.451668 89.3126449,198.616377 L89.3126472,198.616395 C86.7174588,198.93692 84.3538067,197.09294 84.0332824,194.497752 C84.0095024,194.305212 83.9975787,194.111393 83.9975787,193.917391 L83.9975787,192.720009 L83.9975755,192.720009 C83.9975755,190.307092 85.720793,188.238394 88.0939808,187.802333 Z" id="path-6"></path>
        <path d="M103.205418,54.6495091 L150.818735,62.5527218 L150.818735,62.5527218 C153.231173,62.9531562 155,65.0397882 155,67.4852336 L155,74 L155,74 C155,76.7614237 152.761424,79 150,79 L100.625969,79 L100.625969,79 C97.8645453,79 95.625969,76.7614237 95.625969,74 C95.625969,73.7974083 95.638282,73.5950039 95.6628399,73.3939061 L97.4235535,58.9759271 L97.4235535,58.9759271 C97.7582899,56.2348666 100.251716,54.2841555 102.992776,54.6188919 C103.063868,54.6275735 103.134765,54.6377816 103.205418,54.6495091 Z" id="path-7"></path>
        <path d="M219.492658,12.7815999 L254.185322,6.99876767 L293.426116,12.8197235 L293.426116,12.8197235 C294.89686,13.0378929 295.985914,14.3004137 295.985914,15.7872516 L295.985914,19.1609995 L295.985914,19.1609995 C295.985914,20.8178538 294.642769,22.1609995 292.985914,22.1609995 C292.837133,22.1609995 292.688558,22.1499316 292.541419,22.1278874 L254.598109,16.443263 L220.473902,22.0689149 L220.473902,22.0689149 C218.839114,22.3384229 217.295377,21.2316449 217.025869,19.596857 C216.999277,19.4355549 216.985914,19.272349 216.985914,19.1088696 L216.985914,15.7407717 L216.985914,15.7407717 C216.985914,14.2742771 218.046121,13.0227193 219.492658,12.7815999 Z" id="path-8"></path>
        <path d="M205.124796,1.73471121 L229.821998,5.85092653 L229.821998,5.85092653 C232.232936,6.25275108 234,8.33870101 234,10.7828957 L234,11.2736314 L234,11.2736314 C234,13.8839327 231.883933,16 229.273631,16 L203.775775,16 L203.775775,16 C201.014351,16 198.775775,13.7614237 198.775775,11 C198.775775,10.7982271 198.787989,10.5966392 198.812349,10.3963423 L199.339372,6.06302263 L199.339372,6.06302263 C199.672763,3.32179816 202.165232,1.36986342 204.906456,1.70325437 C204.979459,1.71213302 205.052256,1.72262118 205.124796,1.73471121 Z" id="path-9"></path>
    </defs>
    <g id="Page-1" stroke="none" stroke-width="1" fill="none" fill-rule="evenodd">
        <g id="Artboard-2">
            <g id="Group-Copy" transform="translate(2.000000, 20.000000)">
                <g id="backtyre" transform="translate(0.000000, 98.000000)">
                    <path d="M88.3243243,89.9752747 L88.3243243,89.1811571 L114.618921,62.748384 L115.183183,62.1811571 L114.05466,61.0467033 L113.490398,61.6139302 L88.3243243,86.9122495 L88.3243243,52.1945604 L88.3243243,51.4038462 L86.4058344,51.4038462 L86.4058344,52.1945604 L86.4058344,88.8408209 L59.3212709,61.6139302 L58.7570091,61.0467033 L57.6284856,62.1811571 L58.1927474,62.748384 L85.2773109,89.9752747 L48.8226169,89.9752747 L48.036036,89.9752747 L48.036036,91.9038462 L48.8226169,91.9038462 L83.358821,91.9038462 L58.1927474,117.202165 L57.6284856,117.769392 L58.7570091,118.903846 L59.3212709,118.336619 L85.615868,91.9038462 L86.4058344,91.9038462 L86.4058344,129.68456 L86.4058344,130.475275 L88.3243243,130.475275 L88.3243243,129.68456 L88.3243243,93.0382999 L113.490398,118.336619 L114.05466,118.903846 L115.183183,117.769392 L114.618921,117.202165 L89.4528478,91.9038462 L125.907542,91.9038462 L126.694123,91.9038462 L126.694123,89.9752747 L125.907542,89.9752747 L88.3243243,89.9752747 Z" id="Combined-Shape" fill="#40352F"></path>
                    <path d="M86.7747748,162 C46.5525233,162 13.9459459,129.222078 13.9459459,88.7884615 C13.9459459,48.3548453 46.5525233,15.5769231 86.7747748,15.5769231 C126.997026,15.5769231 159.603604,48.3548453 159.603604,88.7884615 C159.603604,129.222078 126.997026,162 86.7747748,162 Z M87.5495495,115.269231 C101.670127,115.269231 113.117117,103.762088 113.117117,89.5673077 C113.117117,75.3725275 101.670127,63.8653846 87.5495495,63.8653846 C73.4289719,63.8653846 61.981982,75.3725275 61.981982,89.5673077 C61.981982,103.762088 73.4289719,115.269231 87.5495495,115.269231 Z" id="Combined-Shape" stroke="#40352F" fill="#C79C6F"></path>
                    <path d="M43.7541295,67.2820614 C43.0216295,66.7701923 42.3237977,66.1874397 41.6701367,65.5337787 C35.6187693,59.4824113 35.6445479,49.6454277 41.7277147,43.5622608 C47.8108816,37.479094 57.6478652,37.4533154 63.6992326,43.5046828 C64.3351928,44.140643 64.9040329,44.818414 65.4057758,45.5292447 C67.3580521,44.5528253 69.3857729,43.7060247 71.477792,43.0000476 C71.3471668,42.1860865 71.2792793,41.3510129 71.2792793,40.5 C71.2792793,31.8971029 78.2168489,24.9230769 86.7747748,24.9230769 C95.3327006,24.9230769 102.27027,31.8971029 102.27027,40.5 C102.27027,41.3510129 102.202383,42.1860865 102.071755,43.0000467 C103.146838,43.3628464 104.204938,43.7628352 105.244544,44.1984933 C106.251321,44.6106507 107.246785,45.0584812 108.229008,45.5419897 C108.725046,44.8480856 109.284682,44.1854737 109.907895,43.5622608 C115.991062,37.479094 125.828045,37.4533154 131.879413,43.5046828 C137.93078,49.5560502 137.905002,59.3930339 131.821835,65.4762007 C131.218597,66.079438 130.578446,66.6231088 129.908733,67.1071938 C130.926501,69.1471935 131.789721,71.245193 132.498437,73.3838089 C133.252822,73.2703414 134.024985,73.2115385 134.810811,73.2115385 C143.368737,73.2115385 150.306306,80.1855645 150.306306,88.7884615 C150.306306,97.3913586 143.368737,104.365385 134.810811,104.365385 C133.971727,104.365385 133.148221,104.298341 132.345304,104.169292 C131.99832,105.185909 131.616506,106.193407 131.199867,107.189923 C130.767255,108.244195 130.298594,109.279688 129.79542,110.294862 C130.52792,110.806731 131.225752,111.389483 131.879413,112.043144 C137.93078,118.094512 137.905002,127.931495 131.821835,134.014662 C125.738668,140.097829 115.901684,140.123608 109.850317,134.07224 C109.214357,133.43628 108.645517,132.758509 108.143774,132.047678 C106.191497,133.024098 104.163777,133.870898 102.071758,134.576875 C102.202383,135.390837 102.27027,136.22591 102.27027,137.076923 C102.27027,145.67982 95.3327006,152.653846 86.7747748,152.653846 C78.2168489,152.653846 71.2792793,145.67982 71.2792793,137.076923 C71.2792793,136.22591 71.3471668,135.390837 71.4777949,134.576876 C70.4027117,134.214077 69.3446118,133.814088 68.3050052,133.37843 C67.2982285,132.966272 66.3027646,132.518442 65.3205415,132.034933 C64.8245035,132.728837 64.2648675,133.391449 63.6416546,134.014662 C57.5584878,140.097829 47.7215042,140.123608 41.6701367,134.07224 C35.6187693,128.020873 35.6445479,118.183889 41.7277147,112.100722 C42.3309521,111.497485 42.9711033,110.953814 43.6408163,110.469729 C42.6230484,108.42973 41.7598288,106.33173 41.0511123,104.193114 C40.296728,104.306582 39.5245645,104.365385 38.7387387,104.365385 C30.1808129,104.365385 23.2432432,97.3913586 23.2432432,88.7884615 C23.2432432,80.1855645 30.1808129,73.2115385 38.7387387,73.2115385 C39.5778221,73.2115385 40.4013285,73.278582 41.204246,73.4076309 C41.5512293,72.3910143 41.9330431,71.3835159 42.3496827,70.3870001 C42.7822941,69.3327279 43.250956,68.297235 43.7541295,67.2820614 Z M87.5495495,115.269231 C101.670127,115.269231 113.117117,103.762088 113.117117,89.5673077 C113.117117,75.3725275 101.670127,63.8653846 87.5495495,63.8653846 C73.4289719,63.8653846 61.981982,75.3725275 61.981982,89.5673077 C61.981982,103.762088 73.4289719,115.269231 87.5495495,115.269231 Z" id="Combined-Shape" stroke="#EA5095" fill="#ED5E82"></path>
                    <g id="leftsprinkles" transform="translate(34.639640, 35.826923)">
                        <g id="ls8" transform="translate(52.090090, 93.923077) scale(1, -1) translate(-52.090090, -93.923077) translate(35.090090, 82.923077)">
                            <path d="M2.81736282,11.472122 C2.74003512,11.4651171 2.66172458,11.4615385 2.58258258,11.4615385 C1.15626161,11.4615385 0,12.6238761 0,14.0576923 C0,15.4915085 1.15626161,16.6538462 2.58258258,16.6538462 C2.66172458,16.6538462 2.74003512,16.6502676 2.81736282,16.6432626 L2.81736282,16.6538462 L13.1476931,16.6538462 L13.1476931,16.6432626 C14.4639885,16.5240215 15.4954955,15.4119506 15.4954955,14.0576923 C15.4954955,12.703434 14.4639885,11.5913631 13.1476931,11.472122 L13.1476931,11.4615385 L2.81736282,11.4615385 L2.81736282,11.472122 Z" id="Combined-Shape-Copy-14" fill="#FFF954" transform="translate(7.747748, 14.057692) rotate(45.000000) translate(-7.747748, -14.057692) "></path>
                            <path d="M21.4119574,11.472122 C21.3346297,11.4651171 21.2563192,11.4615385 21.1771772,11.4615385 C19.7508562,11.4615385 18.5945946,12.6238761 18.5945946,14.0576923 C18.5945946,15.4915085 19.7508562,16.6538462 21.1771772,16.6538462 C21.2563192,16.6538462 21.3346297,16.6502676 21.4119574,16.6432626 L21.4119574,16.6538462 L31.7422877,16.6538462 L31.7422877,16.6432626 C33.0585831,16.5240215 34.0900901,15.4119506 34.0900901,14.0576923 C34.0900901,12.703434 33.0585831,11.5913631 31.7422877,11.472122 L31.7422877,11.4615385 L21.4119574,11.4615385 L21.4119574,11.472122 Z" id="Combined-Shape-Copy-25" fill="#801A86" transform="translate(26.342342, 14.057692) rotate(-45.000000) translate(-26.342342, -14.057692) "></path>
                            <path d="M12.1146601,5.24135281 C12.0373324,5.23434782 11.9590219,5.23076923 11.8798799,5.23076923 C10.4535589,5.23076923 9.2972973,6.3931069 9.2972973,7.82692308 C9.2972973,9.26073925 10.4535589,10.4230769 11.8798799,10.4230769 C11.9590219,10.4230769 12.0373324,10.4194983 12.1146601,10.4124933 L12.1146601,10.4230769 L22.4449904,10.4230769 L22.4449904,10.4124933 C23.7612858,10.2932523 24.7927928,9.18118137 24.7927928,7.82692308 C24.7927928,6.47266478 23.7612858,5.36059387 22.4449904,5.24135281 L22.4449904,5.23076923 L12.1146601,5.23076923 L12.1146601,5.24135281 Z" id="Combined-Shape-Copy-23" fill="#4EA700" transform="translate(17.045045, 7.826923) rotate(90.000000) translate(-17.045045, -7.826923) "></path>
                        </g>
                        <g id="ls7" transform="translate(80.739498, 81.709149) scale(1, -1) rotate(45.000000) translate(-80.739498, -81.709149) translate(65.239498, 70.209149)">
                            <path d="M18.3128583,12.472122 C18.2355306,12.4651171 18.1572201,12.4615385 18.0780781,12.4615385 C16.6517571,12.4615385 15.4954955,13.6238761 15.4954955,15.0576923 C15.4954955,16.4915085 16.6517571,17.6538462 18.0780781,17.6538462 C18.1572201,17.6538462 18.2355306,17.6502676 18.3128583,17.6432626 L18.3128583,17.6538462 L28.6431886,17.6538462 L28.6431886,17.6432626 C29.959484,17.5240215 30.990991,16.4119506 30.990991,15.0576923 C30.990991,13.703434 29.959484,12.5913631 28.6431886,12.472122 L28.6431886,12.4615385 L18.3128583,12.4615385 L18.3128583,12.472122 Z" id="Combined-Shape-Copy-10" fill="#FFFB87" transform="translate(23.243243, 15.057692) rotate(-45.000000) translate(-23.243243, -15.057692) "></path>
                            <path d="M10.5651106,5.20289127 C10.4877829,5.19588628 10.4094723,5.19230769 10.3303303,5.19230769 C8.90400935,5.19230769 7.74774775,6.35464536 7.74774775,7.78846154 C7.74774775,9.22227772 8.90400935,10.3846154 10.3303303,10.3846154 C10.4094723,10.3846154 10.4877829,10.3810368 10.5651106,10.3740318 L10.5651106,10.3846154 L20.8954409,10.3846154 L20.8954409,10.3740318 C22.2117363,10.2547907 23.2432432,9.14271983 23.2432432,7.78846154 C23.2432432,6.43420324 22.2117363,5.32213233 20.8954409,5.20289127 L20.8954409,5.19230769 L10.5651106,5.19230769 L10.5651106,5.20289127 Z" id="Combined-Shape-Copy-4" fill="#645986" transform="translate(15.495495, 7.788462) rotate(90.000000) translate(-15.495495, -7.788462) "></path>
                            <path d="M2.81736282,12.472122 C2.74003512,12.4651171 2.66172458,12.4615385 2.58258258,12.4615385 C1.15626161,12.4615385 0,13.6238761 0,15.0576923 C0,16.4915085 1.15626161,17.6538462 2.58258258,17.6538462 C2.66172458,17.6538462 2.74003512,17.6502676 2.81736282,17.6432626 L2.81736282,17.6538462 L13.1476931,17.6538462 L13.1476931,17.6432626 C14.4639885,17.5240215 15.4954955,16.4119506 15.4954955,15.0576923 C15.4954955,13.703434 14.4639885,12.5913631 13.1476931,12.472122 L13.1476931,12.4615385 L2.81736282,12.4615385 L2.81736282,12.472122 Z" id="Combined-Shape-Copy-22" fill="#DD1B6E" transform="translate(7.747748, 15.057692) rotate(45.000000) translate(-7.747748, -15.057692) "></path>
                        </g>
                        <g id="ls6" transform="translate(91.831341, 52.916493) rotate(90.000000) translate(-91.831341, -52.916493) translate(74.831341, 42.416493)">
                            <path d="M2.81736282,10.9528913 C2.74003512,10.9458863 2.66172458,10.9423077 2.58258258,10.9423077 C1.15626161,10.9423077 0,12.1046454 0,13.5384615 C0,14.9722777 1.15626161,16.1346154 2.58258258,16.1346154 C2.66172458,16.1346154 2.74003512,16.1310368 2.81736282,16.1240318 L2.81736282,16.1346154 L13.1476931,16.1346154 L13.1476931,16.1240318 C14.4639885,16.0047907 15.4954955,14.8927198 15.4954955,13.5384615 C15.4954955,12.1842032 14.4639885,11.0721323 13.1476931,10.9528913 L13.1476931,10.9423077 L2.81736282,10.9423077 L2.81736282,10.9528913 Z" id="Combined-Shape-Copy-33" fill="#FFF954" transform="translate(7.747748, 13.538462) rotate(45.000000) translate(-7.747748, -13.538462) "></path>
                            <path d="M21.4119574,10.9528913 C21.3346297,10.9458863 21.2563192,10.9423077 21.1771772,10.9423077 C19.7508562,10.9423077 18.5945946,12.1046454 18.5945946,13.5384615 C18.5945946,14.9722777 19.7508562,16.1346154 21.1771772,16.1346154 C21.2563192,16.1346154 21.3346297,16.1310368 21.4119574,16.1240318 L21.4119574,16.1346154 L31.7422877,16.1346154 L31.7422877,16.1240318 C33.0585831,16.0047907 34.0900901,14.8927198 34.0900901,13.5384615 C34.0900901,12.1842032 33.0585831,11.0721323 31.7422877,10.9528913 L31.7422877,10.9423077 L21.4119574,10.9423077 L21.4119574,10.9528913 Z" id="Combined-Shape-Copy-32" fill="#801A86" transform="translate(26.342342, 13.538462) rotate(-45.000000) translate(-26.342342, -13.538462) "></path>
                            <path d="M12.0412447,5.16755162 C11.963917,5.16054663 11.8856065,5.15696804 11.8064645,5.15696804 C10.3801435,5.15696804 9.2238819,6.31930571 9.2238819,7.75312189 C9.2238819,9.18693807 10.3801435,10.3492757 11.8064645,10.3492757 C11.8856065,10.3492757 11.963917,10.3456971 12.0412447,10.3386922 L12.0412447,10.3492757 L22.371575,10.3492757 L22.371575,10.3386922 C23.6878704,10.2194511 24.7193774,9.10738018 24.7193774,7.75312189 C24.7193774,6.39886359 23.6878704,5.28679268 22.371575,5.16755162 L22.371575,5.15696804 L12.0412447,5.15696804 L12.0412447,5.16755162 Z" id="Combined-Shape-Copy-31" fill="#4EA700" transform="translate(16.971630, 7.753122) rotate(90.000000) translate(-16.971630, -7.753122) "></path>
                        </g>
                        <g id="ls5" transform="translate(80.775289, 23.468985) rotate(45.000000) translate(-80.775289, -23.468985) translate(64.775289, 11.968985)">
                            <path d="M18.8697572,12.5459232 C18.7924295,12.5389182 18.714119,12.5353397 18.634977,12.5353397 C17.208656,12.5353397 16.0523944,13.6976773 16.0523944,15.1314935 C16.0523944,16.5653097 17.208656,17.7276473 18.634977,17.7276473 C18.714119,17.7276473 18.7924295,17.7240688 18.8697572,17.7170638 L18.8697572,17.7276473 L29.2000875,17.7276473 L29.2000875,17.7170638 C30.5163829,17.5978227 31.5478899,16.4857518 31.5478899,15.1314935 C31.5478899,13.7772352 30.5163829,12.6651643 29.2000875,12.5459232 L29.2000875,12.5353397 L18.8697572,12.5353397 L18.8697572,12.5459232 Z" id="Combined-Shape" fill="#CC4E06" transform="translate(23.800142, 15.131493) rotate(-45.000000) translate(-23.800142, -15.131493) "></path>
                            <path d="M3.3742617,11.7670771 C3.296934,11.7600721 3.21862346,11.7564935 3.13948146,11.7564935 C1.71316049,11.7564935 0.556898881,12.9188312 0.556898881,14.3526473 C0.556898881,15.7864635 1.71316049,16.9488012 3.13948146,16.9488012 C3.21862346,16.9488012 3.296934,16.9452226 3.3742617,16.9382176 L3.3742617,16.9488012 L13.704592,16.9488012 L13.704592,16.9382176 C15.0208874,16.8189766 16.0523944,15.7069056 16.0523944,14.3526473 C16.0523944,12.998389 15.0208874,11.8863181 13.704592,11.7670771 L13.704592,11.7564935 L3.3742617,11.7564935 L3.3742617,11.7670771 Z" id="Combined-Shape-Copy-30" fill="#2DF2EE" transform="translate(8.304647, 14.352647) rotate(45.000000) translate(-8.304647, -14.352647) "></path>
                            <path d="M11.048594,5.20289127 C10.9712664,5.19588628 10.8929558,5.19230769 10.8138138,5.19230769 C9.38749284,5.19230769 8.23123123,6.35464536 8.23123123,7.78846154 C8.23123123,9.22227772 9.38749284,10.3846154 10.8138138,10.3846154 C10.8929558,10.3846154 10.9712664,10.3810368 11.048594,10.3740318 L11.048594,10.3846154 L21.3789244,10.3846154 L21.3789244,10.3740318 C22.6952198,10.2547907 23.7267267,9.14271983 23.7267267,7.78846154 C23.7267267,6.43420324 22.6952198,5.32213233 21.3789244,5.20289127 L21.3789244,5.19230769 L11.048594,5.19230769 L11.048594,5.20289127 Z" id="Combined-Shape-Copy-24" fill="#16B809" transform="translate(15.978979, 7.788462) rotate(90.000000) translate(-15.978979, -7.788462) "></path>
                        </g>
                        <g id="ls4" transform="translate(35.639640, 0.000000)">
                            <path d="M3.3742617,12.5459232 C3.296934,12.5389182 3.21862346,12.5353397 3.13948146,12.5353397 C1.71316049,12.5353397 0.556898881,13.6976773 0.556898881,15.1314935 C0.556898881,16.5653097 1.71316049,17.7276473 3.13948146,17.7276473 C3.21862346,17.7276473 3.296934,17.7240688 3.3742617,17.7170638 L3.3742617,17.7276473 L13.704592,17.7276473 L13.704592,17.7170638 C15.0208874,17.5978227 16.0523944,16.4857518 16.0523944,15.1314935 C16.0523944,13.7772352 15.0208874,12.6651643 13.704592,12.5459232 L13.704592,12.5353397 L3.3742617,12.5353397 L3.3742617,12.5459232 Z" id="Combined-Shape-Copy-6" fill="#801A86" transform="translate(8.304647, 15.131493) rotate(45.000000) translate(-8.304647, -15.131493) "></path>
                            <path d="M10.8138138,5.7231804 C10.7287533,5.71547491 10.6426118,5.71153846 10.5555556,5.71153846 C8.98660248,5.71153846 7.71471471,6.9901099 7.71471471,8.56730769 C7.71471471,10.1445055 8.98660248,11.4230769 10.5555556,11.4230769 C10.6426118,11.4230769 10.7287533,11.4191405 10.8138138,11.411435 L10.8138138,11.4230769 L22.1771772,11.4230769 L22.1771772,11.411435 C23.6251021,11.2802698 24.7597598,10.0569918 24.7597598,8.56730769 C24.7597598,7.07762357 23.6251021,5.85434556 22.1771772,5.7231804 L22.1771772,5.71153846 L10.8138138,5.71153846 L10.8138138,5.7231804 Z" id="Combined-Shape-Copy-12" fill="#DD1B6E" transform="translate(16.237237, 8.567308) rotate(90.000000) translate(-16.237237, -8.567308) "></path>
                            <path d="M19.3128583,12.472122 C19.2355306,12.4651171 19.1572201,12.4615385 19.0780781,12.4615385 C17.6517571,12.4615385 16.4954955,13.6238761 16.4954955,15.0576923 C16.4954955,16.4915085 17.6517571,17.6538462 19.0780781,17.6538462 C19.1572201,17.6538462 19.2355306,17.6502676 19.3128583,17.6432626 L19.3128583,17.6538462 L29.6431886,17.6538462 L29.6431886,17.6432626 C30.959484,17.5240215 31.990991,16.4119506 31.990991,15.0576923 C31.990991,13.703434 30.959484,12.5913631 29.6431886,12.472122 L29.6431886,12.4615385 L19.3128583,12.4615385 L19.3128583,12.472122 Z" id="Combined-Shape-Copy-29" fill="#7D8E53" transform="translate(24.243243, 15.057692) rotate(-45.000000) translate(-24.243243, -15.057692) "></path>
                        </g>
                        <g id="ls3" transform="translate(23.501352, 24.169721) rotate(-45.000000) translate(-23.501352, -24.169721) translate(8.001352, 13.169721)">
                            <path d="M10.5651106,5.24135281 C10.4877829,5.23434782 10.4094723,5.23076923 10.3303303,5.23076923 C8.90400935,5.23076923 7.74774775,6.3931069 7.74774775,7.82692308 C7.74774775,9.26073925 8.90400935,10.4230769 10.3303303,10.4230769 C10.4094723,10.4230769 10.4877829,10.4194983 10.5651106,10.4124933 L10.5651106,10.4230769 L20.8954409,10.4230769 L20.8954409,10.4124933 C22.2117363,10.2932523 23.2432432,9.18118137 23.2432432,7.82692308 C23.2432432,6.47266478 22.2117363,5.36059387 20.8954409,5.24135281 L20.8954409,5.23076923 L10.5651106,5.23076923 L10.5651106,5.24135281 Z" id="Combined-Shape-Copy-3" fill="#775D7B" transform="translate(15.495495, 7.826923) rotate(90.000000) translate(-15.495495, -7.826923) "></path>
                            <path d="M18.3128583,11.472122 C18.2355306,11.4651171 18.1572201,11.4615385 18.0780781,11.4615385 C16.6517571,11.4615385 15.4954955,12.6238761 15.4954955,14.0576923 C15.4954955,15.4915085 16.6517571,16.6538462 18.0780781,16.6538462 C18.1572201,16.6538462 18.2355306,16.6502676 18.3128583,16.6432626 L18.3128583,16.6538462 L28.6431886,16.6538462 L28.6431886,16.6432626 C29.959484,16.5240215 30.990991,15.4119506 30.990991,14.0576923 C30.990991,12.703434 29.959484,11.5913631 28.6431886,11.472122 L28.6431886,11.4615385 L18.3128583,11.4615385 L18.3128583,11.472122 Z" id="Combined-Shape-Copy-15" fill="#E728E4" transform="translate(23.243243, 14.057692) rotate(-45.000000) translate(-23.243243, -14.057692) "></path>
                            <path d="M2.81736282,11.472122 C2.74003512,11.4651171 2.66172458,11.4615385 2.58258258,11.4615385 C1.15626161,11.4615385 0,12.6238761 0,14.0576923 C0,15.4915085 1.15626161,16.6538462 2.58258258,16.6538462 C2.66172458,16.6538462 2.74003512,16.6502676 2.81736282,16.6432626 L2.81736282,16.6538462 L13.1476931,16.6538462 L13.1476931,16.6432626 C14.4639885,16.5240215 15.4954955,15.4119506 15.4954955,14.0576923 C15.4954955,12.703434 14.4639885,11.5913631 13.1476931,11.472122 L13.1476931,11.4615385 L2.81736282,11.4615385 L2.81736282,11.472122 Z" id="Combined-Shape-Copy-18" fill="#FFF954" transform="translate(7.747748, 14.057692) rotate(45.000000) translate(-7.747748, -14.057692) "></path>
                        </g>
                        <g id="ls2" transform="translate(11.943001, 54.514726) rotate(-90.000000) translate(-11.943001, -54.514726) translate(-3.556999, 43.514726)">
                            <path d="M18.3128583,11.4336605 C18.2355306,11.4266555 18.1572201,11.4230769 18.0780781,11.4230769 C16.6517571,11.4230769 15.4954955,12.5854146 15.4954955,14.0192308 C15.4954955,15.4530469 16.6517571,16.6153846 18.0780781,16.6153846 C18.1572201,16.6153846 18.2355306,16.611806 18.3128583,16.604801 L18.3128583,16.6153846 L28.6431886,16.6153846 L28.6431886,16.604801 C29.959484,16.48556 30.990991,15.3734891 30.990991,14.0192308 C30.990991,12.6649725 29.959484,11.5529016 28.6431886,11.4336605 L28.6431886,11.4230769 L18.3128583,11.4230769 L18.3128583,11.4336605 Z" id="Combined-Shape-Copy-36" fill="#0053F0" transform="translate(23.243243, 14.019231) rotate(-45.000000) translate(-23.243243, -14.019231) "></path>
                            <path d="M10.4916952,5.64832085 C10.4143675,5.64131586 10.3360569,5.63773727 10.2569149,5.63773727 C8.83059396,5.63773727 7.67433235,6.80007494 7.67433235,8.23389112 C7.67433235,9.6677073 8.83059396,10.830045 10.2569149,10.830045 C10.3360569,10.830045 10.4143675,10.8264664 10.4916952,10.8194614 L10.4916952,10.830045 L20.8220255,10.830045 L20.8220255,10.8194614 C22.1383209,10.7002203 23.1698278,9.58814941 23.1698278,8.23389112 C23.1698278,6.87963282 22.1383209,5.76756191 20.8220255,5.64832085 L20.8220255,5.63773727 L10.4916952,5.63773727 L10.4916952,5.64832085 Z" id="Combined-Shape-Copy-35" fill="#775D7B" transform="translate(15.422080, 8.233891) rotate(90.000000) translate(-15.422080, -8.233891) "></path>
                            <path d="M2.81736282,11.4336605 C2.74003512,11.4266555 2.66172458,11.4230769 2.58258258,11.4230769 C1.15626161,11.4230769 0,12.5854146 0,14.0192308 C0,15.4530469 1.15626161,16.6153846 2.58258258,16.6153846 C2.66172458,16.6153846 2.74003512,16.611806 2.81736282,16.604801 L2.81736282,16.6153846 L13.1476931,16.6153846 L13.1476931,16.604801 C14.4639885,16.48556 15.4954955,15.3734891 15.4954955,14.0192308 C15.4954955,12.6649725 14.4639885,11.5529016 13.1476931,11.4336605 L13.1476931,11.4230769 L2.81736282,11.4230769 L2.81736282,11.4336605 Z" id="Combined-Shape-Copy-34" fill="#E728E4" transform="translate(7.747748, 14.019231) rotate(45.000000) translate(-7.747748, -14.019231) "></path>
                        </g>
                        <g id="ls1" transform="translate(21.247575, 83.235296) scale(1, -1) rotate(-45.000000) translate(-21.247575, -83.235296) translate(5.247575, 72.735296)">
                            <path d="M19.4193067,10.3213978 C19.341979,10.3143928 19.2636685,10.3108142 19.1845265,10.3108142 C17.7582055,10.3108142 16.6019439,11.4731519 16.6019439,12.906968 C16.6019439,14.3407842 17.7582055,15.5031219 19.1845265,15.5031219 C19.2636685,15.5031219 19.341979,15.4995433 19.4193067,15.4925383 L19.4193067,15.5031219 L29.7496371,15.5031219 L29.7496371,15.4925383 C31.0659325,15.3732973 32.0974394,14.2612263 32.0974394,12.906968 C32.0974394,11.5527097 31.0659325,10.4406388 29.7496371,10.3213978 L29.7496371,10.3108142 L19.4193067,10.3108142 L19.4193067,10.3213978 Z" id="Combined-Shape-Copy-7" fill="#80123A" transform="translate(24.349692, 12.906968) rotate(-45.000000) translate(-24.349692, -12.906968) "></path>
                            <path d="M2.81736282,10.395199 C2.74003512,10.388194 2.66172458,10.3846154 2.58258258,10.3846154 C1.15626161,10.3846154 0,11.5469531 0,12.9807692 C0,14.4145854 1.15626161,15.5769231 2.58258258,15.5769231 C2.66172458,15.5769231 2.74003512,15.5733445 2.81736282,15.5663395 L2.81736282,15.5769231 L13.1476931,15.5769231 L13.1476931,15.5663395 C14.4639885,15.4470984 15.4954955,14.3350275 15.4954955,12.9807692 C15.4954955,11.6265109 14.4639885,10.51444 13.1476931,10.395199 L13.1476931,10.3846154 L2.81736282,10.3846154 L2.81736282,10.395199 Z" id="Combined-Shape-Copy-26" fill="#E2D951" transform="translate(7.747748, 12.980769) rotate(45.000000) translate(-7.747748, -12.980769) "></path>
                            <path d="M11.5981436,5.20289127 C11.5208159,5.19588628 11.4425054,5.19230769 11.3633634,5.19230769 C9.93704239,5.19230769 8.78078078,6.35464536 8.78078078,7.78846154 C8.78078078,9.22227772 9.93704239,10.3846154 11.3633634,10.3846154 C11.4425054,10.3846154 11.5208159,10.3810368 11.5981436,10.3740318 L11.5981436,10.3846154 L21.9284739,10.3846154 L21.9284739,10.3740318 C23.2447693,10.2547907 24.2762763,9.14271983 24.2762763,7.78846154 C24.2762763,6.43420324 23.2447693,5.32213233 21.9284739,5.20289127 L21.9284739,5.19230769 L11.5981436,5.19230769 L11.5981436,5.20289127 Z" id="Combined-Shape-Copy-17" fill="#00A1D4" transform="translate(16.528529, 7.788462) rotate(90.000000) translate(-16.528529, -7.788462) "></path>
                        </g>
                    </g>
                    <path d="M1.83256188e-14,82.5576923 C2.02584073,36.6188848 39.7160291,0 85.9143069,0 C132.112585,0 169.802773,36.6188848 171.828614,82.5576923 L164.029399,82.5576923 C161.625291,41.7188894 127.917952,9.34615385 86.6890817,9.34615385 C45.460211,9.34615385 11.7528727,41.7188894 9.34876409,82.5576923 L1.77635684e-14,82.5576923 Z" id="Combined-Shape" stroke="#031717" fill="#079391" opacity="0.643831623"></path>
                </g>
                <g id="fronttyre" transform="translate(237.000000, 81.000000)">
                    <path d="M85.745098,107.251232 L85.745098,106.460156 L112.030702,80.1286584 L112.594771,79.5636048 L111.466634,78.4334975 L110.902565,78.9985511 L85.745098,104.199942 L85.745098,69.6152709 L85.745098,68.8275862 L83.8272642,68.8275862 L83.8272642,69.6152709 L83.8272642,106.121124 L56.7519635,78.9985511 L56.1878948,78.4334975 L55.0597572,79.5636048 L55.623826,80.1286584 L82.6991267,107.251232 L46.2569001,107.251232 L45.4705882,107.251232 L45.4705882,109.172414 L46.2569001,109.172414 L80.7812929,109.172414 L55.623826,134.373805 L55.0597572,134.938858 L56.1878948,136.068966 L56.7519635,135.503912 L83.037568,109.172414 L83.8272642,109.172414 L83.8272642,146.808374 L83.8272642,147.596059 L85.745098,147.596059 L85.745098,146.808374 L85.745098,110.302521 L110.902565,135.503912 L111.466634,136.068966 L112.594771,134.938858 L112.030702,134.373805 L86.8732356,109.172414 L123.315462,109.172414 L124.101774,109.172414 L124.101774,107.251232 L123.315462,107.251232 L85.745098,107.251232 Z" id="Combined-Shape-Copy" fill="#40352F"></path>
                    <path d="M84.1960784,179 C43.9875828,179 11.3921569,146.347664 11.3921569,106.068966 C11.3921569,65.7902674 43.9875828,33.137931 84.1960784,33.137931 C124.404574,33.137931 157,65.7902674 157,106.068966 C157,146.347664 124.404574,179 84.1960784,179 Z M84.9705882,132.448276 C99.0863367,132.448276 110.529412,120.985222 110.529412,106.844828 C110.529412,92.7044336 99.0863367,81.2413793 84.9705882,81.2413793 C70.8548398,81.2413793 59.4117647,92.7044336 59.4117647,106.844828 C59.4117647,120.985222 70.8548398,132.448276 84.9705882,132.448276 Z" id="Combined-Shape" stroke="#40352F" fill="#C79C6F"></path>
                    <path d="M41.1974731,84.6302408 C40.4767366,84.1233462 39.7896483,83.5477289 39.1453005,82.9033811 C33.0960026,76.8540832 33.1045647,67.0376715 39.1644244,60.9778118 C45.2242841,54.9179521 55.0406958,54.90939 61.0899937,60.9586879 C61.7284689,61.5971631 62.2994606,62.2776033 62.8029766,62.9911624 C64.7642437,62.0118717 66.8018014,61.1630321 68.9043272,60.4559862 C68.7737467,59.6451436 68.7058824,58.8132696 68.7058824,57.9655172 C68.7058824,49.3955815 75.6410794,42.4482759 84.1960784,42.4482759 C92.7510775,42.4482759 99.6862745,49.3955815 99.6862745,57.9655172 C99.6862745,58.8132696 99.6184102,59.6451436 99.4878268,60.4559852 C100.543604,60.8110261 101.582996,61.2018193 102.604572,61.6269296 C103.621397,62.0461646 104.626693,62.5018218 105.618467,62.9939029 C106.119872,62.2865175 106.687481,61.6116177 107.321287,60.9778118 C113.381147,54.9179521 123.197559,54.90939 129.246856,60.9586879 C135.296154,67.0079857 135.287592,76.8243975 129.227732,82.8842572 C128.600532,83.5114576 127.93309,84.0738339 127.233748,84.571379 C128.233761,86.5779722 129.084468,88.6402002 129.785881,90.7415229 C130.577495,90.6165918 131.389028,90.5517241 132.215686,90.5517241 C140.770685,90.5517241 147.705882,97.4990297 147.705882,106.068966 C147.705882,114.638901 140.770685,121.586207 132.215686,121.586207 C131.371377,121.586207 130.542845,121.51854 129.7352,121.388323 C129.387245,122.42054 129.003295,123.443344 128.58335,124.454776 C128.155084,125.491165 127.691699,126.509299 127.194684,127.50769 C127.91542,128.014585 128.602509,128.590202 129.246856,129.23455 C135.296154,135.283848 135.287592,145.10026 129.227732,151.160119 C123.167873,157.219979 113.351461,157.228541 107.302163,151.179243 C106.663688,150.540768 106.092696,149.860328 105.58918,149.146769 C103.627913,150.126059 101.590355,150.974899 99.4878297,151.681945 C99.6184102,152.492787 99.6862745,153.324661 99.6862745,154.172414 C99.6862745,162.74235 92.7510775,169.689655 84.1960784,169.689655 C75.6410794,169.689655 68.7058824,162.74235 68.7058824,154.172414 C68.7058824,153.324661 68.7737467,152.492787 68.9043301,151.681946 C67.8485534,151.326905 66.8091612,150.936112 65.7875844,150.511001 C64.7707597,150.091766 63.7654639,149.636109 62.77369,149.144028 C62.2722849,149.851414 61.7046757,150.526313 61.0708697,151.160119 C55.01101,157.219979 45.1945983,157.228541 39.1453005,151.179243 C33.0960026,145.129945 33.1045647,135.313534 39.1644244,129.253674 C39.7916248,128.626473 40.4590669,128.064097 41.158409,127.566552 C40.1583954,125.559959 39.3076891,123.497731 38.6062756,121.396408 C37.814662,121.521339 37.0031284,121.586207 36.1764706,121.586207 C27.6214715,121.586207 20.6862745,114.638901 20.6862745,106.068966 C20.6862745,97.4990297 27.6214715,90.5517241 36.1764706,90.5517241 C37.0207796,90.5517241 37.8493116,90.6193915 38.656957,90.7496078 C39.0049114,89.717391 39.3888618,88.6945871 39.8088065,87.6831555 C40.2370731,86.6467662 40.7004574,85.6286317 41.1974731,84.6302408 Z M84.9705882,132.448276 C99.0863367,132.448276 110.529412,120.985222 110.529412,106.844828 C110.529412,92.7044336 99.0863367,81.2413793 84.9705882,81.2413793 C70.8548398,81.2413793 59.4117647,92.7044336 59.4117647,106.844828 C59.4117647,120.985222 70.8548398,132.448276 84.9705882,132.448276 Z" id="Combined-Shape" stroke="#EA5095" fill="#ED5E82"></path>
                    <g id="rightsprinkles" transform="translate(30.529412, 53.310345)">
                        <g id="rs8" transform="translate(53.676471, 93.517241) scale(1, -1) translate(-53.676471, -93.517241) translate(38.176471, 82.517241)">
                            <path d="M18.3065954,11.4243361 C18.2292941,11.417358 18.1510104,11.4137931 18.0718954,11.4137931 C16.6460622,11.4137931 15.4901961,12.5716774 15.4901961,14 C15.4901961,15.4283226 16.6460622,16.5862069 18.0718954,16.5862069 C18.1510104,16.5862069 18.2292941,16.582642 18.3065954,16.5756639 L18.3065954,16.5862069 L28.6333928,16.5862069 L28.6333928,16.5756639 C29.949238,16.4568797 30.9803922,15.3490696 30.9803922,14 C30.9803922,12.6509304 29.949238,11.5431203 28.6333928,11.4243361 L28.6333928,11.4137931 L18.3065954,11.4137931 L18.3065954,11.4243361 Z" id="Combined-Shape-Copy-2" fill="#B1F20F" transform="translate(23.235294, 14.000000) rotate(-45.000000) translate(-23.235294, -14.000000) "></path>
                            <path d="M10.5614973,5.21743958 C10.4841961,5.21046143 10.4059123,5.20689655 10.3267974,5.20689655 C8.90096421,5.20689655 7.74509804,6.36478082 7.74509804,7.79310345 C7.74509804,9.22142608 8.90096421,10.3793103 10.3267974,10.3793103 C10.4059123,10.3793103 10.4841961,10.3757455 10.5614973,10.3687673 L10.5614973,10.3793103 L20.8882947,10.3793103 L20.8882947,10.3687673 C22.2041399,10.2499831 23.2352941,9.14217301 23.2352941,7.79310345 C23.2352941,6.44403388 22.2041399,5.33622378 20.8882947,5.21743958 L20.8882947,5.20689655 L10.5614973,5.20689655 L10.5614973,5.21743958 Z" id="Combined-Shape-Copy-27" fill="#80123A" transform="translate(15.490196, 7.793103) rotate(90.000000) translate(-15.490196, -7.793103) "></path>
                            <path d="M2.81639929,11.4243361 C2.73909804,11.417358 2.66081428,11.4137931 2.58169935,11.4137931 C1.15586617,11.4137931 0,12.5716774 0,14 C0,15.4283226 1.15586617,16.5862069 2.58169935,16.5862069 C2.66081428,16.5862069 2.73909804,16.582642 2.81639929,16.5756639 L2.81639929,16.5862069 L13.1431967,16.5862069 L13.1431967,16.5756639 C14.4590419,16.4568797 15.4901961,15.3490696 15.4901961,14 C15.4901961,12.6509304 14.4590419,11.5431203 13.1431967,11.4243361 L13.1431967,11.4137931 L2.81639929,11.4137931 L2.81639929,11.4243361 Z" id="Combined-Shape-Copy-20" fill="#C96213" transform="translate(7.745098, 14.000000) rotate(45.000000) translate(-7.745098, -14.000000) "></path>
                        </g>
                        <g id="rs7" transform="translate(82.233388, 83.302067) scale(1, -1) rotate(45.000000) translate(-82.233388, -83.302067) translate(66.233388, 72.302067)">
                            <path d="M2.81639929,11.4243361 C2.73909804,11.417358 2.66081428,11.4137931 2.58169935,11.4137931 C1.15586617,11.4137931 0,12.5716774 0,14 C0,15.4283226 1.15586617,16.5862069 2.58169935,16.5862069 C2.66081428,16.5862069 2.73909804,16.582642 2.81639929,16.5756639 L2.81639929,16.5862069 L13.1431967,16.5862069 L13.1431967,16.5756639 C14.4590419,16.4568797 15.4901961,15.3490696 15.4901961,14 C15.4901961,12.6509304 14.4590419,11.5431203 13.1431967,11.4243361 L13.1431967,11.4137931 L2.81639929,11.4137931 L2.81639929,11.4243361 Z" id="Combined-Shape-Copy-8" fill="#E2D951" transform="translate(7.745098, 14.000000) rotate(45.000000) translate(-7.745098, -14.000000) "></path>
                            <path d="M10.5614973,5.21743958 C10.4841961,5.21046143 10.4059123,5.20689655 10.3267974,5.20689655 C8.90096421,5.20689655 7.74509804,6.36478082 7.74509804,7.79310345 C7.74509804,9.22142608 8.90096421,10.3793103 10.3267974,10.3793103 C10.4059123,10.3793103 10.4841961,10.3757455 10.5614973,10.3687673 L10.5614973,10.3793103 L20.8882947,10.3793103 L20.8882947,10.3687673 C22.2041399,10.2499831 23.2352941,9.14217301 23.2352941,7.79310345 C23.2352941,6.44403388 22.2041399,5.33622378 20.8882947,5.21743958 L20.8882947,5.20689655 L10.5614973,5.20689655 L10.5614973,5.21743958 Z" id="Combined-Shape-Copy-5" fill="#8FE388" transform="translate(15.490196, 7.793103) rotate(90.000000) translate(-15.490196, -7.793103) "></path>
                            <path d="M19.4126654,11.4978546 C19.3353641,11.4908764 19.2570804,11.4873115 19.1779655,11.4873115 C17.7521323,11.4873115 16.5962661,12.6451958 16.5962661,14.0735184 C16.5962661,15.5018411 17.7521323,16.6597253 19.1779655,16.6597253 C19.2570804,16.6597253 19.3353641,16.6561604 19.4126654,16.6491823 L19.4126654,16.6597253 L29.7394628,16.6597253 L29.7394628,16.6491823 C31.055308,16.5303981 32.0864622,15.422588 32.0864622,14.0735184 C32.0864622,12.7244489 31.055308,11.6166388 29.7394628,11.4978546 L29.7394628,11.4873115 L19.4126654,11.4873115 L19.4126654,11.4978546 Z" id="Combined-Shape-Copy-9" fill="#00A1D4" transform="translate(24.341364, 14.073518) rotate(-45.000000) translate(-24.341364, -14.073518) "></path>
                        </g>
                        <g id="rs6" transform="translate(94.353617, 51.216700) rotate(90.000000) translate(-94.353617, -51.216700) translate(78.853617, 40.216700)">
                            <path d="M18.3065954,11.4243361 C18.2292941,11.417358 18.1510104,11.4137931 18.0718954,11.4137931 C16.6460622,11.4137931 15.4901961,12.5716774 15.4901961,14 C15.4901961,15.4283226 16.6460622,16.5862069 18.0718954,16.5862069 C18.1510104,16.5862069 18.2292941,16.582642 18.3065954,16.5756639 L18.3065954,16.5862069 L28.6333928,16.5862069 L28.6333928,16.5756639 C29.949238,16.4568797 30.9803922,15.3490696 30.9803922,14 C30.9803922,12.6509304 29.949238,11.5431203 28.6333928,11.4243361 L28.6333928,11.4137931 L18.3065954,11.4137931 L18.3065954,11.4243361 Z" id="Combined-Shape-Copy-11" fill="#0053F0" transform="translate(23.235294, 14.000000) rotate(-45.000000) translate(-23.235294, -14.000000) "></path>
                            <path d="M10.5614973,5.21743958 C10.4841961,5.21046143 10.4059123,5.20689655 10.3267974,5.20689655 C8.90096421,5.20689655 7.74509804,6.36478082 7.74509804,7.79310345 C7.74509804,9.22142608 8.90096421,10.3793103 10.3267974,10.3793103 C10.4059123,10.3793103 10.4841961,10.3757455 10.5614973,10.3687673 L10.5614973,10.3793103 L20.8882947,10.3793103 L20.8882947,10.3687673 C22.2041399,10.2499831 23.2352941,9.14217301 23.2352941,7.79310345 C23.2352941,6.44403388 22.2041399,5.33622378 20.8882947,5.21743958 L20.8882947,5.20689655 L10.5614973,5.20689655 L10.5614973,5.21743958 Z" id="Combined-Shape-Copy-28" fill="#775D7B" transform="translate(15.490196, 7.793103) rotate(90.000000) translate(-15.490196, -7.793103) "></path>
                            <path d="M2.81639929,11.4243361 C2.73909804,11.417358 2.66081428,11.4137931 2.58169935,11.4137931 C1.15586617,11.4137931 0,12.5716774 0,14 C0,15.4283226 1.15586617,16.5862069 2.58169935,16.5862069 C2.66081428,16.5862069 2.73909804,16.582642 2.81639929,16.5756639 L2.81639929,16.5862069 L13.1431967,16.5862069 L13.1431967,16.5756639 C14.4590419,16.4568797 15.4901961,15.3490696 15.4901961,14 C15.4901961,12.6509304 14.4590419,11.5431203 13.1431967,11.4243361 L13.1431967,11.4137931 L2.81639929,11.4137931 L2.81639929,11.4243361 Z" id="Combined-Shape-Copy-21" fill="#E728E4" transform="translate(7.745098, 14.000000) rotate(45.000000) translate(-7.745098, -14.000000) "></path>
                        </g>
                        <g id="rs5" transform="translate(84.100343, 22.764029) rotate(45.000000) translate(-84.100343, -22.764029) translate(67.600343, 12.264029)">
                            <path d="M11.5941771,5.18295682 C11.5168758,5.17597867 11.4385921,5.17241379 11.3594771,5.17241379 C9.93364395,5.17241379 8.77777778,6.33029806 8.77777778,7.75862069 C8.77777778,9.18694332 9.93364395,10.3448276 11.3594771,10.3448276 C11.4385921,10.3448276 11.5168758,10.3412627 11.5941771,10.3342846 L11.5941771,10.3448276 L21.9209745,10.3448276 L21.9209745,10.3342846 C23.2368197,10.2155004 24.2679739,9.10769026 24.2679739,7.75862069 C24.2679739,6.40955112 23.2368197,5.30174102 21.9209745,5.18295682 L21.9209745,5.17241379 L11.5941771,5.17241379 L11.5941771,5.18295682 Z" id="Combined-Shape-Copy-13" fill="#4EA700" transform="translate(16.522876, 7.758621) rotate(90.000000) translate(-16.522876, -7.758621) "></path>
                            <path d="M2.81639929,10.872612 C2.73909804,10.8656338 2.66081428,10.862069 2.58169935,10.862069 C1.15586617,10.862069 0,12.0199532 0,13.4482759 C0,14.8765985 1.15586617,16.0344828 2.58169935,16.0344828 C2.66081428,16.0344828 2.73909804,16.0309179 2.81639929,16.0239397 L2.81639929,16.0344828 L13.1431967,16.0344828 L13.1431967,16.0239397 C14.4590419,15.9051555 15.4901961,14.7973454 15.4901961,13.4482759 C15.4901961,12.0992063 14.4590419,10.9913962 13.1431967,10.872612 L13.1431967,10.862069 L2.81639929,10.862069 L2.81639929,10.872612 Z" id="Combined-Shape-Copy-19" fill="#FFFB87" transform="translate(7.745098, 13.448276) rotate(45.000000) translate(-7.745098, -13.448276) "></path>
                            <path d="M19.855615,10.872612 C19.7783137,10.8656338 19.70003,10.862069 19.620915,10.862069 C18.1950819,10.862069 17.0392157,12.0199532 17.0392157,13.4482759 C17.0392157,14.8765985 18.1950819,16.0344828 19.620915,16.0344828 C19.70003,16.0344828 19.7783137,16.0309179 19.855615,16.0239397 L19.855615,16.0344828 L30.1824124,16.0344828 L30.1824124,16.0239397 C31.4982576,15.9051555 32.5294118,14.7973454 32.5294118,13.4482759 C32.5294118,12.0992063 31.4982576,10.9913962 30.1824124,10.872612 L30.1824124,10.862069 L19.855615,10.862069 L19.855615,10.872612 Z" id="Combined-Shape-Copy-16" fill="#645986" transform="translate(24.784314, 13.448276) rotate(-45.000000) translate(-24.784314, -13.448276) "></path>
                        </g>
                        <g id="rs4" transform="translate(38.725490, 0.000000)">
                            <path d="M18.8636458,12.4978546 C18.7863445,12.4908764 18.7080608,12.4873115 18.6289458,12.4873115 C17.2031127,12.4873115 16.0472465,13.6451958 16.0472465,15.0735184 C16.0472465,16.5018411 17.2031127,17.6597253 18.6289458,17.6597253 C18.7080608,17.6597253 18.7863445,17.6561604 18.8636458,17.6491823 L18.8636458,17.6597253 L29.1904432,17.6597253 L29.1904432,17.6491823 C30.5062884,17.5303981 31.5374426,16.422588 31.5374426,15.0735184 C31.5374426,13.7244489 30.5062884,12.6166388 29.1904432,12.4978546 L29.1904432,12.4873115 L18.8636458,12.4873115 L18.8636458,12.4978546 Z" id="Combined-Shape" fill="#CC4E06" transform="translate(23.792345, 15.073518) rotate(-45.000000) translate(-23.792345, -15.073518) "></path>
                            <path d="M3.37344971,11.7219925 C3.29614846,11.7150143 3.2178647,11.7114495 3.13874977,11.7114495 C1.71291659,11.7114495 0.55705042,12.8693337 0.55705042,14.2976564 C0.55705042,15.725979 1.71291659,16.8838633 3.13874977,16.8838633 C3.2178647,16.8838633 3.29614846,16.8802984 3.37344971,16.8733202 L3.37344971,16.8838633 L13.7002471,16.8838633 L13.7002471,16.8733202 C15.0160923,16.754536 16.0472465,15.6467259 16.0472465,14.2976564 C16.0472465,12.9485868 15.0160923,11.8407767 13.7002471,11.7219925 L13.7002471,11.7114495 L3.37344971,11.7114495 L3.37344971,11.7219925 Z" id="Combined-Shape-Copy-30" fill="#2DF2EE" transform="translate(8.302148, 14.297656) rotate(45.000000) translate(-8.302148, -14.297656) "></path>
                            <path d="M11.0451575,5.18295682 C10.9678562,5.17597867 10.8895724,5.17241379 10.8104575,5.17241379 C9.38462434,5.17241379 8.22875817,6.33029806 8.22875817,7.75862069 C8.22875817,9.18694332 9.38462434,10.3448276 10.8104575,10.3448276 C10.8895724,10.3448276 10.9678562,10.3412627 11.0451575,10.3342846 L11.0451575,10.3448276 L21.3719548,10.3448276 L21.3719548,10.3342846 C22.6878001,10.2155004 23.7189542,9.10769026 23.7189542,7.75862069 C23.7189542,6.40955112 22.6878001,5.30174102 21.3719548,5.18295682 L21.3719548,5.17241379 L11.0451575,5.17241379 L11.0451575,5.18295682 Z" id="Combined-Shape-Copy-24" fill="#16B809" transform="translate(15.973856, 7.758621) rotate(90.000000) translate(-15.973856, -7.758621) "></path>
                        </g>
                        <g id="rs3" transform="translate(22.708017, 22.922518) scale(-1, 1) rotate(45.000000) translate(-22.708017, -22.922518) translate(6.708017, 11.922518)">
                            <path d="M2.81639929,11.4243361 C2.73909804,11.417358 2.66081428,11.4137931 2.58169935,11.4137931 C1.15586617,11.4137931 0,12.5716774 0,14 C0,15.4283226 1.15586617,16.5862069 2.58169935,16.5862069 C2.66081428,16.5862069 2.73909804,16.582642 2.81639929,16.5756639 L2.81639929,16.5862069 L13.1431967,16.5862069 L13.1431967,16.5756639 C14.4590419,16.4568797 15.4901961,15.3490696 15.4901961,14 C15.4901961,12.6509304 14.4590419,11.5431203 13.1431967,11.4243361 L13.1431967,11.4137931 L2.81639929,11.4137931 L2.81639929,11.4243361 Z" id="Combined-Shape-Copy-8" fill="#E2D951" transform="translate(7.745098, 14.000000) rotate(45.000000) translate(-7.745098, -14.000000) "></path>
                            <path d="M10.5614973,5.21743958 C10.4841961,5.21046143 10.4059123,5.20689655 10.3267974,5.20689655 C8.90096421,5.20689655 7.74509804,6.36478082 7.74509804,7.79310345 C7.74509804,9.22142608 8.90096421,10.3793103 10.3267974,10.3793103 C10.4059123,10.3793103 10.4841961,10.3757455 10.5614973,10.3687673 L10.5614973,10.3793103 L20.8882947,10.3793103 L20.8882947,10.3687673 C22.2041399,10.2499831 23.2352941,9.14217301 23.2352941,7.79310345 C23.2352941,6.44403388 22.2041399,5.33622378 20.8882947,5.21743958 L20.8882947,5.20689655 L10.5614973,5.20689655 L10.5614973,5.21743958 Z" id="Combined-Shape-Copy-5" fill="#8FE388" transform="translate(15.490196, 7.793103) rotate(90.000000) translate(-15.490196, -7.793103) "></path>
                            <path d="M19.4126654,11.4978546 C19.3353641,11.4908764 19.2570804,11.4873115 19.1779655,11.4873115 C17.7521323,11.4873115 16.5962661,12.6451958 16.5962661,14.0735184 C16.5962661,15.5018411 17.7521323,16.6597253 19.1779655,16.6597253 C19.2570804,16.6597253 19.3353641,16.6561604 19.4126654,16.6491823 L19.4126654,16.6597253 L29.7394628,16.6597253 L29.7394628,16.6491823 C31.055308,16.5303981 32.0864622,15.422588 32.0864622,14.0735184 C32.0864622,12.7244489 31.055308,11.6166388 29.7394628,11.4978546 L29.7394628,11.4873115 L19.4126654,11.4873115 L19.4126654,11.4978546 Z" id="Combined-Shape-Copy-9" fill="#00A1D4" transform="translate(24.341364, 14.073518) rotate(-45.000000) translate(-24.341364, -14.073518) "></path>
                        </g>
                        <g id="rs2" transform="translate(12.479716, 52.748817) rotate(-90.000000) translate(-12.479716, -52.748817) translate(-3.020284, 41.248817)">
                            <path d="M18.3065954,12.4243361 C18.2292941,12.417358 18.1510104,12.4137931 18.0718954,12.4137931 C16.6460622,12.4137931 15.4901961,13.5716774 15.4901961,15 C15.4901961,16.4283226 16.6460622,17.5862069 18.0718954,17.5862069 C18.1510104,17.5862069 18.2292941,17.582642 18.3065954,17.5756639 L18.3065954,17.5862069 L28.6333928,17.5862069 L28.6333928,17.5756639 C29.949238,17.4568797 30.9803922,16.3490696 30.9803922,15 C30.9803922,13.6509304 29.949238,12.5431203 28.6333928,12.4243361 L28.6333928,12.4137931 L18.3065954,12.4137931 L18.3065954,12.4243361 Z" id="Combined-Shape-Copy-10" fill="#A39E26" transform="translate(23.235294, 15.000000) rotate(-45.000000) translate(-23.235294, -15.000000) "></path>
                            <path d="M10.5614973,5.18295682 C10.4841961,5.17597867 10.4059123,5.17241379 10.3267974,5.17241379 C8.90096421,5.17241379 7.74509804,6.33029806 7.74509804,7.75862069 C7.74509804,9.18694332 8.90096421,10.3448276 10.3267974,10.3448276 C10.4059123,10.3448276 10.4841961,10.3412627 10.5614973,10.3342846 L10.5614973,10.3448276 L20.8882947,10.3448276 L20.8882947,10.3342846 C22.2041399,10.2155004 23.2352941,9.10769026 23.2352941,7.75862069 C23.2352941,6.40955112 22.2041399,5.30174102 20.8882947,5.18295682 L20.8882947,5.17241379 L10.5614973,5.17241379 L10.5614973,5.18295682 Z" id="Combined-Shape-Copy-4" fill="#4D1DE1" transform="translate(15.490196, 7.758621) rotate(90.000000) translate(-15.490196, -7.758621) "></path>
                            <path d="M2.81639929,12.4243361 C2.73909804,12.417358 2.66081428,12.4137931 2.58169935,12.4137931 C1.15586617,12.4137931 0,13.5716774 0,15 C0,16.4283226 1.15586617,17.5862069 2.58169935,17.5862069 C2.66081428,17.5862069 2.73909804,17.582642 2.81639929,17.5756639 L2.81639929,17.5862069 L13.1431967,17.5862069 L13.1431967,17.5756639 C14.4590419,17.4568797 15.4901961,16.3490696 15.4901961,15 C15.4901961,13.6509304 14.4590419,12.5431203 13.1431967,12.4243361 L13.1431967,12.4137931 L2.81639929,12.4137931 L2.81639929,12.4243361 Z" id="Combined-Shape-Copy-22" fill="#AF0810" transform="translate(7.745098, 15.000000) rotate(45.000000) translate(-7.745098, -15.000000) "></path>
                        </g>
                        <g id="rs1" transform="translate(23.605814, 82.179184) rotate(-120.000000) translate(-23.605814, -82.179184) translate(6.605814, 72.179184)">
                            <path d="M21.4046346,9.73667109 C21.3273333,9.72969293 21.2490496,9.72612806 21.1699346,9.72612806 C19.7441015,9.72612806 18.5882353,10.8840123 18.5882353,12.312335 C18.5882353,13.7406576 19.7441015,14.8985419 21.1699346,14.8985419 C21.2490496,14.8985419 21.3273333,14.894977 21.4046346,14.8879988 L21.4046346,14.8985419 L31.731432,14.8985419 L31.731432,14.8879988 C33.0472772,14.7692146 34.0784314,13.6614045 34.0784314,12.312335 C34.0784314,10.9632654 33.0472772,9.85545528 31.731432,9.73667109 L31.731432,9.72612806 L21.4046346,9.72612806 L21.4046346,9.73667109 Z" id="Combined-Shape-Copy-10" fill="#FFFB87" transform="translate(26.333333, 12.312335) rotate(-45.000000) translate(-26.333333, -12.312335) "></path>
                            <path d="M12.1105169,5.18295682 C12.0332157,5.17597867 11.9549319,5.17241379 11.875817,5.17241379 C10.4499838,5.17241379 9.29411765,6.33029806 9.29411765,7.75862069 C9.29411765,9.18694332 10.4499838,10.3448276 11.875817,10.3448276 C11.9549319,10.3448276 12.0332157,10.3412627 12.1105169,10.3342846 L12.1105169,10.3448276 L22.4373143,10.3448276 L22.4373143,10.3342846 C23.7531595,10.2155004 24.7843137,9.10769026 24.7843137,7.75862069 C24.7843137,6.40955112 23.7531595,5.30174102 22.4373143,5.18295682 L22.4373143,5.17241379 L12.1105169,5.17241379 L12.1105169,5.18295682 Z" id="Combined-Shape-Copy-4" fill="#645986" transform="translate(17.039216, 7.758621) rotate(90.000000) translate(-17.039216, -7.758621) "></path>
                            <path d="M2.45694804,9.52877947 C2.37964679,9.52180132 2.30136303,9.51823644 2.2222481,9.51823644 C0.796414918,9.51823644 -0.359451251,10.6761207 -0.359451251,12.1044433 C-0.359451251,13.532766 0.796414918,14.6906502 2.2222481,14.6906502 C2.30136303,14.6906502 2.37964679,14.6870854 2.45694804,14.6801072 L2.45694804,14.6906502 L12.7837454,14.6906502 L12.7837454,14.6801072 C14.0995906,14.561323 15.1307448,13.4535129 15.1307448,12.1044433 C15.1307448,10.7553738 14.0995906,9.64756367 12.7837454,9.52877947 L12.7837454,9.51823644 L2.45694804,9.51823644 L2.45694804,9.52877947 Z" id="Combined-Shape-Copy-22" fill="#DD1B6E" transform="translate(7.385647, 12.104443) rotate(45.000000) translate(-7.385647, -12.104443) "></path>
                        </g>
                    </g>
                    <path d="M9.33179462,99.6684843 C9.32942238,99.4047305 9.32823373,99.1406936 9.32823373,98.8763786 C9.32823373,51.313235 47.8185772,12.7556889 95.298822,12.7556889 C105.227922,12.7556889 114.76388,14.4418662 123.636911,17.5439638 L120.418082,25.9763008 C112.762587,23.4392071 104.578041,22.0660337 96.0733318,22.0660337 C53.2983364,22.0660337 18.6223514,56.8025618 18.6223514,99.6522406 C18.6223514,99.6576553 18.6223519,99.6630699 18.622353,99.6684843 L9.33179462,99.6684843 Z" id="Combined-Shape" stroke="#050808" fill="#079391" opacity="0.643831623" transform="translate(66.482572, 56.212087) rotate(14.000000) translate(-66.482572, -56.212087) "></path>
                </g>
                <g id="Rectangle-3" transform="translate(307.000000, 105.500000) rotate(79.000000) translate(-307.000000, -105.500000) ">
                    <use fill="#B8F1EB" fill-rule="evenodd" xlink:href="#path-1"></use>
                    <rect stroke="#050808" stroke-width="1" x="221.5" y="100.5" width="171" height="10" rx="5"></rect>
                </g>
                <g id="Rectangle-3-Copy-3" transform="translate(240.000000, 105.500000) rotate(-41.000000) translate(-240.000000, -105.500000) ">
                    <use fill="#B8F1EB" fill-rule="evenodd" xlink:href="#path-2"></use>
                    <rect stroke="#050808" stroke-width="1" x="161.5" y="100.5" width="157" height="10" rx="5"></rect>
                </g>
                <g id="Rectangle-3-Copy-5" transform="translate(245.500000, 128.500000) rotate(-50.000000) translate(-245.500000, -128.500000) ">
                    <use fill="#B8F1EB" fill-rule="evenodd" xlink:href="#path-3"></use>
                    <rect stroke="#050808" stroke-width="1" x="161.5" y="123.5" width="168" height="10" rx="5"></rect>
                </g>
                <g id="Rectangle-3-Copy-2" transform="translate(124.500000, 154.500000) rotate(-44.000000) translate(-124.500000, -154.500000) ">
                    <use fill="#B8F1EB" fill-rule="evenodd" xlink:href="#path-4"></use>
                    <rect stroke="#050808" stroke-width="1" x="73.5" y="149.5" width="102" height="10" rx="5"></rect>
                </g>
                <g id="Rectangle-3-Copy" transform="translate(164.500000, 133.500000) rotate(59.000000) translate(-164.500000, -133.500000) ">
                    <use fill="#B8F1EB" fill-rule="evenodd" xlink:href="#path-5"></use>
                    <rect stroke="#050808" stroke-width="1" x="95.5" y="128.5" width="138" height="10" rx="5"></rect>
                </g>
                <path d="M207.710295,208.100237 C208.543795,205.897713 209,203.509649 209,201.014988 C209,189.961015 200.042775,181 188.993477,181 C179.713237,181 171.908792,187.321298 169.647604,195.894708 C170.336762,196.099452 170.83941,196.737918 170.83941,197.493833 C170.83941,198.414997 170.092974,199.161748 169.172199,199.161748 C169.138507,199.161748 169.105048,199.160748 169.07185,199.158777 C169.037594,199.531443 169.01355,199.907067 169,200.285366 C169.827305,200.38345 170.468919,201.087568 170.468919,201.941608 C170.468919,202.743679 169.903012,203.413521 169.148857,203.573315 C169.19869,203.96407 169.259785,204.351305 169.331808,204.734683 C169.400875,204.725961 169.471258,204.721467 169.542691,204.721467 C170.463465,204.721467 171.209901,205.468218 171.209901,206.389383 C171.209901,207.073559 170.798131,207.661521 170.208994,207.918767 C170.32543,208.235745 170.449652,208.548959 170.581431,208.858178 C170.722563,208.819339 170.871188,208.798594 171.024655,208.798594 C171.94543,208.798594 172.691866,209.545346 172.691866,210.46651 C172.691866,210.977889 172.461825,211.435517 172.099622,211.741473 C172.314538,212.079538 172.539314,212.410716 172.773545,212.7346 C173.021226,212.588737 173.309894,212.505074 173.618093,212.505074 C174.538868,212.505074 175.285304,213.251825 175.285304,214.172989 C175.285304,214.573804 175.143983,214.941599 174.90847,215.229222 C175.175743,215.494304 175.450453,215.751894 175.732258,216.001652 C176.036631,215.674722 176.470705,215.470257 176.952514,215.470257 C177.873289,215.470257 178.619724,216.217008 178.619724,217.138173 C178.619724,217.448895 178.534794,217.739773 178.38689,217.988839 C178.72132,218.198437 179.062388,218.398416 179.409705,218.58839 C179.589886,217.861936 180.246048,217.323497 181.027917,217.323497 C181.948692,217.323497 182.695127,218.070248 182.695127,218.991412 C182.695127,219.335879 182.590748,219.655956 182.411907,219.921715 C182.754057,220.040908 183.100437,220.151068 183.450761,220.25191 C183.55931,219.435742 184.257814,218.806088 185.10332,218.806088 C186.024094,218.806088 186.77053,219.552839 186.77053,220.474004 C186.77053,220.621825 186.751308,220.765154 186.715229,220.901627 C187.103275,220.945632 187.494687,220.978531 187.889139,221 C187.884417,220.948851 187.882003,220.897034 187.882003,220.844652 C187.882003,219.923487 188.628439,219.176736 189.549214,219.176736 C190.469988,219.176736 191.216424,219.923487 191.216424,220.844652 C191.216424,220.865846 191.216029,220.886948 191.215245,220.907951 C191.597011,220.865754 191.975539,220.81281 192.350522,220.74943 C192.33564,220.659833 192.327897,220.567823 192.327897,220.474004 C192.327897,219.552839 193.074333,218.806088 193.995108,218.806088 C194.723126,218.806088 195.342158,219.272913 195.569431,219.923671 C195.885511,219.813666 196.197983,219.695953 196.506623,219.570757 C196.439804,219.390298 196.4033,219.19512 196.4033,218.991412 C196.4033,218.070248 197.149736,217.323497 198.070511,217.323497 C198.652489,217.323497 199.16482,217.621817 199.463051,218.073943 C199.744757,217.900536 200.02184,217.720342 200.294074,217.533587 C200.175305,217.304192 200.108212,217.043697 200.108212,216.767525 C200.108212,215.84636 200.854647,215.099609 201.775422,215.099609 C202.174421,215.099609 202.540683,215.23983 202.827658,215.473701 C203.099767,215.213054 203.364532,214.944795 203.621611,214.669266 C203.284168,214.364048 203.072141,213.922642 203.072141,213.431693 C203.072141,212.510529 203.818577,211.763778 204.739352,211.763778 C205.089603,211.763778 205.414628,211.871828 205.682939,212.056429 C205.902095,211.725552 206.111684,211.38778 206.311309,211.043507 C205.918417,210.738375 205.665579,210.261334 205.665579,209.725214 C205.665579,208.80405 206.412015,208.057298 207.33279,208.057298 C207.462626,208.057298 207.588995,208.072146 207.710295,208.100237 Z" id="Combined-Shape" stroke="#546678" fill="#CFDEED" transform="translate(189.000000, 201.000000) rotate(8.000000) translate(-189.000000, -201.000000) "></path>
                <circle id="Oval-5" fill="#40352F" cx="190" cy="200" r="7"></circle>
                <g id="Rectangle-3-Copy-6" transform="translate(148.997896, 187.519740) rotate(7.000000) translate(-148.997896, -187.519740) ">
                    <use fill="#B8F1EB" fill-rule="evenodd" xlink:href="#path-6"></use>
                    <path stroke="#050808" stroke-width="1" d="M88.1843405,188.2941 C86.048471,188.686555 84.4975759,190.548384 84.4975787,192.720009 L84.4975787,193.917391 C84.4975787,194.090906 84.5082432,194.264257 84.529512,194.436464 C84.8161882,196.757594 86.9302319,198.40684 89.251357,198.120147 C147.367534,190.942383 180.70896,188.534029 189.496843,190.906455 C196.03764,192.672246 202.383064,195.996845 208.531791,200.876052 C209.175871,201.387148 209.998418,201.617777 210.814327,201.516041 C212.49267,201.306766 213.683584,199.77655 213.47431,198.098207 L212.345701,189.046979 C212.312,188.776711 212.253834,188.510069 212.171915,188.250327 C208.993582,178.1722 200.676213,173.264117 187.083623,173.508559 C173.473949,173.753307 140.492907,178.682669 88.1843405,188.2941 Z"></path>
                </g>
                <g id="Rectangle-4">
                    <use fill="#FF7814" fill-rule="evenodd" xlink:href="#path-7"></use>
                    <path stroke="#BF3100" stroke-width="1" d="M103.123544,55.1427603 C103.059956,55.1322055 102.996149,55.1230183 102.932167,55.1152048 C100.465213,54.813942 98.2211291,56.569582 97.9198664,59.0365365 L96.1591529,73.4545155 C96.1370507,73.6355035 96.125969,73.8176675 96.125969,74 C96.125969,76.4852814 98.1406876,78.5 100.625969,78.5 L150,78.5 C152.485281,78.5 154.5,76.4852814 154.5,74 L154.5,67.4852336 C154.5,65.2843327 152.908055,63.4063639 150.736862,63.045973 L103.123544,55.1427603 Z"></path>
                </g>
                <g id="Rectangle-5" transform="translate(256.485914, 14.579884) rotate(-350.000000) translate(-256.485914, -14.579884) ">
                    <use fill="#CFDEED" fill-rule="evenodd" xlink:href="#path-8"></use>
                    <path stroke="#546678" stroke-width="1" d="M254.189853,7.504911 L219.574867,13.2747952 C218.36942,13.4757281 217.485914,14.5186929 217.485914,15.7407717 L217.485914,19.1088696 C217.485914,19.2451024 217.49705,19.3811074 217.51921,19.5155258 C217.7438,20.877849 219.030247,21.8001641 220.392571,21.575574 L254.516778,15.9499222 L254.672191,15.9487817 L292.615501,21.6334061 C292.738117,21.6517763 292.86193,21.6609995 292.985914,21.6609995 C294.366626,21.6609995 295.485914,20.5417114 295.485914,19.1609995 L295.485914,15.7872516 C295.485914,14.54822 294.578369,13.4961193 293.352749,13.3143115 L254.189853,7.504911 Z"></path>
                </g>
                <g id="Rectangle-4-Copy">
                    <use fill="#FF7814" fill-rule="evenodd" xlink:href="#path-9"></use>
                    <path stroke="#BF3100" stroke-width="1" d="M205.042596,2.22790812 C204.977311,2.2170271 204.911793,2.20758775 204.84609,2.19959696 C202.378988,1.89954511 200.135767,3.65628638 199.835715,6.1233884 L199.308692,10.4567081 C199.286767,10.6369753 199.275775,10.8184044 199.275775,11 C199.275775,13.4852814 201.290494,15.5 203.775775,15.5 L229.273631,15.5 C231.60779,15.5 233.5,13.6077903 233.5,11.2736314 L233.5,10.7828957 C233.5,8.58312048 231.909643,6.70576554 229.739798,6.34412344 L205.042596,2.22790812 Z"></path>
                </g>
                <path d="M192,201 L222,230" id="Line-2" stroke="#546678" stroke-width="4" stroke-linecap="round"></path>
                <rect id="Rectangle-6" fill="#40352F" x="209" y="229" width="26" height="8" rx="4"></rect>
            </g>
        </g>
    </g>
</svg>