<?xml version="1.0" encoding="UTF-8" standalone="no"?>
<svg width="800px" height="498px" viewBox="0 0 800 498" version="1.1" xmlns="http://www.w3.org/2000/svg" xmlns:xlink="http://www.w3.org/1999/xlink">
    <!-- Generator: Sketch 46.2 (44496) - http://www.bohemiancoding.com/sketch -->
    <title>Dribble</title>
    <desc>Created with Sketch.</desc>
    <defs>
        <path d="M8.11122047,6.80869121 L764.88878,6.80869121 C769.805917,6.80869121 773.419825,10.4726029 772.960669,14.992267 L737.297059,231.789873 L742.753997,312.328853 C742.600945,313.835408 741.255598,315.056711 739.74908,315.056711 L33.2509205,315.056711 C31.7444025,315.056711 30.3990551,313.835408 30.2460029,312.328853 L35.166436,231.789873 L0.0393313527,14.992267 C-0.419825089,10.4726029 3.19408277,6.80869121 8.11122047,6.80869121 Z" id="path-1"></path>
        <path d="M68.5245083,157.146901 C100.410533,156.874487 122.654664,156.898477 135.2569,157.21887 C154.592327,157.710444 219.916094,155.056237 238.683572,155.051845 C276.458851,155.043006 299.158412,157.415939 306.782255,157.21887 C316.280103,156.973359 329.533316,155.635974 346.541892,155.682604 C352.568336,155.699126 363.467889,156.090642 379.240551,156.857151 L379.24055,156.857155 C383.362918,157.057491 386.656272,160.360972 386.843951,164.483936 C387.440505,177.58917 387.738782,187.251298 387.738782,193.470321 C387.738782,199.706267 387.438879,209.833492 386.839074,223.851998 L386.83908,223.851998 C386.656146,228.127478 383.140964,231.501881 378.861581,231.510008 L68.6080464,232.09925 L68.6080464,232.09925 C64.1897764,232.107642 60.6012583,228.532729 60.592867,224.114459 C60.5928574,224.109394 60.5928526,224.104329 60.5928526,224.099265 L60.5928526,165.146604 L60.5928579,165.146604 C60.5928579,160.754995 64.1330604,157.184418 68.5245083,157.146901 Z" id="path-2"></path>
        <path d="M396.146154,159.113399 L704.965016,160.887019 L704.965016,160.887019 C709.365289,160.912291 712.919071,164.486542 712.919071,168.886887 L712.919071,223.495501 L712.919071,223.495501 C712.919071,227.913779 709.337349,231.495501 704.919071,231.495501 L396.341905,231.495501 L396.341905,231.495505 C392.340147,231.495505 388.953976,228.53858 388.414837,224.573306 C387.448515,217.466177 386.810236,208.289743 386.5,197.044005 C386.166785,184.965324 386.737153,174.545943 388.211102,165.785861 L388.211107,165.785862 C388.862099,161.916839 392.22281,159.090866 396.146154,159.113399 Z" id="path-3"></path>
        <linearGradient x1="-40.1681928%" y1="117.725411%" x2="58.0980174%" y2="36.4010798%" id="linearGradient-4">
            <stop stop-color="#DF8693" stop-opacity="0.360267313" offset="0%"></stop>
            <stop stop-color="#DF8693" stop-opacity="0.360267313" offset="0%"></stop>
            <stop stop-color="#DF8693" stop-opacity="0.360267313" offset="0%"></stop>
            <stop stop-color="#E29696" stop-opacity="0.5" offset="4.31019894%"></stop>
            <stop stop-color="#ECCEA1" offset="100%"></stop>
        </linearGradient>
        <path d="M340.683991,79.5022584 C342.858476,79.0670601 345.566037,76.4468659 344.506336,75.1382448 C343.446636,73.8296236 337.496669,75.155307 337.519755,77.1512591 C337.542841,79.1472113 338.509506,79.9374567 340.683991,79.5022584 Z" id="path-5"></path>
        <linearGradient x1="-167.68502%" y1="228.466327%" x2="100%" y2="10.3172059%" id="linearGradient-6">
            <stop stop-color="#EE90A5" stop-opacity="0.265195721" offset="0%"></stop>
            <stop stop-color="#EDA4A4" stop-opacity="0.5" offset="0%"></stop>
            <stop stop-color="#EDB1A3" stop-opacity="0.659411448" offset="22.6652329%"></stop>
            <stop stop-color="#ECCEA1" offset="100%"></stop>
        </linearGradient>
        <path d="M336.887946,77.1979888 C338.743105,76.5887791 342.736301,74.3551304 342.073521,72.8422114 C341.410741,71.3292924 338.51373,72.6332467 336.151845,73.3796008 C334.913692,74.9452754 335.03829,77.1979888 336.887946,77.1979888 Z" id="path-7"></path>
        <linearGradient x1="32.2430888%" y1="22.4442879%" x2="63.6875484%" y2="90.2431542%" id="linearGradient-8">
            <stop stop-color="#9B3006" stop-opacity="0.5" offset="0%"></stop>
            <stop stop-color="#9C3106" stop-opacity="0.782495471" offset="20.0593909%"></stop>
            <stop stop-color="#5E0A0A" stop-opacity="0.782750226" offset="100%"></stop>
        </linearGradient>
        <path d="M374.188337,88.5147332 L395.536633,82.3141957 C399.746069,57.329753 398.089998,38.5360945 390.568421,25.9332201 C384.000498,14.9282538 373.956411,4.70673471 362.092709,2.0855839 C351.238998,-0.96815715 337.616714,2.40242719 329.487106,12.090916 C321.204155,21.9621526 319.540528,30.8238806 323.350416,41.4914296 L327.578911,37.2766111 L325.940452,32.8160171 L328.032679,36.8243108 L331.153478,33.7136044 L327.108206,27.2821589 L331.849035,33.0202967 L334.503723,30.3741949 C337.998305,34.3228526 342.139054,39.2828137 344.231643,47.1717891 C347.909583,61.0374757 347.909583,77.7187293 344.231643,97.2155498 L352.935526,94.6875374 L352.935526,76.2163238 L353.846567,94.4229288 L362.644679,91.8675481 L362.403393,83.900234 L363.545138,91.6060129 L373.573578,88.6932877 L373.624883,82.3141957 L374.188337,88.5147332 Z" id="path-9"></path>
        <linearGradient x1="50%" y1="27.8254212%" x2="50%" y2="178.431284%" id="linearGradient-10">
            <stop stop-color="#ECCEA1" offset="0%"></stop>
            <stop stop-color="#555555" stop-opacity="0.5" offset="57.3686472%"></stop>
            <stop stop-color="#262626" stop-opacity="0.5" offset="81.7979579%"></stop>
            <stop stop-color="#0C0C0C" stop-opacity="0.5" offset="94.7645056%"></stop>
            <stop stop-color="#0A0A0A" stop-opacity="0.5" offset="96.1774554%"></stop>
            <stop stop-color="#000000" stop-opacity="0.5" offset="100%"></stop>
        </linearGradient>
        <path d="M6.31740632,8.17304916 C9.12606495,8.17304916 11.1200768,6.94590342 11.1200768,5.82331621 C11.1200768,4.700729 8.35035619,2.00055617 5.54169756,2.00055617 C2.73303893,2.00055617 1.58663295,5.78384372 1.58663295,6.90643092 C1.58663295,8.02901813 3.50874769,8.17304916 6.31740632,8.17304916 Z" id="path-11"></path>
        <linearGradient x1="206.572519%" y1="-116.460564%" x2="0%" y2="100%" id="linearGradient-12">
            <stop stop-color="#ECCEA1" offset="0%"></stop>
            <stop stop-color="#ECCEA1" offset="42.3290593%"></stop>
            <stop stop-color="#ECCEA1" stop-opacity="0.12219769" offset="80.0546597%"></stop>
            <stop stop-color="#000000" stop-opacity="0.213598279" offset="100%"></stop>
        </linearGradient>
        <path d="M10.0185745,9.81562096 C12.0780826,9.03090592 13.0989739,9.83836133 13.0989739,8.49799186 C13.0989739,7.15762239 12.0789809,5.20639504 8.52567814,6.78475638 C4.97237543,8.36311771 5.17978749,13.2650823 5.17978749,14.6054518 C5.17978749,15.9458213 7.95906629,10.600336 10.0185745,9.81562096 Z" id="path-13"></path>
        <path d="M396.407801,279.605094 C429.257251,280.603174 451.08364,281.153599 461.886968,281.256369 C501.312812,281.631421 529.499984,280.755989 546.445762,281.256369 C577.965791,282.187102 603.632614,287.938133 623.815291,286.900575 C656.714691,285.20927 684.567107,281.131536 707.372537,274.667372 L707.372537,274.667373 C711.623352,273.462486 716.046072,275.931698 717.250958,280.182513 C717.500102,281.061485 717.596844,281.976639 717.53699,282.888277 L713.50207,344.343292 L713.50207,344.343292 C713.225935,348.549049 709.734069,351.819169 705.519258,351.819169 L396.434064,351.819169 L396.434064,351.819173 C392.432307,351.819173 389.046135,348.862247 388.506997,344.896974 C387.540675,337.789845 386.902396,328.613411 386.59216,317.367673 C386.261206,305.370924 386.821616,295.01104 388.273393,286.288023 L388.273396,286.288023 C388.930668,282.33879 392.406094,279.483509 396.407801,279.605094 Z" id="path-14"></path>
        <linearGradient x1="50%" y1="35.5528648%" x2="60.6891483%" y2="113.456733%" id="linearGradient-15">
            <stop stop-color="#666763" offset="0%"></stop>
            <stop stop-color="#C0A993" offset="100%"></stop>
        </linearGradient>
        <linearGradient x1="50%" y1="65.1312557%" x2="77.290212%" y2="24.5603874%" id="linearGradient-16">
            <stop stop-color="#CA9F6D" offset="0%"></stop>
            <stop stop-color="#8C8377" offset="100%"></stop>
        </linearGradient>
        <linearGradient x1="19.8573659%" y1="50%" x2="60.4441068%" y2="50%" id="linearGradient-17">
            <stop stop-color="#6A6A65" offset="0%"></stop>
            <stop stop-color="#8C8377" offset="100%"></stop>
        </linearGradient>
        <linearGradient x1="94.4225011%" y1="0%" x2="8.72846854%" y2="94.7459412%" id="linearGradient-18">
            <stop stop-color="#666763" offset="0%"></stop>
            <stop stop-color="#7F7D76" offset="100%"></stop>
        </linearGradient>
        <linearGradient x1="94.8303426%" y1="5.34322012%" x2="-16.1890433%" y2="130.521932%" id="linearGradient-19">
            <stop stop-color="#6D6C67" offset="0%"></stop>
            <stop stop-color="#84827A" offset="100%"></stop>
        </linearGradient>
        <linearGradient x1="69.3981647%" y1="9.2814446%" x2="69.3981647%" y2="70.644825%" id="linearGradient-20">
            <stop stop-color="#6E6D68" offset="0%"></stop>
            <stop stop-color="#666763" offset="100%"></stop>
        </linearGradient>
    </defs>
    <g id="Page-1" stroke="none" stroke-width="1" fill="none" fill-rule="evenodd">
        <g id="Dribble">
            <g id="Group-Copy" transform="translate(-3.000000, -78.000000)">
                <rect id="wall" fill="#F2E8F8" x="0" y="0" width="807" height="471"></rect>
                <rect id="Rectangle-12" fill="#E6C28B" x="0" y="471" width="807" height="133"></rect>
                <polygon id="Rectangle-11" fill="#BF2800" points="33.9104231 493 773.089577 493 807 600 0 600"></polygon>
                <g id="couchgroup" transform="translate(17.000000, 85.000000)">
                    <g id="couch" transform="translate(0.000000, 120.934051)">
                        <g id="couchbase">
                            <use fill="#CF7921" fill-rule="evenodd" xlink:href="#path-1"></use>
                            <path stroke="#C36709" stroke-width="2" d="M31.249644,312.299773 C31.386511,313.26454 32.2825444,314.056711 33.2509205,314.056711 L739.74908,314.056711 C740.716467,314.056711 741.611659,313.266157 741.749934,312.302729 L736.291514,231.741877 L736.31032,231.627553 L771.965789,14.8911964 C772.362941,10.981874 769.233064,7.80869121 764.88878,7.80869121 L8.11122047,7.80869121 C3.76693552,7.80869121 0.637059286,10.981874 1.02645788,14.8323256 L36.1535626,231.629932 L36.164575,231.850853 L31.249644,312.299773 Z"></path>
                        </g>
                        <path d="M35.3678289,232.423959 L736.393389,232.423959" id="couchpiping" stroke="#C36709" stroke-width="3" stroke-linecap="round"></path>
                        <path d="M213.747424,160.580863 C350.964079,159.09425 366.466373,166.803179 384.292135,164.986622 C402.117897,163.170065 396.95419,126.738797 396.95419,83.8549321 C396.95419,40.9710672 393.4191,50.0973477 384.292135,25.0658907 C382.114428,19.0933501 381.575975,4.37081496 375.951216,2.72324209 C370.326458,1.07566923 349.336837,8.44308516 343.961521,8.44308516 C300.884239,8.44308516 268.233008,2.85650544e-14 213.747424,2.84217094e-14 C142.419713,2.85650544e-14 102.719473,1.57943691 71.5886873,4.5051419 C61.0834065,5.49243957 31.6284744,-2.70935231 29.0383542,2.72324209 C26.17973,8.7190046 35.390297,21.6664015 37.0110764,29.1507539 C41.2106431,48.5432978 29.0383542,70.4034436 29.0383542,91.8645581 C29.0383542,115.918945 39.2009767,138.82438 59.5262217,160.580863 C70.8625862,161.571939 122.269654,161.571939 213.747424,160.580863 Z" id="backpillowleft" stroke="#C36709" stroke-width="2" fill="#CF7921"></path>
                        <path d="M578.857778,160.580863 C717.664851,159.09425 733.346824,166.803179 751.379197,164.986622 C769.41157,163.170065 755.472464,159.649236 755.472464,143.11965 C755.472464,119.517948 758.730323,126.738797 758.730323,83.8549321 C758.730323,40.9710672 760.611949,50.0973477 751.379197,25.0658907 C749.176249,19.0933501 748.631555,4.37081496 742.941603,2.72324209 C737.25165,1.07566923 716.018748,8.44308516 710.581129,8.44308516 C667.004557,8.44308516 633.974881,2.85650544e-14 578.857778,2.84217094e-14 C506.70334,2.85650544e-14 466.542952,1.57943691 435.051343,4.5051419 C424.4243,5.49243957 394.627969,-2.70935231 392.007828,2.72324209 C389.116071,8.7190046 398.433393,21.6664015 400.072958,29.1507539 C402.90512,42.0791165 410.497156,85.889153 422.849067,160.580863 C434.316826,161.571939 486.31973,161.571939 578.857778,160.580863 Z" id="backpillowright" stroke="#C36709" stroke-width="2" fill="#CF7921" transform="translate(576.033654, 82.632752) scale(-1, 1) translate(-576.033654, -82.632752) "></path>
                        <path d="M21.0592949,230.679329 C50.6376163,235.363651 50.7786244,235.385982 54.5064103,118.74401 C54.5064103,56.9238405 39.5316266,6.80869121 21.0592949,6.80869121 L21.0592949,230.679329 Z" id="armrestleft" stroke="#C36709" stroke-width="2" fill="#CF7921" transform="translate(37.782853, 119.461582) rotate(-9.000000) translate(-37.782853, -119.461582) "></path>
                        <path d="M719.112981,231.914174 C745.675596,233.195415 744.658283,231.684597 752.560096,119.980404 C752.560096,58.1610906 737.585313,8.04663507 719.112981,8.04663507 L719.112981,231.914174 Z" id="armrestright" stroke="#C36709" stroke-width="2" fill="#CF7921" transform="translate(735.836538, 120.080554) scale(-1, 1) rotate(-9.000000) translate(-735.836538, -120.080554) "></path>
                        <polygon id="pleatmiddle" fill="#C36709" points="387.119391 233.352417 399.507212 312.580824 374.731571 312.580824"></polygon>
                        <g id="seatcushleft">
                            <use fill="#CF7921" fill-rule="evenodd" xlink:href="#path-2"></use>
                            <path stroke="#C36709" stroke-width="2" d="M68.5330513,158.146864 C64.6905353,158.179692 61.5928572,161.303946 61.5928526,165.146604 L61.5928526,224.099265 L61.5928652,224.112559 C61.6002076,227.978546 64.7401609,231.106595 68.6061472,231.099252 L378.859681,230.51001 C382.604143,230.502898 385.679926,227.550295 385.839988,223.80925 C386.439228,209.803958 386.738782,199.688509 386.738782,193.470321 C386.738782,187.26988 386.440905,177.620699 385.844985,164.529409 C385.680766,160.921817 382.799082,158.03127 379.192011,157.855972 C363.433956,157.090173 352.545845,156.699068 346.53915,156.6826 C338.457783,156.660445 331.317142,156.916013 321.595719,157.467747 C321.12499,157.494463 315.250261,157.836167 313.667197,157.922268 C310.874116,158.07418 308.732504,158.168792 306.808096,158.218536 C304.976844,158.265872 302.369657,158.178524 297.749408,157.938269 C298.226222,157.963063 286.772358,157.339852 282.680268,157.139969 C268.21961,156.433622 254.383974,156.048172 238.683806,156.051845 C231.697428,156.05348 225.195893,156.222039 192.61874,157.165299 C190.474173,157.227394 188.607052,157.281134 186.823372,157.332026 C159.014128,158.125486 143.507954,158.428964 135.231485,158.218547 C122.64376,157.898523 100.408333,157.874542 68.5330513,158.146864 Z"></path>
                        </g>
                        <g id="seatcushright">
                            <use fill="#CF7921" fill-rule="evenodd" xlink:href="#path-3"></use>
                            <path stroke="#C36709" stroke-width="2" d="M396.140411,160.113383 C392.707486,160.093667 389.766863,162.566392 389.197241,165.951787 C387.734981,174.642394 387.16808,184.99845 387.49962,197.016428 C387.808945,208.229165 388.444862,217.37164 389.40572,224.43858 C389.877466,227.908196 392.840366,230.495505 396.341905,230.495501 L704.919071,230.495501 C708.785064,230.495501 711.919071,227.361494 711.919071,223.495501 L711.919071,168.886887 C711.919071,165.036585 708.809512,161.909116 704.959273,161.887003 L396.140411,160.113383 Z"></path>
                        </g>
                        <polygon id="pleatright" fill="#C36709" points="736.455929 235.828305 748.84375 315.056711 724.068109 315.056711"></polygon>
                        <polygon id="pleatleft" fill="#C36709" points="37.7828526 235.828305 50.1706731 315.056711 25.3950321 315.056711"></polygon>
                    </g>
                    <g id="baseme" transform="translate(368.192105, 0.000000)">
                        <path d="M134.097719,196.202189 C80.8263981,237.035354 51.8197487,258.173993 47.0777707,259.618106 C45.9867639,259.950359 44.844794,260.317197 43.6518609,260.718619 C41.7696176,257.827135 39.5810467,255.398498 37.0861482,253.432708 C28.4179118,246.602799 31.2157294,246.079704 22.1137175,240.123855 C17.5312593,237.12535 14.786868,231.763522 13.8805434,224.038372 L13.8805434,224.038372 C13.7874188,223.244614 13.4845808,222.489978 13.003163,221.852044 C11.5060977,219.86826 8.68431172,219.473696 6.70052759,220.970762 L6.70052329,220.970756 L2.44469793,224.18242 C0.858920324,225.379129 0.24552961,227.47412 0.935454361,229.33713 L0.935444872,229.337134 C4.86887034,239.958599 8.64953986,249.487058 12.2774534,257.922508 C18.2507287,271.811282 15.045564,265.957163 21.3467782,276.343184 C27.6479925,286.729204 26.1473648,286.076604 35.4785156,286.301023 C38.3624281,286.370382 40.9133168,285.56518 43.1311818,283.885416 C45.5586559,284.74683 48.365982,284.333898 50.4782573,282.554637 L50.4782595,282.55464 C59.4213802,275.021462 66.835201,269.678114 72.719722,266.524596 C90.6024565,256.941228 132.038938,250.285752 138.253834,245.913888 C145.767817,240.628182 150.528479,235.87753 153.537625,230.849873 C159.90657,234.611769 166.103066,238.656522 172.127112,242.984134 C186.282568,253.153267 198.319942,264.983722 208.237029,270.344115 C232.573976,283.498745 267.39956,291.476558 294.661603,281.68945 C312.447847,275.304165 313.435731,262.305404 297.625254,242.693169 C296.943745,241.847786 296.097266,241.149993 295.137383,240.642299 L295.137382,240.642301 C264.235458,224.297906 236.786713,211.419592 212.791148,202.007359 C208.65938,200.386677 204.597387,198.936027 200.605169,197.655407 C200.332536,197.506914 200.036595,197.355583 199.716529,197.201321 C184.572804,189.902478 167.733923,184.033138 159.122333,184.033138 C154.875115,184.033138 150.138914,185.812138 145.593233,188.314075 C144.736744,188.375606 143.893491,188.681964 143.174395,189.23472 L143.174392,189.234716 C141.523686,190.503584 139.894094,191.755314 138.285615,192.989908 C136.805778,194.059675 135.399342,195.146716 134.097728,196.202183 Z" id="Combined-Shape" fill="#DEB578"></path>
                        <path d="M282.578229,212.432281 C282.766919,212.327309 282.955629,212.222181 283.14436,212.116898 C291.432383,200.678298 301.325412,183.587766 312.823446,160.845304 C311.786322,160.923078 310.667727,160.95452 309.441983,160.95452 C298.487844,160.95452 286.197502,140.542951 295.753052,133.407426 C298.930033,131.035043 308.558678,129.20362 317.481507,124.698894 C329.050857,118.858061 339.99152,113.30789 350.256769,108.424468 C351.910462,107.637768 353.466912,106.896766 354.900241,106.212186 C356.724687,104.818032 358.634947,103.378209 360.631021,101.892716 L360.631019,101.892715 C362.010628,100.866001 363.684363,100.311184 365.404089,100.310517 L380.874515,100.304514 L380.874515,100.304515 C382.543651,100.303867 384.171188,100.825315 385.529174,101.795825 C391.655674,106.174242 394.181801,112.003548 393.107555,119.283743 C391.305663,131.495212 379.099426,148.342763 377.534419,151.257107 C351.586827,199.576487 336.355332,222.928956 329.70952,240.202433 C322.129344,259.904467 309.199643,277.741022 288.995428,285.701743 C285.827781,288.423731 281.315464,289.626409 275.458475,289.309778 C269.374891,290.205778 263.69392,289.693231 258.415561,287.772138 C253.919254,287.349975 249.352413,286.588097 241.43376,284.136199 C226.468679,279.502473 223.707114,275.472529 207.19802,255.413031 C198.260489,244.553419 186.840784,223.568873 172.938904,192.459394 C171.74102,197.331895 169.335788,202.628457 165.400318,208.95707 C161.387699,215.409746 126.641029,239.598368 113.924405,255.407246 C111.397687,258.548376 108.604304,262.488464 105.544257,267.22751 C105.545014,267.228495 105.545771,267.22948 105.546527,267.230466 C107.945249,270.35861 109.373738,273.449868 109.831995,276.504241 C110.289693,279.554895 108.979567,282.928557 105.901616,286.625226 L105.901622,286.625232 C105.046656,287.65206 103.779588,288.245845 102.443421,288.245845 L40.9997018,288.245845 C38.5785339,288.245845 36.6157895,286.2831 36.6157895,283.861933 L36.6157895,282.980256 L36.6157922,282.980256 C36.6157922,280.928608 38.0035044,279.136701 39.9898998,278.623383 L39.9898998,278.623383 C45.277915,277.25687 50.7766617,275.710669 56.4861398,273.984779 C66.1111382,271.075286 71.980694,268.543133 81.3542855,266.398443 L147.75925,154.751571 L147.759245,154.751567 C148.139096,154.112922 148.658068,153.596519 149.259203,153.224931 C153.66564,147.444746 160.782749,139.864297 169.856579,139.864297 C180.529482,139.864297 191.539553,146.90626 195.107368,149.992911 C195.168027,150.045389 195.221314,150.100664 195.267449,150.158629 C214.482188,163.355645 227.990039,173.595404 235.791003,180.877907 C241.902871,186.583573 251.94539,198.752739 265.91856,217.385404 C269.110549,216.315879 272.95148,215.159163 277.507372,213.831205 C279.170499,213.346434 280.867832,212.878384 282.578229,212.432281 Z" id="Combined-Shape" fill="#E6C28B"></path>
                        <path d="M364.701281,64.0205802 L376.057333,64.0205802 L376.057333,64.0205802 C378.602238,64.0205802 380.814795,65.7665033 381.406569,68.2416493 L391.948824,112.335522 L391.94883,112.335521 C392.269892,113.678389 391.441554,115.027271 390.098686,115.348333 C389.775642,115.425568 389.440445,115.437657 389.112677,115.383892 C364.574783,111.358868 353.061927,108.931418 354.57411,108.101544 C356.953781,106.795598 362.392076,88.9534746 362.392076,87.6000471 C362.392076,86.841451 361.362175,81.1648452 359.302372,70.5702298 L359.302377,70.5702288 C358.722669,67.5884963 360.669895,64.7013784 363.651627,64.1216705 C363.997466,64.0544325 364.348966,64.0205802 364.701281,64.0205802 Z" id="Rectangle-7" fill="#E6C28B"></path>
                        <path d="M333.429795,68.1957962 C334.669257,71.5337581 335.618185,73.9812924 335.904824,74.7150427 C336.17217,75.3994081 338.318678,77.9281713 339.632127,80.5507647 C340.414662,82.1132699 339.492283,86.0674285 341.693582,87.0740653 C346.198457,89.1341092 351.720339,87.1634002 355.778353,86.1516239 C363.48817,84.2293504 373.584134,80.0152571 379.425669,71.0714527 C385.560193,61.6790608 387.188321,47.3318692 384.406096,36.172975 C382.76494,29.5906592 380.047854,23.6765819 376.618837,18.7365715 L325.624547,21.7604451 C323.543554,27.8110479 323.267674,35.1966492 325.402421,43.7586522 C326.080205,46.4770973 327.028118,49.6499626 328.080883,52.9111958 C327.996572,54.6649727 328.296754,57.8307308 327.6356,60.6463053 C326.658226,64.8085339 326.707038,68.3625916 328.612975,68.8180037 C329.466362,69.0219154 331.47335,68.8504495 333.429795,68.1957962 Z" id="Combined-Shape" fill="#ECCEA1"></path>
                        <g id="Oval-12-Copy">
                            <use fill="#ECCEA1" xlink:href="#path-5"></use>
                            <use fill="url(#linearGradient-4)" xlink:href="#path-5"></use>
                        </g>
                        <g id="Oval-12">
                            <use fill="#ECCEA1" xlink:href="#path-7"></use>
                            <use fill="url(#linearGradient-6)" xlink:href="#path-7"></use>
                        </g>
                        <g id="Combined-Shape">
                            <use fill="#9B3006" xlink:href="#path-9"></use>
                            <use fill="url(#linearGradient-8)" xlink:href="#path-9"></use>
                        </g>
                        <path d="M270.987243,215.259028 C274.878901,209.888011 288.283023,184.827116 294.392775,170.346537 C300.256845,156.448242 285.878511,153.819313 291.537912,139.606449 C292.802089,131.174083 307.102851,127.579808 315.493398,125.264025 C325.693593,122.44878 329.478221,121.311841 339.742149,117.623276 C358.142324,111.010773 375.38304,105.782868 383.745524,108.851717 C389.602231,111.001001 388.426691,111.584402 392.45045,117.602825 C393.451248,119.09974 392.358469,122.474228 391.818541,126.133334 C390.016649,138.344803 379.36262,154.078421 377.797612,156.992765 C351.850021,205.312145 332.521499,232.936877 325.875687,250.210354 C316.76794,273.882777 241.124129,231.918167 270.987243,215.259028 Z M376.777647,146.613793 C382.922865,142.328901 390.568421,131.279803 390.568421,123.982987 C390.568421,116.68617 388.144864,110.377904 380.842352,110.377904 C373.53984,110.377904 361.906713,117.128836 358.861356,123.982987 C357.405498,127.259672 349.89017,138.713555 356.650344,146.613793 C363.410519,154.51403 372.219946,149.791753 376.777647,146.613793 Z" id="shirt" fill="#9B763F"></path>
                        <path d="M189.390165,144.783637 L177.888135,274.734606 C226.225735,288.52691 259.526662,293.857916 277.790915,290.727625 C296.055169,287.597333 311.756731,274.475925 324.895603,251.3634 C317.011739,251.610095 298.82436,240.528901 270.333468,218.119818 C248.173022,187.94214 221.191921,163.496746 189.390165,144.783637 Z" id="Path-12" fill="#12CA82"></path>
                        <path d="M313.327379,237.872567 C313.336695,237.87044 313.346016,237.868293 313.355343,237.866127 C322.08239,235.83884 334.804858,216.628522 352.494332,192.281051 C364.24703,176.104849 376.171341,157.481092 388.267266,136.409777 C388.351629,136.262815 388.427624,136.111205 388.494887,135.955672 L388.494879,135.955669 C393.70781,123.901721 392.647623,115.922557 385.314316,112.018176 C377.932983,108.088225 369.983721,110.537834 361.466529,119.367001 C349.572302,137.795768 339.464937,152.178651 331.144433,162.515648 C324.429839,170.85754 316.886322,184.702372 308.513883,204.050145 C305.223454,200.310168 300.435767,195.731029 293.383426,190.122775 C283.498131,182.261662 261.321129,173.073838 239.350882,158.878805 C235.613403,156.46401 229.235821,150.574136 220.218135,141.209183 C219.739865,140.712494 219.153851,140.332356 218.505335,140.098116 L218.505337,140.098108 C202.707001,134.39185 191.072868,134.100133 183.602937,139.222958 C186.748527,142.168119 197.652461,144.075771 208.773438,154.532282 C218.675545,163.842749 255.963285,196.416185 268.636378,207.432737 C279.289627,216.693464 294.596218,225.358542 299.461329,229.293036 C301.633831,231.049974 304.195633,233.112659 307.146735,235.481092 C307.961089,236.523754 308.864655,237.248337 309.857431,237.654841 C309.959696,237.736788 310.062363,237.819051 310.165432,237.901629 C311.094295,238.645829 312.416449,238.630714 313.327379,237.872567 Z" id="arm" fill="#ECCEA1"></path>
                    </g>
                    <g id="eyeball" transform="translate(704.895582, 51.931023) rotate(-9.000000) translate(-704.895582, -51.931023) translate(699.395582, 46.931023)">
                        <path d="M4.90579113,8.4488087 C7.04121588,8.4488087 9.8922377,6.87281746 9.8922377,4.99206778 C9.8922377,3.1113181 7.1956122,2.09094358 5.06018745,2.09094358 C2.92476271,2.09094358 1.0392626,3.16266048 1.0392626,5.04341016 C1.0392626,6.92415984 2.77036639,8.4488087 4.90579113,8.4488087 Z" id="Oval-5" fill="#ECFCFC" transform="translate(5.465750, 5.269876) rotate(-22.000000) translate(-5.465750, -5.269876) "></path>
                        <path d="M3.75177175,3.35040967 C2.83408084,3.35040967 1.01735301,4.86161666 1.07974703,6.29845596 C1.14214105,7.73529526 2.04679955,9.27108274 3.73199473,9.27108274 C4.46215661,8.63565644 4.85902958,7.7449604 4.92261364,6.5989946 C4.98619771,5.4530288 4.59591707,4.37016715 3.75177175,3.35040967 Z" id="Oval-10" fill="#833508" transform="translate(3.003737, 6.310746) rotate(-24.000000) translate(-3.003737, -6.310746) "></path>
                        <path d="M2.23430865,8.1186223 C2.79604038,8.1186223 3.11632962,6.84498418 2.6704431,6.34512904 C2.22455658,5.84527389 1.29124692,5.86223649 1.12618402,6.34512904 C0.961121131,6.82802158 1.67257692,8.1186223 2.23430865,8.1186223 Z" id="Oval-11" fill="#180F01"></path>
                    </g>
                    <g id="eye" transform="translate(697.734211, 43.694341)">
                        <g id="Oval-4" transform="translate(6.353355, 5.086803) rotate(-15.000000) translate(-6.353355, -5.086803) ">
                            <use fill="#F5CF96" xlink:href="#path-11"></use>
                            <use fill="url(#linearGradient-10)" xlink:href="#path-11"></use>
                        </g>
                        <g id="Oval-4-Copy" transform="translate(9.138247, 10.508277) scale(-1, -1) rotate(-15.000000) translate(-9.138247, -10.508277) ">
                            <use fill="#F5CF96" xlink:href="#path-13"></use>
                            <use fill="url(#linearGradient-12)" xlink:href="#path-13"></use>
                        </g>
                        <path d="M2.03421053,8.13049578 C4.63653186,8.46493098 6.43973689,8.46493098 7.44382563,8.13049578 C8.44791437,7.79606058 9.69602512,6.77974861 11.1881579,5.08155986" id="Line-2" stroke-opacity="0.792629076" stroke="#757471" stroke-width="0.25" stroke-linecap="round"></path>
                        <path d="M6.01630766,12.7147268 C6.4497332,10.259602 7.23107497,8.48901492 8.36033299,7.40296564 C9.48959101,6.31691635 10.4204005,5.63237857 11.1527615,5.34935229" id="Line-2-Copy" stroke-opacity="0.792629076" stroke="#757471" stroke-width="0.25" stroke-linecap="round" transform="translate(8.584535, 9.032040) scale(-1, -1) translate(-8.584535, -9.032040) "></path>
                    </g>
                    <g id="seatcushright-copy">
                        <use fill="#CF7921" fill-rule="evenodd" xlink:href="#path-14"></use>
                        <path stroke="#C36709" stroke-width="2" d="M396.377432,280.604633 C392.875938,280.498246 389.834941,282.996617 389.259824,286.452195 C387.819501,295.1064 387.262485,305.403516 387.59178,317.340096 C387.901105,328.552833 388.537022,337.695308 389.49788,344.762248 C389.969626,348.231863 392.932526,350.819173 396.434064,350.819169 L705.519258,350.819169 C709.207218,350.819169 712.2626,347.957814 712.504218,344.277777 L716.539138,282.822761 C716.591511,282.025079 716.506861,281.224319 716.288861,280.455218 C715.234585,276.735755 711.364705,274.575194 707.645242,275.62947 C684.760854,282.116014 656.835992,286.204355 623.866631,287.899256 C614.15318,288.398609 609.110783,287.980988 582.59932,285.071944 C567.548155,283.420414 557.543699,282.584508 546.416247,282.255934 C539.065803,282.038887 533.579055,282.04854 510.567257,282.225079 C490.52755,282.378818 477.604715,282.405935 461.877456,282.256324 C451.064827,282.153465 429.233869,281.602925 396.377432,280.604633 Z"></path>
                    </g>
                    <g id="greyhound" transform="translate(52.889474, 185.978017)">
                        <path d="M333.218324,77.8553809 C333.218324,88.6672544 332.81455,103.603873 314.736517,109.078807 C296.658485,114.553741 284.473802,105.922908 271.327505,106.336585 C258.181207,106.750262 238.948137,118.218918 229.899053,119.112071 C220.849969,120.005223 200.40475,113.010661 202.177324,108.448125 C203.949898,103.885588 218.277148,115.05688 231.055633,111.025399 C243.834118,106.993919 258.181207,99.8052584 271.327505,99.5342287 C284.473802,99.2631991 297.438184,104.994898 312.404318,100.925378 C320.512041,98.720765 323.976081,96.3483036 326.226497,89.0416355 C328.130148,82.8608448 329.374807,71.6029153 329.672673,69.8379311 C332.491343,71.2474209 333.218324,73.1872067 333.218324,77.8553809 Z" id="Path-11" fill="#898176" transform="translate(267.643673, 94.513919) rotate(-13.000000) translate(-267.643673, -94.513919) "></path>
                        <path d="M104.185619,49.5023526 C104.154475,50.0044754 104.138572,50.5111438 104.138572,51.0224692 C104.138572,76.9529531 141.111594,109.418 164.038141,109.418 C170.283204,109.418 175.831175,106.283316 180.598446,101.197599 C187.137969,99.7737018 193.744141,97.1968097 200.260146,93.2649114 C246.403111,65.4212505 286.688222,97.9696976 308.292517,93.2649114 C325.961526,89.417116 325.577558,59.9440519 323.970956,51.2841401 C317.11971,14.3545273 244.21779,0 216.463808,0 C206.245355,0 188.369172,1.13281537 169.83402,4.3771204 C164.148113,2.63801062 158.157324,1.75877308 152.317438,1.75877308 C141.592571,1.75877308 134.782249,9.51651282 125.866911,17.6084451 C112.991725,24.1626779 104.121819,32.9672248 103.958643,44.6795161 C103.936319,46.2818181 104.013572,47.8914829 104.185619,49.5023526 Z" id="body" fill="url(#linearGradient-15)"></path>
                        <path d="M268.122686,74.7506407 C269.23905,78.618657 270.480997,82.8362569 271.589562,86.7784658 C274.206148,93.9872069 275.277993,98.5838445 274.805099,100.568379 C274.872224,101.50404 274.781223,102.072154 274.489013,102.168744 C273.355754,102.543346 272.143209,102.65652 270.894921,102.579507 C263.394504,104.198636 246.326243,105.7161 238.316361,107.028926 C228.26355,108.67659 208.308325,110.732531 202.972951,110.736067 C197.637577,110.739603 191.740809,119.037334 190.750366,110.744167 C189.759922,102.450999 191.504362,100.896379 194.224799,98.1801996 C196.945236,95.4640198 214.179374,100.132212 223.787408,100.125845 C233.395442,100.119478 239.290823,94.817325 247.429953,92.1188753 C248.072472,91.9058541 248.749741,91.6874143 249.461757,91.4635558 C247.636132,86.7288887 245.996963,78.3453341 243.850956,66.4448223 C243.089721,62.223452 233.660025,47.1637187 230.532549,40.5578037 C229.154273,38.0664229 228.403835,35.3466843 228.450962,32.1817571 C228.006967,25.8694176 230.30918,21.4294518 233.540328,18.6874126 C242.699886,9.53274212 262.526977,14.631916 282.270573,14.631916 C306.185332,14.631916 325.597411,41.3915503 325.597411,61.0622926 C325.597411,73.9572755 325.597411,92.6954296 302.662318,92.1512871 C296.229652,91.99867 285.550671,90.7873511 268.122686,74.7506407 Z" id="backleg" fill="#8C8377"></path>
                        <path d="M243.455843,93.5927264 C245.124323,93.5927264 253.100564,105.703019 261.104379,105.522588 C263.731188,105.463371 262.381474,68.2499412 263.776465,63.5943442 C264.919496,59.7796284 269.990259,58.0247111 269.990259,53.2431738 C269.990259,39.263003 259.047031,12.5337861 252.111269,12.5337861 C245.175507,12.5337861 236.868007,17.5208939 236.868007,31.5010647 C236.868007,36.3509586 242.821146,57.5939695 242.249723,62.4019299 C239.762334,83.3308681 238.926182,93.5927264 243.455843,93.5927264 Z" id="shinshadow2" fill-opacity="0.99000001" fill="url(#linearGradient-16)" transform="translate(253.429133, 59.029185) rotate(-17.000000) translate(-253.429133, -59.029185) "></path>
                        <path d="M243.455843,93.5927264 C245.124323,93.5927264 253.100564,105.703019 261.104379,105.522588 C263.731188,105.463371 262.381474,68.2499412 263.776465,63.5943442 C264.919496,59.7796284 269.990259,58.0247111 269.990259,53.2431738 C269.990259,39.263003 259.047031,12.5337861 252.111269,12.5337861 C245.175507,12.5337861 236.868007,17.5208939 236.868007,31.5010647 C236.868007,36.3509586 242.821146,57.5939695 242.249723,62.4019299 C239.762334,83.3308681 238.926182,93.5927264 243.455843,93.5927264 Z" id="shinshadow1" fill-opacity="0.860000014" fill="url(#linearGradient-17)" transform="translate(253.429133, 59.029185) rotate(-17.000000) translate(-253.429133, -59.029185) "></path>
                        <path d="M123.424673,17.2833432 C112.368674,17.2833432 109.466077,27.1156457 102.093795,43.0384061 C94.7215139,58.9611666 96.462341,70.5844581 90.9688259,77.9882791 C85.4753108,85.3921001 44.2009682,105.086584 38.0450234,110.820947 C31.8890786,116.55531 22.9563311,136.326461 18.4335755,142.817287 C13.91082,149.308113 11.2628185,149.396425 8.02075805,153.910226 C4.77869759,158.424027 4.72891515,159.690015 2.90737817,166.202488 C1.08584118,172.71496 -1.51309703,177.015584 1.11897837,178.585898 C3.75105377,180.156212 9.20084109,184.050153 14.6947774,182.630015 C20.1887137,181.209878 26.7115409,177.738376 26.7115409,171.970432 C26.7115409,166.202488 31.6183045,162.624772 33.9325058,158.307744 C36.2467071,153.990716 32.9188119,153.910226 35.8957357,145.040033 C38.8726595,136.169839 42.2842527,126.589451 52.2479653,120.51138 C62.2116779,114.433308 87.1899911,103.892212 98.8698639,96.8064575 C110.549737,89.7207025 117.305619,83.4332058 121.317088,66.2461068 C125.328557,49.0590079 134.480673,17.2833432 123.424673,17.2833432 Z" id="leftfrontleg" fill="url(#linearGradient-18)"></path>
                        <path d="M187.433041,14.6269525 C195.976062,15.134427 202.696191,24.469397 204.264851,37.4028969 C205.098785,44.27864 204.899713,59.2183289 201.092245,72.9332422 C197.73774,85.0165339 190.871752,96.1094446 189.426746,100.456907 C186.341612,109.738875 195.908377,109.698801 177.854276,116.862047 C168.064237,120.746398 156.404449,115.575035 147.659992,116.862047 C140.278535,117.948452 135.693482,125.975242 129.427938,127.065888 C115.923782,129.416561 104.14066,134.801788 94.0785715,143.221569 C84.6751707,146.189494 78.1064772,148.557224 74.3724909,150.32476 C68.7715114,152.976063 60.0243597,152.75291 59.4124865,147.673456 C58.8006132,142.594002 60.7213064,140.050559 66.0560308,135.625856 C71.3907553,131.201154 81.7730978,126.661316 86.1598901,124.041995 C93.3212814,119.76598 100.484732,121.822447 109.171703,116.862047 C115.852148,113.047406 120.261701,106.322396 125.791792,106.322396 C145.714405,106.322396 168.734239,98.3668866 171.314988,94.0269362 C173.895737,89.6869858 167.80722,47.5041101 171.314988,35.4456017 C174.822755,23.3870932 178.89002,14.119478 187.433041,14.6269525 Z" id="rightfrontleg" fill="url(#linearGradient-19)"></path>
                        <path d="M144.989351,104.181068 C137.71936,104.181068 128.469104,90.9038798 126.181237,77.0843421 C123.893369,63.2648045 124.572428,54.4600764 127.576604,46.6414 C130.58078,38.8227235 135.849023,26.4318399 149.278737,26.4318399 C162.708452,26.4318399 170.150045,38.0543441 174.817519,46.6414 C179.484992,55.2284559 179.274475,55.8263873 179.274475,77.0843421 C179.274475,98.3422969 152.259341,104.181068 144.989351,104.181068 Z" id="neck" fill="url(#linearGradient-20)"></path>
                        <path d="M124.803661,73.3763417 C122.934086,71.9537072 121.494135,54.788583 126.366611,45.0493324 C131.239088,35.3100818 139.197025,26.3739378 148.434729,26.49315 C157.672432,26.6123622 164.784288,31.4027926 170.737765,41.7290499 C176.691242,52.0553072 182.757379,69.7045358 181.920363,70.0631916 C181.176219,70.3820521 176.913256,73.8497944 176.316409,73.3763417 C172.890846,70.6589901 168.935645,58.0744037 166.457282,53.7699214 C163.978918,49.4654391 159.431622,41.7290499 152.585622,41.7290499 C145.739622,41.7290499 140.568904,44.7518036 135.165866,53.7699214 C129.762828,62.7880393 126.673235,74.7989762 124.803661,73.3763417 Z" id="collar" fill="#813B3B"></path>
                        <g id="head" transform="translate(118.606242, 68.861899)">
                            <g id="rightear" transform="translate(57.210070, 0.695575)">
                                <path d="M0.341850502,4.54704812 C-1.3308191,3.67078698 3.37755066,8.77103908e-16 9.17531744,0 C14.9730842,0 17.0629855,1.71454121 19.4906811,3.39771955 C21.9183766,5.08089789 23.6883664,8.48275125 22.5662129,12.5977822 C21.4440594,16.7128132 16.9145655,28.5076957 14.732941,28.0756786 C13.5930547,27.8499521 13.5448565,19.4004819 10.2129858,13.7619714 C7.16800112,8.60895694 1.73720353,5.27803147 0.341850502,4.54704812 Z" id="Path-9" fill="#787B6E"></path>
                                <path d="M9.77479612,12.5265695 C9.49408741,10.5953986 17.4779533,4.42034526 19.2582536,4.8949463 C21.0385539,5.36954734 22.2792789,10.2387807 20.8948126,14.4027193 C19.5103464,18.5666579 15.6279592,27.5812793 14.7784969,27.8006842 C13.5205287,28.1256008 13.1192639,22.3560857 12.3808903,19.0142983 C11.5653551,15.3232869 9.92211997,13.5401025 9.77479612,12.5265695 Z" id="Path-10" fill="#D0B2B2"></path>
                            </g>
                            <path d="M23.0722771,54.7770546 C16.887713,49.0518414 16.0467268,39.7621272 16.0467268,29.6186897 C16.0467268,12.4820221 28.2548302,2.0867242 44.9590423,2.0867242 C61.6632543,2.0867242 71.4710258,12.4820221 71.4710258,29.6186897 C71.4710258,33.2041921 71.4710258,36.6122823 71.2281897,39.7676377 C74.6457621,45.9319442 64.4281189,58.5577162 63.8454355,63.8164956 C63.1904062,69.7282037 62.9018365,80.1522643 63.1313648,87.0182713 C63.472273,97.2160465 63.7897476,104.523426 55.4177295,105.420657 C47.0457114,106.317889 42.5250904,104.337832 39.9229754,98.8895767 C37.3208604,93.4413218 31.779817,79.5973116 30.3841638,75.5440933 C28.6125999,70.5357637 25.4286659,62.2888149 23.0722771,54.7770546 Z" id="headbase" fill="#666763"></path>
                            <g id="leftear">
                                <path d="M18.4461592,8.8016007 C16.3942678,6.82617271 14.8271745,5.17509937 13.8289565,4.39179998 C11.6146281,2.65422169 11.1499598,8.61075962 9.14139359,13.1048245 C7.13282741,17.5988894 14.1942797,27.667062 16.1919446,27.3355771 C17.003904,27.2008437 17.6705563,23.6706064 19.1406193,21.1412939 C21.2843081,17.4529765 24.9335934,14.30927 25.1219307,13.8519194 C25.5476621,13.8167356 25.9538259,13.6537079 26.3348019,13.3350978 C30.3546596,9.97329132 32.9852817,9.31720271 36.2243331,8.09790911 C39.4633846,6.87861551 26.0227519,1.36903869 22.9247361,0.497532452 C19.8267204,-0.373973782 13.4237647,-0.378108685 8.45869912,2.79279322 C3.49363357,5.96369513 4.13922428,8.52992376 2.8234037,13.3350978 C1.50758312,18.1402718 -2.81189172,25.5008629 2.8234037,23.3720238 C8.45869912,21.2431847 9.43903442,5.34543458 12.4649302,4.04129553 C13.864132,3.4382497 16.0754782,6.09896197 18.4461592,8.8016007 Z" fill="#787B6E"></path>
                                <path d="M15.4942608,26.6400024 C13.4965959,26.9714872 6.43514363,16.9033147 8.44370982,12.4092498 C10.452276,7.91518489 10.9169443,1.95864696 13.1312727,3.69622525 C14.36295,4.66271958 16.4607115,6.95035643 19.266617,9.53831467 C21.5052112,11.6030273 24.5586693,12.8177027 24.4250288,13.1544114 C24.2462833,13.6047624 20.5896703,16.7521609 18.4429355,20.4457192 C16.9728725,22.9750317 16.3062203,26.505269 15.4942608,26.6400024 Z" id="leftinnerear-copy" fill="#D0B2B2"></path>
                            </g>
                            <path d="M44.570321,99.1023973 C43.6813471,100.395392 43.5908941,102.068439 45.4006879,104.359964 C47.2104817,106.651489 49.3963626,108.790177 53.7466619,108.790177 C58.0969613,108.790177 59.6444342,106.330872 61.3428303,104.359964 C63.0412264,102.389056 61.7293763,98.9502602 61.3428303,98.1035275 C60.9562844,97.2567947 60.9249619,97.2196235 58.7829026,97.6528304 C56.6408433,98.0860373 57.3842687,99.1023973 54.6771971,99.1023973 C51.9701255,99.1023973 51.4869584,97.6528304 49.1611347,97.6528304 C46.8353111,97.6528304 45.4592949,97.8094026 44.570321,99.1023973 Z" id="nose" fill="#35302C"></path>
                            <g id="lefteye" transform="translate(33.604965, 50.637536) rotate(-3.000000) translate(-33.604965, -50.637536) translate(25.104965, 43.137536)">
                                <g transform="translate(4.522024, 3.864304)">
                                    <ellipse id="eyewhite" fill="#BABCBB" cx="4.19902272" cy="3.86430408" rx="4.19902272" ry="3.86430408"></ellipse>
                                    <ellipse id="iris" fill="#A15F3E" cx="4.19902272" cy="3.54227874" rx="4.19902272" ry="3.54227874"></ellipse>
                                    <ellipse id="pupil" fill="#463625" cx="5.16802797" cy="2.57620272" rx="2.58401398" ry="2.57620272"></ellipse>
                                    <ellipse id="whine" fill="#DEE0BB" cx="5.49102972" cy="2.25417738" rx="1.61500874" ry="1.6101267"></ellipse>
                                </g>
                                <path d="M8.0069255,11.8555095 C11.7530932,11.8555095 15.6017328,10.676171 15.8652014,9.69639127 C16.12867,8.71661154 11.7530932,3.48285071 8.0069255,3.48285071 C4.26075777,3.48285071 1.22388879,5.35713423 1.22388879,7.66918012 C1.22388879,9.98122602 4.26075777,11.8555095 8.0069255,11.8555095 Z" id="eyeoutline" stroke="#524741" stroke-width="0.5" transform="translate(8.550218, 7.669180) rotate(29.000000) translate(-8.550218, -7.669180) "></path>
                            </g>
                            <g id="righteye" transform="translate(63.242280, 49.087440) scale(-1, 1) rotate(13.000000) translate(-63.242280, -49.087440) translate(54.242280, 41.587440)">
                                <g id="lefteye" transform="translate(3.685278, 2.647452)">
                                    <ellipse id="eyewhite" fill="#BABCBB" cx="4.19902272" cy="4.55987881" rx="4.19902272" ry="3.86430408"></ellipse>
                                    <ellipse id="iris" fill="#A15F3E" cx="4.18610265" cy="4.1734484" rx="4.18610265" ry="3.47787367"></ellipse>
                                    <ellipse id="pupil" fill="#463625" cx="4.33128108" cy="2.75050052" rx="2.58401398" ry="2.57620272"></ellipse>
                                    <ellipse id="shine" fill="#DEE0BB" cx="4.65428283" cy="2.42847518" rx="1.61500874" ry="1.6101267"></ellipse>
                                </g>
                                <path d="M9.62401692,11.4702575 C13.3701847,11.4702575 15.7150225,10.7048669 15.9784911,9.72508715 C16.2419597,8.74530741 10.8810613,3.46006416 7.13489352,3.46006416 C3.38872579,3.46006416 1.33717847,5.3858301 1.33717847,7.697876 C1.33717847,10.0099219 5.87784919,11.4702575 9.62401692,11.4702575 Z" id="eyeoutline" stroke="#524741" stroke-width="0.5" transform="translate(8.662511, 7.465161) rotate(29.000000) translate(-8.662511, -7.465161) "></path>
                            </g>
                        </g>
                    </g>
                    <g id="laptop" transform="translate(514.655263, 37.596469)" stroke="#5B5853" stroke-width="8" stroke-linecap="round">
                        <path d="M13.0879023,86.8377759 L82.2510602,137.653374" id="Line"></path>
                        <path d="M0,0 L11.4625517,85.0124892" id="Line-Copy"></path>
                    </g>
                </g>
            </g>
        </g>
    </g>
</svg>