<?xml version="1.0" encoding="UTF-8" standalone="no"?>
<svg width="480px" height="310px" viewBox="0 0 480 310" version="1.1" xmlns="http://www.w3.org/2000/svg" xmlns:xlink="http://www.w3.org/1999/xlink">
    <!-- Generator: Sketch 46.2 (44496) - http://www.bohemiancoding.com/sketch -->
    <title>Artboard</title>
    <desc>Created with Sketch.</desc>
    <defs>
        <linearGradient x1="89.9038462%" y1="0%" x2="6.35516827%" y2="100%" id="linearGradient-1">
            <stop stop-color="#F3EBEB" offset="0%"></stop>
            <stop stop-color="#F0B0B0" offset="23.9309211%"></stop>
            <stop stop-color="#EA5353" offset="46.0603413%"></stop>
            <stop stop-color="#971817" offset="100%"></stop>
        </linearGradient>
        <linearGradient x1="14.2773437%" y1="56.7016098%" x2="90.4882812%" y2="72.1241713%" id="linearGradient-2">
            <stop stop-color="#971817" offset="0%"></stop>
            <stop stop-color="#EA7D6F" offset="21.8206914%"></stop>
            <stop stop-color="#E3A49C" offset="45.7619675%"></stop>
            <stop stop-color="#D86A5C" offset="73.3860343%"></stop>
            <stop stop-color="#971817" offset="100%"></stop>
        </linearGradient>
        <radialGradient cx="50%" cy="0%" fx="50%" fy="0%" r="92.256012%" gradientTransform="translate(0.500000,0.000000),scale(0.603078,1.000000),rotate(105.253385),translate(-0.500000,-0.000000)" id="radialGradient-3">
            <stop stop-color="#E3A49C" offset="0%"></stop>
            <stop stop-color="#BB4E4D" offset="100%"></stop>
        </radialGradient>
        <path d="M13.7075807,14.6214194 C20.4369031,14.6214194 27.4151613,19.5230644 27.4151613,12.793742 C27.4151613,6.06441951 18.9138386,4.13972297e-14 12.1845162,4.13972297e-14 C5.4551937,4.13972297e-14 0,0.581387237 0,7.31070969 C0,14.0400321 6.97825822,14.6214194 13.7075807,14.6214194 Z" id="path-4"></path>
        <radialGradient cx="50%" cy="50%" fx="50%" fy="50%" r="86.1492138%" id="radialGradient-6">
            <stop stop-color="#292222" offset="0%"></stop>
            <stop stop-color="#E1690E" offset="100%"></stop>
        </radialGradient>
        <linearGradient x1="50%" y1="0%" x2="50%" y2="100%" id="linearGradient-7">
            <stop stop-color="#E3A49C" offset="0%"></stop>
            <stop stop-color="#BC434D" offset="100%"></stop>
        </linearGradient>
        <linearGradient x1="50%" y1="0%" x2="50%" y2="100%" id="linearGradient-8">
            <stop stop-color="#F4E1DF" offset="0%"></stop>
            <stop stop-color="#E3A49C" offset="100%"></stop>
        </linearGradient>
        <ellipse id="path-9" cx="1.28263941" cy="0.796471314" rx="1.26535449" ry="1"></ellipse>
        <ellipse id="path-11" cx="1.28263941" cy="0.796471314" rx="1.26535449" ry="1"></ellipse>
        <path d="M1.01934336,0.87090292 C1.57276496,0.87090292 2.0214018,0.894808545 2.0214018,0.599505266 C2.0214018,0.304201987 1.57276496,0.0648113801 1.01934336,0.0648113801 C0.465921768,0.0648113801 0.0172849241,0.304201987 0.0172849241,0.599505266 C0.0172849241,0.894808545 0.465921768,0.87090292 1.01934336,0.87090292 Z" id="path-13"></path>
        <path d="M1.01934336,0.87090292 C1.57276496,0.87090292 2.0214018,0.894808545 2.0214018,0.599505266 C2.0214018,0.304201987 1.57276496,0.0648113801 1.01934336,0.0648113801 C0.465921768,0.0648113801 0.0172849241,0.304201987 0.0172849241,0.599505266 C0.0172849241,0.894808545 0.465921768,0.87090292 1.01934336,0.87090292 Z" id="path-15"></path>
        <ellipse id="path-17" cx="4.28762972" cy="2.67384404" rx="4.22984937" ry="2.45728408"></ellipse>
        <ellipse id="path-19" cx="4.28762972" cy="2.67384404" rx="4.22984937" ry="2.45728408"></ellipse>
        <path d="M3.39177252,2.92371933 C5.23323265,2.92371933 6.72603103,3.00397321 6.72603103,2.0126068 C6.72603103,1.02124038 5.23323265,0.217579113 3.39177252,0.217579113 C1.5503124,0.217579113 0.0575140162,1.02124038 0.0575140162,2.0126068 C0.0575140162,3.00397321 1.5503124,2.92371933 3.39177252,2.92371933 Z" id="path-21"></path>
        <path d="M3.39177252,2.92371933 C5.23323265,2.92371933 6.72603103,3.00397321 6.72603103,2.0126068 C6.72603103,1.02124038 5.23323265,0.217579113 3.39177252,0.217579113 C1.5503124,0.217579113 0.0575140162,1.02124038 0.0575140162,2.0126068 C0.0575140162,3.00397321 1.5503124,2.92371933 3.39177252,2.92371933 Z" id="path-23"></path>
        <ellipse id="path-25" cx="4.12937014" cy="3.29970999" rx="4.12937014" ry="3.29970999"></ellipse>
        <ellipse id="path-27" cx="4.12937014" cy="3.29970999" rx="4.12937014" ry="3.29970999"></ellipse>
        <radialGradient cx="36.668276%" cy="14.6023337%" fx="36.668276%" fy="14.6023337%" r="68.1309582%" gradientTransform="translate(0.366683,0.146023),scale(1.000000,0.707500),rotate(62.459178),translate(-0.366683,-0.146023)" id="radialGradient-29">
            <stop stop-color="#F1E3CC" offset="0%"></stop>
            <stop stop-color="#E2C698" offset="38.6171632%"></stop>
            <stop stop-color="#C4957F" offset="100%"></stop>
        </radialGradient>
        <path d="M13.5152912,11.7008645 C18.7998737,11.7008645 21.0034465,19.0477793 21.0034465,12.7465699 C21.0034465,6.44536056 16.7194459,1.33722108 11.4348635,1.33722108 C6.15028097,1.33722108 1.16038761,10.7712888 1.16038761,17.0724982 C1.16038761,23.3737075 8.23070876,11.7008645 13.5152912,11.7008645 Z" id="path-30"></path>
        <path d="M13.2704414,11.8603725 C18.5550238,11.8603725 21.140072,17.1750434 21.140072,10.873834 C21.140072,4.57262461 16.4745961,1.49672904 11.1900136,1.49672904 C5.90543111,1.49672904 1.18187561,9.04774442 1.18187561,15.3489538 C1.18187561,21.6501632 7.98585889,11.8603725 13.2704414,11.8603725 Z" id="path-32"></path>
        <ellipse id="path-34" cx="3.07476659" cy="1.90277054" rx="3.03333086" ry="1.74866136"></ellipse>
        <ellipse id="path-36" cx="3.07476659" cy="1.90277054" rx="3.03333086" ry="1.74866136"></ellipse>
        <path d="M2.4435885,2.08058769 C3.77026084,2.08058769 4.84574127,2.13769825 4.84574127,1.43221851 C4.84574127,0.726738763 3.77026084,0.154834433 2.4435885,0.154834433 C1.11691616,0.154834433 0.0414357353,0.726738763 0.0414357353,1.43221851 C0.0414357353,2.13769825 1.11691616,2.08058769 2.4435885,2.08058769 Z" id="path-38"></path>
        <path d="M2.4435885,2.08058769 C3.77026084,2.08058769 4.84574127,2.13769825 4.84574127,1.43221851 C4.84574127,0.726738763 3.77026084,0.154834433 2.4435885,0.154834433 C1.11691616,0.154834433 0.0414357353,0.726738763 0.0414357353,1.43221851 C0.0414357353,2.13769825 1.11691616,2.08058769 2.4435885,2.08058769 Z" id="path-40"></path>
        <ellipse id="path-42" cx="2.95126298" cy="2.35373312" rx="2.95126298" ry="2.35373312"></ellipse>
        <ellipse id="path-44" cx="2.95126298" cy="2.35373312" rx="2.95126298" ry="2.35373312"></ellipse>
        <radialGradient cx="50%" cy="0%" fx="50%" fy="0%" r="92.256012%" gradientTransform="translate(0.500000,0.000000),scale(0.602696,1.000000),rotate(105.262596),translate(-0.500000,-0.000000)" id="radialGradient-46">
            <stop stop-color="#E3A49C" offset="0%"></stop>
            <stop stop-color="#BB4E4D" offset="100%"></stop>
        </radialGradient>
        <path d="M12.8666489,15.2021802 C19.9727029,15.2021802 25.7332979,19.9106585 25.7332979,12.8266792 C25.7332979,5.74269988 19.9727029,-2.27373675e-13 12.8666489,-2.27373675e-13 C5.76059494,-2.27373675e-13 0,5.74269988 0,12.8266792 C0,19.9106585 5.76059494,15.2021802 12.8666489,15.2021802 Z" id="path-47"></path>
        <radialGradient cx="50%" cy="50%" fx="50%" fy="50%" r="86.1492138%" gradientTransform="translate(0.500000,0.500000),scale(0.996894,1.000000),rotate(-10.431069),translate(-0.500000,-0.500000)" id="radialGradient-49">
            <stop stop-color="#292222" offset="0%"></stop>
            <stop stop-color="#E1690E" offset="100%"></stop>
        </radialGradient>
        <path d="M12.8666489,15.2021802 C19.9727029,15.2021802 25.7332979,19.9106585 25.7332979,12.8266792 C25.7332979,5.74269988 19.9727029,-2.27373675e-13 12.8666489,-2.27373675e-13 C5.76059494,-2.27373675e-13 0,5.74269988 0,12.8266792 C0,19.9106585 5.76059494,15.2021802 12.8666489,15.2021802 Z" id="path-50"></path>
        <radialGradient cx="36.668276%" cy="14.6023337%" fx="36.668276%" fy="14.6023337%" r="68.1309582%" gradientTransform="translate(0.366683,0.146023),scale(0.982047,1.000000),rotate(53.110369),translate(-0.366683,-0.146023)" id="radialGradient-52">
            <stop stop-color="#F1E3CC" offset="0%"></stop>
            <stop stop-color="#E2C698" offset="38.6171632%"></stop>
            <stop stop-color="#C4957F" offset="100%"></stop>
        </radialGradient>
        <radialGradient cx="36.668276%" cy="14.6023337%" fx="36.668276%" fy="14.6023337%" r="68.1309582%" gradientTransform="translate(0.366683,0.146023),scale(0.808243,1.000000),rotate(47.637270),translate(-0.366683,-0.146023)" id="radialGradient-53">
            <stop stop-color="#F1E3CC" offset="0%"></stop>
            <stop stop-color="#E2C698" offset="38.6171632%"></stop>
            <stop stop-color="#C4957F" offset="100%"></stop>
        </radialGradient>
    </defs>
    <g id="Page-1" stroke="none" stroke-width="1" fill="none" fill-rule="evenodd">
        <g id="Artboard">
            <g id="fox-looking-left-sneeze" transform="translate(295.000000, -11.000000)">
                <path d="M73.7163227,221.758194 C73.7163227,215.028872 69.6249274,209.573678 64.5779356,209.573678 C59.5309438,209.573678 55.4395485,215.028872 55.4395485,221.758194" id="front-right-paw" fill="#000000"></path>
                <g id="bodytail" transform="translate(64.577936, 15.094179)">
                    <path d="M55.4830014,196.29295 L61.6218483,192.405014 C78.4194241,181.766549 89.1982224,157.273539 85.6981231,137.704802 L84.9720088,133.645163 C81.4713924,114.073535 85.0044279,83.3953785 92.8576305,65.1366825 L88.778566,74.6205074 C96.634291,56.3559467 117.377661,34.2710904 135.121965,25.2866323 L119.012102,33.4435251 C136.75113,24.4617389 167.107482,15.0216398 173.672808,14.1344335 L173.672808,14.1344335 L173.672808,14.1344335 C170.308147,26.5836801 161.506776,51.6071494 154.016549,70.0206245 L166.523132,39.275275 C159.031941,57.6911194 161.486145,86.2988626 172.005035,103.172917 L163.156065,88.9776925 C173.674827,105.851541 177.102778,134.828073 170.820606,153.674588 L173.478881,145.699763 C167.193128,164.557023 147.844784,187.352924 130.240894,196.627556 L133.972932,194.661327 C116.379005,203.93071 86.7822305,206.462686 67.8727251,200.318615 L55.4830014,196.29295 Z" id="tail" fill="url(#linearGradient-1)" transform="translate(116.333195, 110.422932) rotate(-18.000000) translate(-116.333195, -110.422932) "></path>
                    <path d="M24.3690323,89.6926603 C24.3690323,89.6926603 73.3585929,130.665779 85.2916131,150.524534 C97.2246332,170.383289 97.4761292,211.356408 97.4761292,211.356408 L5.68434189e-14,211.356408 L24.3690323,89.6926603 Z" id="body" fill="url(#linearGradient-2)"></path>
                </g>
                <g id="foxhead">
                    <g id="foxheadbase" transform="translate(0.000000, 45.082710)">
                        <path d="M3.86369626,66.0478361 C9.70107211,53.7325886 35.2025315,46.3107142 84.1741415,48.8772075 C105.828778,50.0120789 120.59904,41.4623319 134.116729,42.7450288 C145.389638,43.8147178 162.433339,55.523666 169.952796,60.4794661 C154.616727,63.7132861 131.134675,74.3224291 111.511305,83.4729566 C96.4603693,90.4913234 83.8665714,99.051376 75.6820492,107.210828 C67.2847463,98.0574507 54.3463231,87.9129072 40.3370105,78.8117699 C27.9881465,70.7893415 14.8821058,66.8690616 3.86369626,66.0478361 Z" id="foxhead-bottom" fill="#F4E1DF" transform="translate(86.908246, 74.912167) rotate(7.000000) translate(-86.908246, -74.912167) "></path>
                        <path d="M185.594537,52.6836463 C179.561656,22.9337268 141.317785,0 95.039226,0 C57.8096044,0 25.7797825,14.8419929 11.5365866,36.1347612 C30.7387326,49.0037746 50.7793812,70.5649597 67.1564946,97.8210536 C68.5865874,100.201128 69.9652232,102.58548 71.2920474,104.970528 C73.1403705,103.133502 75.0337941,101.310222 76.9711644,99.5035949 C115.70041,63.3879895 159.843199,45.2560041 185.594538,52.6836481 Z" id="foxhead-top_left" fill="url(#radialGradient-3)"></path>
                    </g>
                    <g id="facial-features" transform="translate(27.415161, 0.000000)">
                        <ellipse id="nose" fill="#000000" transform="translate(42.645807, 145.909581) rotate(10.000000) translate(-42.645807, -145.909581) " cx="42.6458065" cy="145.909581" rx="6.09225808" ry="8.2245484"></ellipse>
                        <g id="eye-left-copy" transform="translate(33.507419, 70.670194)">
                            <mask id="mask-5" fill="white">
                                <use xlink:href="#path-4"></use>
                            </mask>
                            <use id="Mask" fill="#F2EECE" xlink:href="#path-4"></use>
                            <circle id="pupil" stroke="#979797" fill="url(#radialGradient-6)" mask="url(#mask-5)" cx="20.7136775" cy="12.793742" r="6.09225808"></circle>
                        </g>
                        <g id="squint" transform="translate(70.060968, 71.279419)" stroke="#000000" stroke-width="2" stroke-linecap="square">
                            <path d="M0.913838711,11.2706774 L30.1566775,0.304612904" id="Line"></path>
                            <path d="M0,11.5752903 L31.0705162,13.7075807" id="Line-Copy"></path>
                            <path d="M0.609225808,12.1845162 L26.1967097,23.1505807" id="Line-Copy-2"></path>
                        </g>
                        <g id="whiskers" transform="translate(0.000000, 122.454387)" stroke="#0C0C0C">
                            <path d="M38.9904517,12.793742 L1.21845162,22.5413549" id="Path-2"></path>
                            <path d="M38.3812259,7.9199355 L0.304612904,0.304612904" id="Path-2-Copy"></path>
                            <path d="M37.1627743,10.9660645 L0.609225808,15.839871" id="Path-2-Copy-2"></path>
                            <path d="M98.085355,3.04612904 L61.5318066,7.9199355" id="Path-2-Copy-3"></path>
                            <path d="M91.688484,18.5813871 L54.8303227,11.5752903" id="Path-2-Copy-5"></path>
                            <path d="M97.1715163,13.7075807 L61.5318066,7.9199355" id="Path-2-Copy-4"></path>
                        </g>
                        <g id="rightear" transform="translate(96.045154, 33.898587) rotate(14.000000) translate(-96.045154, -33.898587) translate(77.768380, 9.529555)">
                            <polygon id="outterear" fill="url(#linearGradient-7)" points="18.2767742 9.01703979e-15 29.3382911 24.6235719 36.5535485 48.7380646 -3.60681592e-14 48.7380646 7.48342364 23.9084618"></polygon>
                            <polygon id="innerear" fill="url(#linearGradient-8)" points="18.2767742 14.0121936 24.9364272 27.2765916 34.1166452 48.7380646 3.04612904 48.7380646 11.5471647 27.9666684"></polygon>
                        </g>
                        <g id="leftear" transform="translate(55.439548, 26.805936) rotate(7.000000) translate(-55.439548, -26.805936) translate(37.162774, 2.436903)">
                            <polygon id="outterear" fill="url(#linearGradient-7)" points="18.2767742 9.01703979e-15 29.3382911 24.6235719 36.5535485 48.7380646 0 48.7380646 7.48342364 23.9084618"></polygon>
                            <polygon id="innerear" fill="url(#linearGradient-8)" points="18.2767742 14.0121936 24.9364272 27.2765916 34.1166452 48.7380646 3.04612904 48.7380646 11.5471647 27.9666684"></polygon>
                        </g>
                    </g>
                </g>
                <g id="backleg" transform="translate(107.223742, 173.629355)">
                    <path d="M31.679742,0 L19.4952258,0 C12.7659034,0 7.31070969,5.44644453 7.31070969,12.1918082 L7.31070969,15.3756596 C7.31070969,22.1090093 11.4307973,31.1467939 16.5062308,35.5560767 L31.679742,48.7380646" id="back-leg" stroke="#710B0B" stroke-width="3" stroke-linecap="square"></path>
                    <path d="M36.5535485,54.2210969 C36.5535485,47.4917744 28.3707579,42.0365807 18.2767742,42.0365807 C8.18279055,42.0365807 0,47.4917744 0,54.2210969" id="backfoot" fill="#000000"></path>
                </g>
                <path d="M82.8547098,230.287355 C82.8547098,223.558033 78.7633146,218.102839 73.7163227,218.102839 C68.6693309,218.102839 64.5779356,223.558033 64.5779356,230.287355" id="front-left-paw" fill="#000000"></path>
                <g id="feathers-happy" transform="translate(24.978258, 79.199355)">
                    <g id="feather-happy-c" transform="translate(29.361136, 28.353119) rotate(-57.000000) translate(-29.361136, -28.353119) translate(10.170523, 6.420990)">
                        <g id="feather-body" transform="translate(-0.000000, -0.000000)">
                            <path d="M18.0540639,43.4523761 C20.340351,43.4523761 21.5157779,39.4063563 22.6162905,34.474826 C22.6688354,34.239366 19.6777531,36.3126725 19.729075,36.0710521 C19.7803969,35.8294318 23.0850265,33.775916 23.1366075,33.5216708 C23.8244198,30.1314106 24.4167969,26.2294346 25.0871721,22.4112028 C25.5767431,19.6227704 26.6878272,14.3167659 25.9027286,14.7153984 C23.9423059,15.7107996 22.3362491,16.3443394 22.6112664,16.0194942 C22.7785962,15.8218474 23.6650927,15.5383566 24.3288059,15.0791671 C24.9925191,14.6199777 25.9554162,13.6313564 25.9615902,13.493603 C25.9972277,12.6984741 26.0284502,11.9138047 26.0634402,11.133595 C26.1466384,9.27843736 26.1040229,5.67888884 25.6045146,3.25511006 C25.5673181,3.07462052 22.925254,5.4639551 22.8835644,5.29081758 C22.8271318,5.05645232 25.3095265,2.84147901 25.2444838,2.62372497 C24.7886646,1.09770494 24.1160884,0.0239339404 23.1520957,0.0239339404 C21.2894989,0.0239339404 18.692453,2.40256319 16.4476661,6.11242923 C16.1793701,6.55583096 18.5337728,12.1667364 18.5337728,12.1667364 C18.5337728,12.1667364 15.3441262,8.09994878 15.1907483,8.41050328 C14.8409351,9.11879335 14.5072314,9.8593838 14.1949007,10.6272018 C14.1263516,10.7957192 13.8624832,11.4751386 13.7991607,11.6461724 C13.7363308,11.8158756 13.7947928,12.5546256 13.7085436,12.8195968 C12.7330485,15.8164736 11.7534825,19.2405959 11.7534825,22.5871802 C11.7534825,25.1682008 11.8676917,27.6355172 12.0895497,29.9115286 C12.1239925,30.2648735 16.6047138,34.8200085 16.6047138,34.8200085 C16.6047138,34.8200085 12.3254721,31.0171386 12.3476842,31.1949453 C13.2327586,38.2798951 15.1548217,43.4523761 18.0540639,43.4523761 Z" id="Oval" fill="#E1F5F7" transform="translate(18.964429, 21.738155) rotate(37.000000) translate(-18.964429, -21.738155) "></path>
                            <path d="M32.4982267,9.05397606 C32.4982267,9.05397606 21.3848615,17.7706123 16.932919,22.683918 C12.4809764,27.5972237 1.36761122,43.4107153 1.36761122,43.4107153" id="Path-2" stroke="#F3F4E9" stroke-width="9"></path>
                            <path d="M33.2072709,9.10428381 C33.2072709,9.10428381 23.4713852,16.5326455 19.5712521,20.7197895 C15.6711189,24.9069336 5.93523324,38.3832715 5.93523324,38.3832715" id="Path-2-Copy" stroke="#E1F6F7" stroke-width="4" transform="translate(19.571252, 23.743778) rotate(-1.000000) translate(-19.571252, -23.743778) "></path>
                        </g>
                        <g id="eye-left" transform="translate(24.898700, 16.982607)">
                            <mask id="mask-10" fill="white">
                                <use xlink:href="#path-9"></use>
                            </mask>
                            <use id="Mask" fill="#FFFFFF" xlink:href="#path-9"></use>
                            <ellipse id="Oval-3" fill="#000000" mask="url(#mask-10)" cx="1.85989704" cy="1.09016719" rx="1" ry="1"></ellipse>
                        </g>
                        <g id="eye-right" transform="translate(27.665222, 16.456014)">
                            <mask id="mask-12" fill="white">
                                <use xlink:href="#path-11"></use>
                            </mask>
                            <use id="Mask" fill="#FFFFFF" xlink:href="#path-11"></use>
                            <ellipse id="Oval-3" fill="#000000" mask="url(#mask-12)" cx="1.23660262" cy="1.30305557" rx="1" ry="1"></ellipse>
                        </g>
                    </g>
                    <g id="feather-happy-b" transform="translate(60.983313, 45.343181) rotate(66.000000) translate(-60.983313, -45.343181) translate(42.097313, 23.411051)">
                        <g id="feather-body" transform="translate(0.000000, 0.000000)">
                            <path d="M18.0619473,43.4288314 C20.3482344,43.4288314 21.5236614,39.3828115 22.6241739,34.4512813 C22.6767188,34.2158213 19.6856365,36.2891278 19.7369584,36.0475074 C19.7882803,35.805887 23.0929099,33.7523712 23.1444909,33.4981261 C23.3235455,32.615557 23.4961326,31.6983095 23.6653119,30.7568886 C23.7443415,30.3171175 20.4376538,31.9987386 20.4376538,31.9987386 C20.4376538,31.9987386 24.057449,28.5102143 24.135593,28.0485725 C24.4503269,26.1892573 24.7631303,24.2781924 25.0950555,22.3876581 C25.5846265,19.5992257 25.910612,14.6918536 25.910612,14.6918536 C25.910612,14.6918536 25.6983241,15.4403979 25.1718364,15.7071274 C24.6453487,15.973857 21.5517308,16.8835762 21.7544887,16.6440824 C21.9218185,16.4464356 24.2428508,15.3770281 24.906564,14.9178386 C25.5702772,14.4586492 25.9632996,13.6078117 25.9694736,13.4700583 C26.0051111,12.6749293 26.0363336,11.8902599 26.0713236,11.1100503 C26.1545218,9.25489262 26.1119063,5.6553441 25.612398,3.23156532 C25.5752015,3.05107578 22.9331375,5.44041036 22.8914478,5.26727284 C22.8350152,5.03290758 25.3174099,2.81793427 25.2523672,2.60018023 C24.796548,1.0741602 24.1239719,0.000389199938 23.1599791,0.000389199938 C20.6214539,0.000389199938 16.7187008,4.41865671 14.2027841,10.603657 C14.134235,10.7721744 17.8148517,17.1658335 17.7484173,17.3369203 C17.6829328,17.505561 13.8703666,11.4515939 13.8070441,11.6226276 C13.7442142,11.7923309 13.8026762,12.5310808 13.716427,12.796052 C12.7409319,15.7929289 11.7613659,19.2170511 11.7613659,22.5636354 C11.7613659,25.1446561 11.8755751,27.6119724 12.0974331,29.8879839 C12.1318759,30.2413288 16.6125972,34.7964638 16.6125972,34.7964638 C16.6125972,34.7964638 12.3333555,30.9935938 12.3555676,31.1714006 C13.240642,38.2563504 15.1627051,43.4288314 18.0619473,43.4288314 Z" id="Oval" fill="#D9F1F2" transform="translate(18.933163, 21.714610) rotate(37.000000) translate(-18.933163, -21.714610) "></path>
                            <path d="M32.4982267,9.05397606 C32.4982267,9.05397606 21.3848615,17.7706123 16.932919,22.683918 C12.4809764,27.5972237 1.36761122,43.4107153 1.36761122,43.4107153" id="Path-2" stroke="#F3F4E9" stroke-width="10"></path>
                            <path d="M34.0995174,8.68296996 C34.0995174,8.68296996 23.9448561,16.1875433 19.8769642,20.4176456 C15.8090722,24.6477478 5.65441096,38.2623469 5.65441096,38.2623469" id="Path-2-Copy" stroke="#DAF1F3" stroke-width="9" transform="translate(19.876964, 23.472658) rotate(-1.000000) translate(-19.876964, -23.472658) "></path>
                        </g>
                        <g id="eye-left" transform="translate(24.898700, 17.245903)">
                            <mask id="mask-14" fill="white">
                                <use xlink:href="#path-13"></use>
                            </mask>
                            <use id="Mask" fill="#FFFFFF" xlink:href="#path-13"></use>
                            <ellipse id="Oval-3" fill="#000000" mask="url(#mask-14)" cx="1.31300046" cy="0.425808925" rx="1" ry="1"></ellipse>
                        </g>
                        <g id="Oval-3-Copy-2" transform="translate(27.665222, 17.245903)">
                            <mask id="mask-16" fill="white">
                                <use xlink:href="#path-15"></use>
                            </mask>
                            <use id="Mask" fill="#FFFFFF" xlink:href="#path-15"></use>
                            <ellipse id="Oval-3" fill="#000000" mask="url(#mask-16)" cx="1.31300046" cy="0.425808925" rx="1" ry="1"></ellipse>
                        </g>
                    </g>
                    <g id="feather-happy-a" transform="translate(47.019289, 36.305570) rotate(-18.000000) translate(-47.019289, -36.305570) translate(27.828676, 14.373441)">
                        <g id="feather-body">
                            <path d="M18.0540639,43.4523761 C20.340351,43.4523761 21.5157779,39.4063563 22.6162905,34.474826 C22.6688354,34.239366 19.6777531,36.3126725 19.729075,36.0710521 C19.7803969,35.8294318 23.0850265,33.775916 23.1366075,33.5216708 C23.8244198,30.1314106 24.4167969,26.2294346 25.0871721,22.4112028 C25.5767431,19.6227704 26.6878272,14.3167659 25.9027286,14.7153984 C23.9423059,15.7107996 22.3362491,16.3443394 22.6112664,16.0194942 C22.7785962,15.8218474 23.6650927,15.5383566 24.3288059,15.0791671 C24.9925191,14.6199777 25.9554162,13.6313564 25.9615902,13.493603 C25.9972277,12.6984741 26.0284502,11.9138047 26.0634402,11.133595 C26.1466384,9.27843736 26.1040229,5.67888884 25.6045146,3.25511006 C25.5673181,3.07462052 22.925254,5.4639551 22.8835644,5.29081758 C22.8271318,5.05645232 25.3095265,2.84147901 25.2444838,2.62372497 C24.7886646,1.09770494 24.1160884,0.0239339404 23.1520957,0.0239339404 C20.6135705,0.0239339404 16.7108174,4.44220145 14.1949007,10.6272018 C14.1263516,10.7957192 17.8069682,17.1893782 17.7405339,17.3604651 C17.6750494,17.5291058 13.8624832,11.4751386 13.7991607,11.6461724 C13.7363308,11.8158756 17.7894993,17.9446483 17.7289024,18.1166068 C17.6683056,18.2885653 13.7947928,12.5546256 13.7085436,12.8195968 C12.7330485,15.8164736 11.7534825,19.2405959 11.7534825,22.5871802 C11.7534825,25.1682008 11.8676917,27.6355172 12.0895497,29.9115286 C12.1239925,30.2648735 16.6047138,34.8200085 16.6047138,34.8200085 C16.6047138,34.8200085 12.3254721,31.0171386 12.3476842,31.1949453 C13.2327586,38.2798951 15.1548217,43.4523761 18.0540639,43.4523761 Z" id="Oval" fill="#E8F4F4" transform="translate(18.964429, 21.738155) rotate(37.000000) translate(-18.964429, -21.738155) "></path>
                            <path d="M32.4982267,9.05397606 C32.4982267,9.05397606 21.3848615,17.7706123 16.932919,22.683918 C12.4809764,27.5972237 1.36761122,43.4107153 1.36761122,43.4107153" id="Path-2" stroke="#F3F4E9" stroke-width="16"></path>
                            <path d="M33.0899104,9.35436531 C33.0899104,9.35436531 23.3540248,16.782727 19.4538916,20.969871 C15.5537585,25.1570151 5.81787279,38.633353 5.81787279,38.633353" id="Path-2-Copy" stroke="#E9F4F5" stroke-width="16" transform="translate(19.453892, 23.993859) rotate(-1.000000) translate(-19.453892, -23.993859) "></path>
                        </g>
                        <g id="eye-left" transform="translate(24.915985, 17.310715)">
                            <ellipse id="Oval-2" fill="#FFFFFF" cx="1.00205844" cy="0.534693886" rx="1.00205844" ry="1"></ellipse>
                            <ellipse id="Oval-3" fill="#000000" cx="1.40288181" cy="0.601530621" rx="1" ry="1"></ellipse>
                        </g>
                        <g id="eye-right" transform="translate(27.654944, 16.976531)">
                            <ellipse id="Oval-2-Copy" fill="#FFFFFF" cx="1.00205844" cy="0.534693886" rx="1.00205844" ry="1"></ellipse>
                            <ellipse id="Oval-3-Copy" fill="#000000" cx="1.40288181" cy="0.601530621" rx="1" ry="1"></ellipse>
                        </g>
                    </g>
                </g>
            </g>
            <g id="feathers-squished" transform="translate(132.000000, 82.000000)">
                <g id="feather-squished-c" transform="translate(96.257519, 140.428584) rotate(239.000000) translate(-96.257519, -140.428584) translate(32.757519, 67.428584)">
                    <g id="feather-body" transform="translate(-0.000000, 0.000000)">
                        <path d="M61.0635825,145.795485 C68.7062236,145.795485 72.6354616,132.21254 76.3142743,115.656837 C76.4899223,114.866371 66.4912796,121.826695 66.6628393,121.015548 C66.834399,120.204401 77.8811733,113.310517 78.0535992,112.456988 C80.3528305,101.075502 82.333039,87.9761279 84.573981,75.1578933 C86.2105279,65.7968113 87.0564301,62.0720637 84.4442546,60.5277869 C82.8148703,59.5645208 79.9705139,60.660388 78.6954019,59.8010043 C77.4202899,58.9416206 75.6716849,54.4425447 76.2974797,53.7002066 C76.8568328,53.036684 79.0868918,50.8548028 82.0389013,50.5434226 C84.9909109,50.2320424 86.7759636,53.0552048 86.7966024,52.5927512 C86.9157319,49.9234136 87.7205021,39.9169437 87.8374674,37.2976919 C88.1155837,31.0697184 87.9731279,18.985628 86.3033627,10.8487293 C86.1790216,10.2428055 77.3470832,18.2640712 77.2077224,17.682829 C77.0190785,16.8960384 85.3172715,9.4601232 85.0998456,8.7290983 C83.576125,3.60607695 81.3278255,0.00130658809 78.1053735,0.00130658809 C71.8790519,0.00130658809 63.197601,7.98663326 55.6936876,20.441072 C54.7968229,21.9296216 62.667162,40.766064 62.667162,40.766064 C62.667162,40.766064 52.0047549,27.1133993 51.4920405,28.1559658 C50.3226787,30.5337755 49.2071683,33.0200211 48.1631034,35.5976726 C47.9339565,36.1634046 47.0518923,38.4442923 46.8402168,39.0184718 C46.6301879,39.5881849 46.8256158,42.0682518 46.5373006,42.95779 C43.2763983,53.0186436 40.0018877,64.5138081 40.0018877,75.7486692 C40.0018877,84.4134467 40.3836681,92.6965059 41.1252989,100.337333 C41.2404351,101.523552 56.2186695,116.815654 56.2186695,116.815654 C56.2186695,116.815654 41.9139444,104.04899 41.9881957,104.645908 C44.9468378,128.430883 51.3719446,145.795485 61.0635825,145.795485 Z" id="Oval" fill="#E1F5F7" transform="translate(63.975897, 72.898396) rotate(37.000000) translate(-63.975897, -72.898396) "></path>
                        <path d="M109.321433,30.3952189 C109.321433,30.3952189 72.1714791,59.6579499 57.2894467,76.1524713 C42.4074143,92.6469926 5.25746054,145.734668 5.25746054,145.734668" id="Path-2" stroke="#F3F4E9" stroke-width="9"></path>
                        <path d="M111.691638,30.5641076 C111.691638,30.5641076 79.1463474,55.5019557 66.1089133,69.5586706 C53.0714792,83.6153854 20.5261883,128.856972 20.5261883,128.856972" id="Path-2-Copy" stroke="#E1F6F7" stroke-width="4" transform="translate(66.108913, 79.710540) rotate(-1.000000) translate(-66.108913, -79.710540) "></path>
                    </g>
                    <g id="eye-left" transform="translate(83.917599, 57.012527)">
                        <mask id="mask-18" fill="white">
                            <use xlink:href="#path-17"></use>
                        </mask>
                        <use id="Mask" fill="#FFFFFF" xlink:href="#path-17"></use>
                        <ellipse id="Oval-3" fill="#000000" mask="url(#mask-18)" cx="4.78190077" cy="4.34105901" rx="1.781337" ry="1.78983406"></ellipse>
                    </g>
                    <g id="eye-right" transform="translate(93.165578, 55.244697)">
                        <mask id="mask-20" fill="white">
                            <use xlink:href="#path-19"></use>
                        </mask>
                        <use id="Mask" fill="#FFFFFF" xlink:href="#path-19"></use>
                        <ellipse id="Oval-3" fill="#000000" mask="url(#mask-20)" cx="5.16339049" cy="4.19791488" rx="1.781337" ry="1.78983406"></ellipse>
                    </g>
                </g>
                <g id="feather-squished-b-" transform="translate(193.727680, 132.419335) scale(1, -1) rotate(-303.000000) translate(-193.727680, -132.419335) translate(130.227680, 59.419335)">
                    <g id="feather-body" transform="translate(-0.000000, 0.000000)">
                        <path d="M60.897185,145.838444 C68.504598,145.838444 72.4157245,132.255499 76.07758,115.699795 C76.2524184,114.909329 66.2998637,121.869653 66.4706325,121.058506 C66.6414014,120.24736 77.6372565,113.353475 77.8088876,112.499946 C78.4046757,109.537062 78.9789437,106.457759 79.5418723,103.297302 C79.8048362,101.820941 68.802133,107.466333 68.802133,107.466333 C68.802133,107.466333 80.8466728,95.7549634 81.1066899,94.2051798 C82.1539384,87.963249 83.1947633,81.5475886 84.2992142,75.2008515 C85.9282176,65.8397695 86.3679603,54.6389592 86.3679603,54.6389592 C86.3679603,54.6389592 83.7274846,58.4835542 81.9756446,59.3789954 C80.2238046,60.2744366 73.4881737,60.7338242 74.1628321,59.9298166 C74.7196069,59.2662939 79.2473774,53.4255694 81.4558228,51.8840186 C83.6642682,50.3424679 87.7612533,51.9004765 87.7817969,51.438023 C87.9003774,48.7686854 87.4312317,39.9599019 87.5476579,37.3406501 C87.8244922,31.1126766 87.682693,19.0285862 86.0206245,10.8916875 C85.8968566,10.2857637 77.1056283,18.3070294 76.9669098,17.7257872 C76.7791355,16.9389966 85.0390786,9.50308139 84.8226549,8.77205649 C83.3059578,3.64903514 81.0680217,0.0442647806 77.8604232,0.0442647806 C69.413711,0.0442647806 56.4276542,14.8768872 48.0561697,35.6406308 C47.828079,36.2063628 60.0749968,57.6705973 59.8539425,58.2449552 C59.6360489,58.8111011 46.9500807,38.4872505 46.7393809,39.06143 C46.5303201,39.6311431 46.7248471,42.1112099 46.4378609,43.0007482 C43.1919895,53.0616018 39.9325725,64.5567663 39.9325725,75.7916274 C39.9325725,84.4564049 40.3125931,92.7394641 41.0508054,100.380291 C41.1654109,101.56651 56.0746043,116.858612 56.0746043,116.858612 C56.0746043,116.858612 41.8358158,104.091949 41.9097248,104.688866 C44.8547292,128.473841 51.25022,145.838444 60.897185,145.838444 Z" id="Oval" fill="#D9F1F2" transform="translate(63.866874, 72.941354) rotate(37.000000) translate(-63.866874, -72.941354) "></path>
                        <path d="M108.946851,30.3952189 C108.946851,30.3952189 71.9681369,59.6579499 57.1547021,76.1524713 C42.3412673,92.6469926 5.36255331,145.734668 5.36255331,145.734668" id="Path-2" stroke="#F3F4E9" stroke-width="10"></path>
                        <path d="M114.275,29.1497095 C114.275,29.1497095 80.4862866,54.3434087 66.9507454,68.5443391 C53.4152041,82.7452696 19.6264904,128.451014 19.6264904,128.451014" id="Path-2-Copy" stroke="#DAF1F3" stroke-width="9" transform="translate(66.950745, 78.800362) rotate(-1.000000) translate(-66.950745, -78.800362) "></path>
                    </g>
                    <g id="eye-left" transform="translate(83.660114, 57.896442)">
                        <mask id="mask-22" fill="white">
                            <use xlink:href="#path-21"></use>
                        </mask>
                        <use id="Mask" fill="#FFFFFF" xlink:href="#path-21"></use>
                        <ellipse id="Oval-3" fill="#000000" mask="url(#mask-22)" cx="1.81450567" cy="1.33792229" rx="1.3337034" ry="1.34627076"></ellipse>
                    </g>
                    <g id="Oval-3-Copy-2" transform="translate(92.865466, 57.896442)">
                        <mask id="mask-24" fill="white">
                            <use xlink:href="#path-23"></use>
                        </mask>
                        <use id="Mask" fill="#FFFFFF" xlink:href="#path-23"></use>
                        <ellipse id="Oval-3" fill="#000000" mask="url(#mask-24)" cx="1.81450567" cy="1.33792229" rx="1.3337034" ry="1.34627076"></ellipse>
                    </g>
                </g>
                <g id="feather-squished-a" transform="translate(165.000000, 165.500000) rotate(44.000000) translate(-165.000000, -165.500000) translate(87.000000, 76.000000)">
                    <g id="feather-body" transform="translate(0.000000, 0.000000)">
                        <path d="M74.0838489,178.842013 C83.5053811,178.842013 88.3491835,162.196112 92.8842718,141.907096 C93.1008034,140.93838 80.7748898,149.468258 80.9863815,148.474197 C81.1978731,147.480137 94.8158802,139.031681 95.0284396,137.98568 C97.862837,124.037667 100.303956,107.984383 103.066497,92.275635 C105.083964,80.8036278 109.752136,61.0512302 106.887181,65.834525 C102.005511,73.9849028 92.5624192,77.1000595 93.6957343,75.7636002 C94.3852817,74.9504531 93.8542234,66.8671275 96.5893108,64.9779568 C99.3243983,63.0887861 106.57207,60.0774584 106.597513,59.5107215 C106.744371,56.2394479 106.945398,49.0878467 107.089588,45.8779533 C107.432438,38.2455709 107.256825,23.4365166 105.198407,13.4647462 C105.045125,12.7221865 94.1574759,22.5522486 93.9856777,21.8399363 C93.7531253,20.8757243 103.982795,11.7630092 103.714761,10.8671381 C101.836381,4.58887478 99.0647706,0.171228233 95.0922648,0.171228233 C84.6312879,0.171228233 68.5484812,18.3486089 58.1806714,43.7945794 C57.8981885,44.4878841 73.0655957,70.7923062 72.7918272,71.4961819 C72.5219731,72.1899938 56.8108162,47.2831122 56.5498714,47.9867693 C56.2909565,48.6849527 72.9936083,73.8995949 72.7438953,74.6070565 C72.4941824,75.3145181 56.5318719,51.724275 56.1764488,52.8144042 C52.1565431,65.1439816 48.1198619,79.2313073 48.1198619,92.9996309 C48.1198619,103.618317 48.590505,113.769207 49.5047567,123.133042 C49.6466919,124.586753 68.1112404,143.327226 68.1112404,143.327226 C68.1112404,143.327226 50.4769664,127.681678 50.5685003,128.4132 C54.215792,157.561691 62.1363982,178.842013 74.0838489,178.842013 Z" id="Oval" fill="#E8F4F4" transform="translate(77.956403, 89.506621) rotate(37.000000) translate(-77.956403, -89.506621) "></path>
                        <path d="M133.630993,37.2493447 C133.630993,37.2493447 87.8340649,73.1108254 69.4881102,93.3248634 C51.1421555,113.538902 5.34522739,178.597854 5.34522739,178.597854" id="Path-2" stroke="#F3F4E9" stroke-width="12"></path>
                        <path d="M136.344547,37.6602612 C136.344547,37.6602612 96.2240565,68.2215972 80.1520464,85.4481031 C64.0800363,102.674609 23.9595462,158.118179 23.9595462,158.118179" id="Path-2-Copy" stroke="#E9F4F5" stroke-width="13" transform="translate(80.152046, 97.889220) rotate(-1.000000) translate(-80.152046, -97.889220) "></path>
                    </g>
                    <g id="Oval-3" transform="translate(102.385426, 71.218741)">
                        <mask id="mask-26" fill="white">
                            <use xlink:href="#path-25"></use>
                        </mask>
                        <use id="Mask" fill="#FFFFFF" xlink:href="#path-25"></use>
                        <ellipse fill="#000000" mask="url(#mask-26)" cx="2.75291343" cy="1.09990333" rx="1.9270394" ry="1.92483083"></ellipse>
                    </g>
                    <g id="Oval-3-Copy" transform="translate(112.571205, 69.843861)">
                        <mask id="mask-28" fill="white">
                            <use xlink:href="#path-27"></use>
                        </mask>
                        <use id="Mask" fill="#FFFFFF" xlink:href="#path-27"></use>
                        <ellipse fill="#000000" mask="url(#mask-28)" cx="3.57878745" cy="1.09990333" rx="1.9270394" ry="1.92483083"></ellipse>
                    </g>
                </g>
                <g id="egg-happy-on-feathers" transform="translate(152.500000, 85.500000) scale(-1, 1) translate(-152.500000, -85.500000) translate(92.000000, 0.000000)">
                    <path d="M60.3872706,170.82817 C103.300803,170.82817 123.912815,132.178589 120.533797,88.6724582 C117.154778,45.1663274 93.6052798,0.0930489139 60.3872706,0.0930489139 C27.1692614,0.0930489139 2.26815537,45.1663274 0.240744378,88.6724582 C-1.78666662,132.178589 17.4737378,170.82817 60.3872706,170.82817 Z" id="small-egg-copy-3" fill="url(#radialGradient-29)"></path>
                    <g id="Oval-3" transform="translate(62.196931, 51.342070)">
                        <mask id="mask-31" fill="white">
                            <use xlink:href="#path-30"></use>
                        </mask>
                        <use id="Mask" fill="#FFFFFF" transform="translate(11.081917, 10.138150) rotate(-8.000000) translate(-11.081917, -10.138150) " xlink:href="#path-30"></use>
                        <ellipse fill="#000000" mask="url(#mask-31)" cx="12.7536299" cy="13.6231555" rx="6.69800811" ry="6.6554535"></ellipse>
                    </g>
                    <g id="Oval-3-Copy" transform="translate(83.374998, 43.539493)">
                        <mask id="mask-33" fill="white">
                            <use xlink:href="#path-32"></use>
                        </mask>
                        <use id="Mask" fill="#FFFFFF" transform="translate(11.160974, 9.480080) rotate(-8.000000) translate(-11.160974, -9.480080) " xlink:href="#path-32"></use>
                        <ellipse fill="#000000" mask="url(#mask-33)" cx="12.6264447" cy="13.8194995" rx="6.69800811" ry="6.6554535"></ellipse>
                    </g>
                    <g id="smile" transform="translate(66.655590, 59.390489)" stroke="#D95A5A" stroke-width="3">
                        <path d="M27.4321368,29.3442131 C36.415927,29.3442131 43.6987279,16.0333061 43.6987279,16.0333061 C43.6987279,16.0333061 36.415927,23.1323465 27.4321368,23.1323465 C18.4483466,23.1323465 11.1655457,16.0333061 11.1655457,16.0333061 C11.1655457,16.0333061 18.4483466,29.3442131 27.4321368,29.3442131 Z" id="Oval" fill="#FFFFFF" transform="translate(27.432137, 22.688760) rotate(-24.000000) translate(-27.432137, -22.688760) "></path>
                        <path d="M43.7044824,-1.08071716 C41.5906494,-1.08071716 39.8770492,0.905781531 39.8770492,3.35625185 C39.8770492,5.80672216 41.5906494,7.79322085 43.7044824,7.79322085 L43.7044824,7.79322085" id="Oval-4" transform="translate(41.790766, 3.356252) rotate(-70.000000) translate(-41.790766, -3.356252) "></path>
                        <path d="M5.42439588,14.131748 C3.31056289,14.131748 1.59696268,16.1182467 1.59696268,18.568717 C1.59696268,21.0191873 3.31056289,23.005686 5.42439588,23.005686 L5.42439588,23.005686" id="Oval-4-Copy" transform="translate(3.510679, 18.568717) scale(-1, 1) rotate(-23.000000) translate(-3.510679, -18.568717) "></path>
                    </g>
                </g>
                <g id="feathers-squished-copy" transform="translate(128.498782, 188.534878) scale(-1, 1) rotate(86.000000) translate(-128.498782, -188.534878) translate(26.498782, 86.534878)">
                    <g id="feather-squished-c" transform="translate(69.823019, 105.540721) scale(-1, 1) rotate(309.000000) translate(-69.823019, -105.540721) translate(24.323019, 53.540721)">
                        <g id="feather-body" transform="translate(-0.000000, -0.000000)">
                            <path d="M43.2984294,103.751509 C48.7791587,103.751509 51.5969136,94.0855647 54.2350823,82.3041355 C54.3610439,81.7416213 47.1907669,86.694752 47.3137967,86.1175208 C47.4368264,85.5402896 55.3587448,80.6344389 55.4823957,80.027047 C57.131232,71.9277129 58.5512891,62.6058894 60.1583247,53.484131 C61.3319334,46.8225641 61.9385511,44.1719458 60.0652947,43.073002 C58.8968224,42.3875191 56.8570632,43.167364 55.9426485,42.5558063 C55.0282338,41.9442486 53.7742653,38.7426 54.2230385,38.2143347 C54.6241646,37.7421563 56.2233957,36.1894781 58.3403556,35.9678926 C60.4573155,35.7463071 61.7374215,37.7553361 61.7522221,37.4262433 C61.8376529,35.5266796 62.4147738,28.4058394 62.4986525,26.541918 C62.6980966,22.109945 62.595938,13.5106211 61.3985076,7.72021185 C61.3093395,7.28902221 54.9757354,12.9971442 54.8757963,12.5835186 C54.740515,12.0236198 60.6913569,6.73204699 60.5354353,6.21183241 C59.4427372,2.56616948 57.8304254,0.000929798929 55.5195243,0.000929798929 C51.0544733,0.000929798929 44.8287876,5.68347676 39.4475434,14.5463494 C38.8043793,15.6056364 44.4483964,29.0100935 44.4483964,29.0100935 C44.4483964,29.0100935 36.8021175,19.294535 36.4344371,20.0364499 C35.5958585,21.7285554 34.7958981,23.4978265 34.047173,25.3321442 C33.882846,25.7347324 33.2502957,27.3578659 33.0984979,27.7664656 C32.9478809,28.1718869 33.0880272,29.936761 32.8812691,30.5697774 C30.5427944,37.7293183 28.194561,45.9095488 28.194561,53.9045411 C28.194561,60.0706013 28.4683453,65.9650218 29.0001872,71.4024148 C29.0827543,72.246556 39.8240211,83.1287768 39.8240211,83.1287768 C39.8240211,83.1287768 29.5657447,74.0437177 29.6189921,74.4684981 C31.7407084,91.3944482 36.3483133,103.751509 43.2984294,103.751509 Z" id="Oval" fill="#E1F5F7" transform="translate(45.386923, 51.876219) rotate(37.000000) translate(-45.386923, -51.876219) "></path>
                            <path d="M77.9053418,21.6299553 C77.9053418,21.6299553 51.2641801,42.4540055 40.5919022,54.1918962 C29.9196243,65.929787 3.27846257,103.70823 3.27846257,103.70823" id="Path-2" stroke="#F3F4E9" stroke-width="9"></path>
                            <path d="M79.6050755,21.7501405 C79.6050755,21.7501405 56.2660328,39.4965018 46.9165624,49.499592 C37.5670921,59.5026821 14.2280494,91.6976629 14.2280494,91.6976629" id="Path-2-Copy" stroke="#E1F6F7" stroke-width="4" transform="translate(46.916562, 56.723902) rotate(-1.000000) translate(-46.916562, -56.723902) "></path>
                        </g>
                        <g id="eye-left" transform="translate(59.687617, 40.571460)">
                            <mask id="mask-35" fill="white">
                                <use xlink:href="#path-34"></use>
                            </mask>
                            <use id="Mask" fill="#FFFFFF" xlink:href="#path-34"></use>
                            <ellipse id="Oval-3" fill="#000000" mask="url(#mask-35)" cx="3.42922073" cy="3.08920007" rx="1.27744135" ry="1.27368817"></ellipse>
                        </g>
                        <g id="eye-right" transform="translate(66.319574, 39.313430)">
                            <mask id="mask-37" fill="white">
                                <use xlink:href="#path-36"></use>
                            </mask>
                            <use id="Mask" fill="#FFFFFF" xlink:href="#path-36"></use>
                            <ellipse id="Oval-3" fill="#000000" mask="url(#mask-37)" cx="3.70279656" cy="2.98733533" rx="1.27744135" ry="1.27368817"></ellipse>
                        </g>
                    </g>
                    <g id="feather-squished-b-" transform="translate(92.883163, 69.163267) scale(1, -1) rotate(-219.000000) translate(-92.883163, -69.163267) translate(47.383163, 17.163267)">
                        <g id="feather-body" transform="translate(0.000000, 0.000000)">
                            <path d="M43.2881585,103.782079 C48.7688878,103.782079 51.5866427,94.1161348 54.2248114,82.3347056 C54.350773,81.7721914 47.1804961,86.7253221 47.3035258,86.1480909 C47.4265555,85.5708597 55.3484739,80.6650089 55.4721248,80.0576171 C55.9013579,77.949159 56.3150868,75.757854 56.7206464,73.5087987 C56.9100977,72.4581853 48.9832456,76.4755794 48.9832456,76.4755794 C48.9832456,76.4755794 57.6606846,68.1414923 57.8480128,67.0386297 C58.6024987,62.5967245 59.3523567,58.0311891 60.1480538,53.5147011 C61.3216625,46.8531342 61.6384734,38.8823732 61.6384734,38.8823732 C61.6384734,38.8823732 59.7361536,41.6182777 58.4740477,42.2554948 C57.2119418,42.8927119 52.3592843,43.219623 52.8453392,42.6474722 C53.2464653,42.1752938 56.5084788,38.0188964 58.0995442,36.9218924 C59.6906095,35.8248885 62.6422655,36.9336043 62.6570661,36.6045114 C62.7424969,34.7049477 62.4045029,28.4364095 62.4883816,26.5724881 C62.6878258,22.1405151 62.5856671,13.5411911 61.3882367,7.75078192 C61.2990686,7.31959228 54.9654645,13.0277143 54.8655254,12.6140886 C54.7302441,12.0541898 60.681086,6.76261705 60.5251644,6.24240247 C59.4324663,2.59673955 57.8201545,0.0314998628 55.5092534,0.0314998628 C49.4238545,0.0314998628 40.0681035,10.5867441 34.0369021,25.3627142 C33.8725751,25.7653025 42.6958164,41.0397584 42.5365588,41.4484851 C42.3795782,41.8513678 33.2400248,27.388436 33.088227,27.7970357 C32.93761,28.2024569 33.0777563,29.9673311 32.8709982,30.6003475 C30.5325236,37.7598884 28.1842901,45.9401188 28.1842901,53.9351112 C28.1842901,60.1011714 28.4580744,65.9955919 28.9899163,71.4329848 C29.0724834,72.2771261 39.8137502,83.1593468 39.8137502,83.1593468 C39.8137502,83.1593468 29.5554738,74.0742878 29.6087213,74.4990682 C31.7304376,91.4250183 36.3380424,103.782079 43.2881585,103.782079 Z" id="Oval" fill="#D9F1F2" transform="translate(45.427659, 51.906790) rotate(37.000000) translate(-45.427659, -51.906790) "></path>
                            <path d="M77.9053418,21.6299553 C77.9053418,21.6299553 51.2641801,42.4540055 40.5919022,54.1918962 C29.9196243,65.929787 3.27846257,103.70823 3.27846257,103.70823" id="Path-2" stroke="#F3F4E9" stroke-width="10"></path>
                            <path d="M81.7439851,20.7436214 C81.7439851,20.7436214 57.4010459,38.6720524 47.6494211,48.7777698 C37.8977963,58.8834871 13.5548571,91.408774 13.5548571,91.408774" id="Path-2-Copy" stroke="#DAF1F3" stroke-width="9" transform="translate(47.649421, 56.076198) rotate(-1.000000) translate(-47.649421, -56.076198) "></path>
                        </g>
                        <g id="eye-left" transform="translate(59.687617, 41.200475)">
                            <mask id="mask-39" fill="white">
                                <use xlink:href="#path-38"></use>
                            </mask>
                            <use id="Mask" fill="#FFFFFF" xlink:href="#path-38"></use>
                            <ellipse id="Oval-3" fill="#000000" mask="url(#mask-39)" cx="2.97856833" cy="1.89523457" rx="1" ry="1"></ellipse>
                        </g>
                        <g id="Oval-3-Copy-2" transform="translate(66.319574, 41.200475)">
                            <mask id="mask-41" fill="white">
                                <use xlink:href="#path-40"></use>
                            </mask>
                            <use id="Mask" fill="#FFFFFF" xlink:href="#path-40"></use>
                            <ellipse id="Oval-3" fill="#000000" mask="url(#mask-41)" cx="3.42274095" cy="1.84874233" rx="1" ry="1"></ellipse>
                        </g>
                    </g>
                    <g id="feather-squished-a" transform="translate(118.976638, 120.201344) scale(-1, 1) rotate(-54.000000) translate(-118.976638, -120.201344) translate(62.976638, 56.201344)">
                        <g id="feather-body" transform="translate(0.000000, -0.000000)">
                            <path d="M53.0832269,127.570717 C59.8168008,127.570717 63.2786689,115.696944 66.5198989,101.224481 C66.6746541,100.533481 57.8653173,106.617972 58.0164705,105.908894 C58.1676237,105.199815 67.9004203,99.1734037 68.0523367,98.4272755 C70.078082,88.4779469 71.8227512,77.0268962 73.7971404,65.8216081 C75.2390254,57.6384516 78.5753701,43.5487672 76.5277852,46.9607639 C73.0388531,52.7745518 66.2898706,54.9966403 67.0998515,54.0433236 C67.5926714,53.4632934 67.2131238,47.6973349 69.1678922,46.3497608 C71.1226606,45.0021868 76.3025754,42.8541611 76.3207592,42.4498991 C76.4257187,40.1164501 76.5693932,35.0151046 76.6724458,32.725439 C76.9174811,27.2811451 76.7919699,16.7176223 75.3208178,9.60460738 C75.2112667,9.07492836 67.4298585,16.0868606 67.3070742,15.5787574 C67.1408689,14.8909703 74.4520189,8.39073265 74.2604551,7.75169422 C72.9179761,3.27331389 70.9371045,0.122139692 68.0979526,0.122139692 C60.621487,0.122139692 49.1270967,13.0883406 41.7172177,31.2393369 C41.515327,31.7338816 52.3554808,50.4972243 52.1598183,50.9993095 C51.9669534,51.494216 40.7381815,33.7277602 40.5516841,34.2296894 C40.3666374,34.7277142 52.3040313,52.7137004 52.1255614,53.2183435 C51.9470914,53.7229866 40.5388198,36.8957088 40.2847987,37.6733145 C37.4117701,46.4681888 34.5267519,56.5168916 34.5267519,66.3380454 C34.5267519,73.9125149 34.8631208,81.1532986 35.5165369,87.8326637 C35.6179781,88.869618 48.8146005,102.237481 48.8146005,102.237481 C48.8146005,102.237481 36.2113757,91.077275 36.276795,91.5990809 C38.8835163,112.391141 44.5443776,127.570717 53.0832269,127.570717 Z" id="Oval" fill="#E8F4F4" transform="translate(55.850944, 63.846428) rotate(37.000000) translate(-55.850944, -63.846428) "></path>
                            <path d="M95.6416016,26.5705218 C95.6416016,26.5705218 62.9105133,52.1510592 49.79865,66.5700387 C36.6867868,80.9890182 3.9556985,127.396555 3.9556985,127.396555" id="Path-2" stroke="#F3F4E9" stroke-width="12"></path>
                            <path d="M97.5809797,26.8636348 C97.5809797,26.8636348 68.9068447,48.6634987 57.4201707,60.9514263 C45.9334968,73.2393538 17.2593618,112.788092 17.2593618,112.788092" id="Path-2-Copy" stroke="#E9F4F5" stroke-width="13" transform="translate(57.420171, 69.825863) rotate(-1.000000) translate(-57.420171, -69.825863) "></path>
                        </g>
                        <g id="Oval-3" transform="translate(73.310378, 50.801406)">
                            <mask id="mask-43" fill="white">
                                <use xlink:href="#path-42"></use>
                            </mask>
                            <use id="Mask" fill="#FFFFFF" xlink:href="#path-42"></use>
                            <ellipse fill="#000000" mask="url(#mask-43)" cx="4.19503252" cy="3.83788009" rx="1.37725606" ry="1.37301098"></ellipse>
                        </g>
                        <g id="Oval-3-Copy" transform="translate(80.590160, 49.820684)">
                            <mask id="mask-45" fill="white">
                                <use xlink:href="#path-44"></use>
                            </mask>
                            <use id="Mask" fill="#FFFFFF" xlink:href="#path-44"></use>
                            <ellipse fill="#000000" mask="url(#mask-45)" cx="4.41403113" cy="3.32899636" rx="1.37725606" ry="1.37301098"></ellipse>
                        </g>
                    </g>
                </g>
            </g>
            <g id="fox-eating-egg" transform="translate(92.500000, 132.000000) scale(-1, 1) translate(-92.500000, -132.000000) translate(-48.000000, 0.000000)">
                <path d="M79,233 C79,225.820298 74.7467051,220 69.5,220 C64.2532949,220 60,225.820298 60,233" id="front-right-paw" fill="#000000"></path>
                <g id="bodytail" transform="translate(69.000000, 15.000000)">
                    <path d="M58.4364442,205.067612 L66.6267728,199.956852 C83.4943225,189.431512 94.2899845,165.044502 90.7373714,145.474892 L89.3973412,138.09332 C85.8457074,118.529105 89.4156993,87.895861 97.3681977,69.6787978 L94.3860336,76.5101443 C102.33985,58.2900621 123.213848,36.3230351 140.994322,27.4529442 L127.577838,34.1459844 C145.365069,25.2725231 175.765572,15.9513808 183.669035,14.8990858 L183.669035,14.8990858 L183.669035,14.8990858 C180.103878,27.8957599 171.062808,53.3298522 163.475658,71.7067112 L175.459144,42.6814739 C167.871807,61.058785 170.34192,89.5820292 180.970106,106.380142 L173.457387,94.5061026 C184.088345,111.308594 187.542914,140.19198 181.166796,159.038426 L182.94363,153.786483 C176.570461,172.624209 157.101306,195.319534 139.451721,204.481199 L139.800839,204.299976 C122.15409,213.460168 92.5020141,215.973061 73.563848,209.910365 L58.4364442,205.067612 Z" id="tail" fill="url(#linearGradient-1)" transform="translate(121.400962, 114.057379) rotate(-18.000000) translate(-121.400962, -114.057379) "></path>
                    <path d="M25.8211527,93.2481163 C25.8211527,93.2481163 77.7299406,136.022935 90.3740346,156.754935 C103.018129,177.486934 103.284611,220.261753 103.284611,220.261753 L0,220.261753 L25.8211527,93.2481163 Z" id="body" fill="url(#linearGradient-2)"></path>
                </g>
                <g id="foxhead" transform="translate(1.000000, 0.000000)">
                    <g id="foxheadbase" transform="translate(0.000000, 47.458713)">
                        <path d="M4.09212377,69.4712721 C10.2881975,56.5302944 37.2137301,48.7392287 88.8770891,51.4467907 C111.744029,52.6451962 127.339585,43.6473057 141.614142,44.9999338 C153.46918,46.1232933 171.369721,58.3556025 179.360481,63.6104692 C163.168474,67.0649749 138.441786,78.2382709 117.769763,87.8777935 C101.870087,95.2919341 88.5637332,104.32808 79.9158119,112.935616 C71.04234,103.278455 57.3653478,92.5685306 42.5578196,82.957857 C29.5312943,74.503125 15.7128103,70.3572562 4.09212377,69.4712721 Z" id="foxhead-bottom" fill="#F4E1DF" transform="translate(91.726303, 78.898301) rotate(7.000000) translate(-91.726303, -78.898301) "></path>
                        <path d="M195.927934,55.1852613 C189.377532,24.0012003 149.086133,0 100.359862,0 C61.1086154,0 27.3307934,15.5744778 12.2544629,37.9321168 C32.4487824,51.5521554 53.5196733,74.280516 70.7619819,102.976536 C72.3067732,105.547501 73.794842,108.123111 75.2257826,110.69932 C77.2347444,108.699127 79.2942468,106.714153 81.4029522,104.747753 C122.255036,66.6525688 168.773458,47.4653651 195.927935,55.1852635 Z" id="foxhead-top_left" fill="url(#radialGradient-46)"></path>
                    </g>
                    <g id="facial-features" transform="translate(28.450734, 0.000000)">
                        <ellipse id="nose" fill="#000000" transform="translate(45.532497, 153.599483) rotate(10.000000) translate(-45.532497, -153.599483) " cx="45.5324972" cy="153.599483" rx="6.43332446" ry="8.65800845"></ellipse>
                        <g id="eye-left" transform="translate(65.475803, 70.546736)">
                            <mask id="mask-48" fill="white">
                                <use xlink:href="#path-47"></use>
                            </mask>
                            <use id="Mask" fill="#F2EECE" xlink:href="#path-47"></use>
                            <ellipse id="pupil" stroke="#979797" fill="url(#radialGradient-49)" mask="url(#mask-48)" cx="13.1445685" cy="11.3439151" rx="6.43332446" ry="6.4133396"></ellipse>
                        </g>
                        <g id="eye-right" transform="translate(27.457429, 70.669872)">
                            <mask id="mask-51" fill="white">
                                <use xlink:href="#path-50"></use>
                            </mask>
                            <use id="Mask" fill="#F2EECE" xlink:href="#path-50"></use>
                            <ellipse id="pupil" stroke="#979797" fill="url(#radialGradient-49)" mask="url(#mask-51)" cx="13.1445685" cy="11.3439151" rx="6.43332446" ry="6.4133396"></ellipse>
                        </g>
                        <g id="whiskers" transform="translate(0.000000, 128.908126)" stroke="#0C0C0C">
                            <path d="M41.1732766,13.4680131 L1.28666489,23.7293565" id="Path-2"></path>
                            <path d="M40.5299441,8.33734147 L0.321666223,0.32066698" id="Path-2-Copy"></path>
                            <path d="M39.2432792,11.5440113 L0.643332446,16.6746829" id="Path-2-Copy-2"></path>
                            <path d="M103.576524,3.2066698 L64.9765771,8.33734147" id="Path-2-Copy-3"></path>
                            <path d="M96.8215332,19.5606858 L57.8999202,12.1853452" id="Path-2-Copy-5"></path>
                            <path d="M102.611525,14.4300141 L64.9765771,8.33734147" id="Path-2-Copy-4"></path>
                        </g>
                        <g id="rightear" transform="translate(102.031302, 36.069759) rotate(14.000000) translate(-102.031302, -36.069759) translate(82.531302, 10.069759)">
                            <polygon id="outterear" fill="url(#linearGradient-7)" points="19.2999734 9.15647855e-15 30.9807535 25.921313 38.5999468 51.3067168 -3.66259142e-14 51.3067168 7.90237245 25.1685143"></polygon>
                            <polygon id="innerear" fill="url(#linearGradient-8)" points="19.2999734 14.7506811 26.3324575 28.7141553 36.026617 51.3067168 3.21666223 51.3067168 12.1936163 29.4406014"></polygon>
                        </g>
                        <g id="leftear" transform="translate(59.198641, 28.587065) rotate(7.000000) translate(-59.198641, -28.587065) translate(39.698641, 2.587065)">
                            <polygon id="outterear" fill="url(#linearGradient-7)" points="19.2999734 9.15647855e-15 30.9807535 25.921313 38.5999468 51.3067168 0 51.3067168 7.90237245 25.1685143"></polygon>
                            <polygon id="innerear" fill="url(#linearGradient-8)" points="19.2999734 14.7506811 26.3324575 28.7141553 36.026617 51.3067168 3.21666223 51.3067168 12.1936163 29.4406014"></polygon>
                        </g>
                    </g>
                </g>
                <g id="backleg" transform="translate(116.000000, 183.000000)">
                    <path d="M33.5051546,0 L20.6185567,0 C13.5014852,0 7.73195876,5.77527237 7.73195876,12.8780229 L7.73195876,16.5314347 C7.73195876,23.6437704 12.0748859,33.2151836 17.4206201,37.8996737 L33.5051546,51.9946212" id="back-leg" stroke="#710B0B" stroke-width="3" stroke-linecap="square"></path>
                    <path d="M38.6597938,57.8440161 C38.6597938,50.665057 30.0055042,44.8453608 19.3298969,44.8453608 C8.65428963,44.8453608 0,50.665057 0,57.8440161" id="backfoot" fill="#000000"></path>
                </g>
                <path d="M88,242 C88,234.820298 83.7467051,229 78.5,229 C73.2532949,229 69,234.820298 69,242" id="front-left-paw" fill="#000000"></path>
                <g id="dedegghed" transform="translate(39.000000, 217.500000) scale(-1, -1) rotate(90.000000) translate(-39.000000, -217.500000) translate(-7.000000, 179.000000)">
                    <path d="M91.6753747,49.6633576 C87.3002179,24.0039963 72.9134496,0.0912031423 53.4524669,0.0912031423 C31.7281216,0.0912031423 15.4429727,29.8896873 14.1170602,58.6521112 C13.8779586,63.8388332 14.091587,68.9211462 14.7670164,73.7680402 L26.6290007,64.3622642 L43.080339,76.3499656 L61.792822,64.3622642 L81.3282782,64.3622642 L91.6753747,49.6633576 Z" id="small-egg-copy-4" fill="url(#radialGradient-52)"></path>
                    <g id="mouth" transform="translate(54.161619, 40.737466)">
                        <path d="M12.1169768,17.227312 C17.9923126,17.227312 30.6198037,9.6185157 30.6198037,9.6185157 C30.6198037,9.6185157 23.8679794,3.97145133 17.9926435,3.97145133 C12.1173076,3.97145133 9.34333039,9.6185157 9.34333039,9.6185157 C9.34333039,9.6185157 6.24164089,17.227312 12.1169768,17.227312 Z" id="Oval" stroke="#D95A5A" stroke-width="3" fill="#FFFFFF" transform="translate(19.572510, 10.599382) rotate(-24.000000) translate(-19.572510, -10.599382) "></path>
                        <path d="M6.89486691,20.6141743 C10.8019582,20.6141743 11.7978834,18.8660697 11.7978834,14.5311555 C11.7978834,11.7819566 11.1143769,10.7815866 8.95654998,10.7815866 C6.79872306,10.7815866 0.491185604,10.1962412 0.491185604,14.5311555 C0.491185604,18.8660697 2.98777566,20.6141743 6.89486691,20.6141743 Z" id="Oval-4" fill="#9A0A0A"></path>
                    </g>
                    <g id="Group" transform="translate(69.494029, 29.140681) rotate(-116.000000) translate(-69.494029, -29.140681) translate(63.994029, 24.140681)" stroke="#000000" stroke-width="3" stroke-linecap="square">
                        <path d="M0.0976772812,0.0981132075 L10.4514691,8.92830189" id="Line"></path>
                        <path d="M10.4514691,0.0981132075 L0.0976772812,8.92830189" id="Line-Copy-6"></path>
                    </g>
                    <g id="Group-Copy" transform="translate(57.029841, 35.905802) rotate(-112.000000) translate(-57.029841, -35.905802) translate(51.529841, 30.905802)" stroke="#000000" stroke-width="3" stroke-linecap="square">
                        <path d="M0.0976772812,0.0981132075 L10.4514691,8.92830189" id="Line"></path>
                        <path d="M0.0976772812,0.0981132075 L10.4514691,8.92830189" id="Line-Copy-6" transform="translate(5.274573, 4.513208) scale(-1, 1) translate(-5.274573, -4.513208) "></path>
                    </g>
                    <g id="eggblood1" transform="translate(34.094731, 54.759320) rotate(80.000000) translate(-34.094731, -54.759320) translate(17.094731, 23.759320)">
                        <path d="M16.0988263,60.6612112 C23.4972407,61.9715733 30.5561508,62.0023494 32.6562474,58.5147495 C34.5069423,55.4413272 31.8175743,49.3405198 31.8175743,43.1291746 C31.8175743,40.6058935 28.9582559,36.0205959 28.5841973,32.7439 C28.2101388,29.4672041 25.208043,2.05229043 22.6385531,0.363449969 C19.1773466,2.79782898 11.9682957,20.821249 6.3453318,35.5702792 C4.10861588,41.4371834 1.38570591,49.4209935 0.780413814,52.8690958 C-2.53627638,57.3606752 7.71703257,59.1766789 16.0988263,60.6612112 Z" id="Oval-7" fill="#F9F9DD"></path>
                        <path d="M17.4440133,31.1499815 C18.6544818,31.1499815 19.2788866,29.7574442 20.0246115,27.677537 C20.4823939,26.4007326 21.3511045,24.7937118 21.3511045,23.3009249 C21.3511045,22.2378522 20.2724678,20.5576922 20.0246115,19.572623 C19.3574608,16.9211281 18.8683842,15.4518683 17.4440133,15.4518683 C16.2406967,15.4518683 15.0373801,16.9408871 14.2906179,19.0017405 C13.8250359,20.286616 12.9508583,21.7937704 12.9508583,23.3009249 C12.9508583,24.8384602 14.4221838,26.3759954 14.904404,27.677537 C15.6530413,29.6981546 16.2558196,31.1499815 17.4440133,31.1499815 Z" id="Oval-6" fill="#E5950B"></path>
                        <path d="M20.6107363,48.5500398 C20.8662428,48.1673631 21.3511045,47.6857158 21.3511045,47.238306 C21.3511045,46.9196878 20.7490747,46.4161196 20.6107363,46.1208802 C20.2383731,45.3261889 19.9654002,44.8858306 19.1704024,44.8858306 C18.4987839,44.8858306 17.8271653,45.332111 17.4103678,45.9497785 C17.1505081,46.3348742 16.662595,46.7865901 16.662595,47.238306 C16.662595,47.6991275 17.1412217,50.2593047 17.4103678,50.6493954 C17.8282119,51.2550037 20.1945178,49.173418 20.6107363,48.5500398 Z" id="Oval-6-Copy" fill="#E5950B"></path>
                        <path d="M22.6671516,57.0959129 C22.7523205,56.968354 22.913941,56.8078049 22.913941,56.6586683 C22.913941,56.5524622 22.7132644,56.3846062 22.6671516,56.286193 C22.5430306,56.0212959 22.4520396,55.8745098 22.1870403,55.8745098 C21.9631675,55.8745098 21.7392946,56.0232699 21.6003621,56.2291591 C21.5137422,56.3575243 21.3511045,56.5080963 21.3511045,56.6586683 C21.3511045,56.8122755 21.5106467,57.6656678 21.6003621,57.7956981 C21.6605786,57.8829737 21.9345225,58.7575919 22.1325228,58.6216796 C22.330523,58.4857673 22.5883943,57.2138691 22.6671516,57.0959129 Z" id="Oval-6-Copy-2" fill="#E5950B"></path>
                    </g>
                </g>
                <g id="dedeggbutt" transform="translate(100.000000, 174.000000)">
                    <path d="M0.0627793246,27.6904794 C3.58994787,52.9798903 18.0786885,72.6860337 44.5077105,72.6860337 C76.751193,72.6860337 92.2382201,43.355272 89.6993632,10.3389256 C89.434851,6.89909963 89.0058339,3.44636436 88.4212356,0.0207477319 L67.5561097,18.6955864 L49.6009975,14.1906258 L31.6458853,32.2104681 L9.20199501,18.6955864 L0.0627793246,27.6904794 Z" id="small-egg-copy-5" fill="url(#radialGradient-53)"></path>
                    <g id="eggblood1-copy" transform="translate(45.163086, 48.781054) scale(-1, 1) rotate(80.000000) translate(-45.163086, -48.781054) translate(18.163086, 30.281054)">
                        <path d="M33.3161016,25.1739738 C41.0373358,29.5595063 40.1552556,37.4440681 49.3856303,36.0665815 C50.0688362,32.1672727 50.7745109,28.1397265 52.2892556,19.494519 C56.8979643,-0.795521214 46.5236512,4.50246268 32.9428787,4.50246268 C26.0705628,4.50246268 19.3727537,1.22356752 12.8290775,2.44099256 C7.30255471,5.48085969 0.124162635,9.27764385 0.124162635,12.2481473 C0.124162635,18.2617111 21.4920846,18.5527029 33.3161016,25.1739738 Z" id="Oval-8" fill="#F9F9DD"></path>
                        <path d="M22.2065887,14.3263531 C23.4020848,14.3263531 24.0529148,8.41538232 24.7894159,6.35731536 C25.2415359,5.09391815 25.0548709,4.01408785 25.0548709,2.53697611 C25.0548709,1.48506631 25.0342064,-0.687766871 24.7894159,-1.66249228 C24.1305172,-4.28614494 23.8550538,-4.51000731 22.448301,-4.51000731 C21.2598682,-4.51000731 19.8638718,-4.26659345 19.1263464,-2.22738019 C18.6665232,-0.955996646 17.8031584,0.535331801 17.8031584,2.02666025 C17.8031584,3.54805048 19.2562849,5.06944071 19.7325405,6.35731536 C20.4719178,8.35671527 21.0330918,14.3263531 22.2065887,14.3263531 Z" id="Oval-6" fill="#E5950B" transform="translate(21.448106, 4.908173) rotate(-84.000000) translate(-21.448106, -4.908173) "></path>
                        <path d="M50.49584,29.7302047 C50.748186,29.3515463 51.5206489,24.3239531 51.5206489,23.8812414 C51.5206489,23.5659689 47.0324443,24.2517044 46.24728,24.2517044 C45.5839687,24.2517044 44.9206574,24.6932986 44.5090153,25.3044803 C44.2523698,25.6855322 43.7704918,26.1325049 43.7704918,26.5794775 C43.7704918,27.0354601 45.2640186,27.9604297 45.5298357,28.3464243 C45.9425114,28.9456733 50.0847696,30.347037 50.49584,29.7302047 Z" id="Oval-6-Copy" fill="#E5950B"></path>
                        <path d="M5.13523439,12.0632432 C5.13523439,11.8576979 4.43372235,9.08113458 3.92182598,9.08113458 C3.48937304,9.08113458 2.86618175,10.8335285 2.59780726,11.231995 C2.43048445,11.4804259 2.11631887,11.7718346 2.11631887,12.0632432 C2.11631887,12.360526 2.42450496,14.0121342 2.59780726,14.2637875 C2.71412685,14.4326959 3.2433015,16.1253834 3.62577663,15.8623463 C4.00825176,15.5993091 5.13523439,12.3518739 5.13523439,12.0632432 Z" id="Oval-6-Copy-2" fill="#E5950B" transform="translate(3.625777, 12.485590) scale(-1, -1) rotate(275.000000) translate(-3.625777, -12.485590) "></path>
                    </g>
                </g>
            </g>
        </g>
    </g>
</svg>