<?xml version="1.0" encoding="UTF-8" standalone="no"?>
<svg width="400px" height="300px" viewBox="0 0 400 300" version="1.1" xmlns="http://www.w3.org/2000/svg" xmlns:xlink="http://www.w3.org/1999/xlink">
    <!-- Generator: Sketch 46.2 (44496) - http://www.bohemiancoding.com/sketch -->
    <title>Dribble</title>
    <desc>Created with Sketch.</desc>
    <defs>
        <radialGradient cx="50%" cy="50%" fx="50%" fy="50%" r="59.6208244%" id="radialGradient-1">
            <stop stop-color="#FFFFFF" offset="0%"></stop>
            <stop stop-color="#000000" offset="100%"></stop>
        </radialGradient>
        <radialGradient cx="50%" cy="50%" fx="50%" fy="50%" r="71.7807112%" id="radialGradient-2">
            <stop stop-color="#FFFFFF" offset="0%"></stop>
            <stop stop-color="#000000" offset="100%"></stop>
        </radialGradient>
        <path d="M142.5,88 C123.446176,88 108,72.5538239 108,53.5 C108,34.4461761 123.446176,19 142.5,19 C161.553824,19 177,34.4461761 177,53.5 C177,72.5538239 161.553824,88 142.5,88 Z M141.715909,69.1818182 C150.80978,69.1818182 158.181818,61.8097796 158.181818,52.7159091 C158.181818,43.6220386 150.80978,36.25 141.715909,36.25 C132.622039,36.25 125.25,43.6220386 125.25,52.7159091 C125.25,61.8097796 132.622039,69.1818182 141.715909,69.1818182 Z" id="path-3"></path>
        <path d="M233.5,239 C214.446176,239 199,223.553824 199,204.5 C199,185.446176 214.446176,170 233.5,170 C252.553824,170 268,185.446176 268,204.5 C268,223.553824 252.553824,239 233.5,239 Z M232.715909,220.181818 C241.80978,220.181818 249.181818,212.80978 249.181818,203.715909 C249.181818,194.622039 241.80978,187.25 232.715909,187.25 C223.622039,187.25 216.25,194.622039 216.25,203.715909 C216.25,212.80978 223.622039,220.181818 232.715909,220.181818 Z" id="path-4"></path>
        <path d="M54.5,239 C35.4461761,239 20,223.553824 20,204.5 C20,185.446176 35.4461761,170 54.5,170 C73.5538239,170 89,185.446176 89,204.5 C89,223.553824 73.5538239,239 54.5,239 Z M53.7159091,220.181818 C62.8097796,220.181818 70.1818182,212.80978 70.1818182,203.715909 C70.1818182,194.622039 62.8097796,187.25 53.7159091,187.25 C44.6220386,187.25 37.25,194.622039 37.25,203.715909 C37.25,212.80978 44.6220386,220.181818 53.7159091,220.181818 Z" id="path-5"></path>
    </defs>
    <g id="Page-1" stroke="none" stroke-width="1" fill="none" fill-rule="evenodd">
        <g id="Dribble">
            <g id="fidget" transform="translate(56.000000, 21.000000)">
                <path d="M97.750862,90.4948111 C90.6159621,81.036614 86.3858696,69.2665476 86.3858696,56.5090909 C86.3858696,25.2999818 111.701247,0 142.929348,0 C174.157449,0 199.472826,25.2999818 199.472826,56.5090909 C199.472826,68.049443 196.011362,78.7818186 190.069447,87.7258026 C186.78131,103.710199 184.35645,117.758808 190.671873,126.02114 C203.717677,143.088685 216.986569,143.006515 231.109983,145.997527 C231.557562,145.987074 232.006428,145.981818 232.456522,145.981818 C263.684622,145.981818 289,171.2818 289,202.490909 C289,206.574302 288.566625,210.556536 287.743334,214.394179 C288.140747,215.421013 288.539258,216.460753 288.938867,217.5134 C288.174871,217.888112 287.415672,218.259292 286.661269,218.626942 C279.71308,241.973985 258.07433,259 232.456522,259 C204.392959,259 181.104492,238.567822 176.672746,211.776528 C171.106981,200.460866 163.617746,190.490617 147.580172,189.099432 C126.743907,187.291982 118.944698,198.079244 112.376969,211.470769 C108.072469,238.41221 84.7137046,259 56.5434783,259 C25.3153775,259 0,233.700018 0,202.490909 C0,171.397811 25.1275224,146.16999 56.1954805,145.982866 C74.9589172,139.411718 92.8606763,140.304953 98.9865862,122.447094 C102.55901,112.032993 100.498599,101.43812 97.7508787,90.4948333 Z M54.1875,219.757576 C63.2956961,219.757576 70.6793478,212.378414 70.6793478,203.275758 C70.6793478,194.173101 63.2956961,186.793939 54.1875,186.793939 C45.0793039,186.793939 37.6956522,194.173101 37.6956522,203.275758 C37.6956522,212.378414 45.0793039,219.757576 54.1875,219.757576 Z M142.144022,69.0666667 C151.252218,69.0666667 158.63587,61.6875053 158.63587,52.5848485 C158.63587,43.4821917 151.252218,36.1030303 142.144022,36.1030303 C133.035826,36.1030303 125.652174,43.4821917 125.652174,52.5848485 C125.652174,61.6875053 133.035826,69.0666667 142.144022,69.0666667 Z M233.241848,219.757576 C242.350044,219.757576 249.733696,212.378414 249.733696,203.275758 C249.733696,194.173101 242.350044,186.793939 233.241848,186.793939 C224.133652,186.793939 216.75,194.173101 216.75,203.275758 C216.75,212.378414 224.133652,219.757576 233.241848,219.757576 Z" id="Combined-Shape" fill="#07680C"></path>
                <g id="Combined-Shape">
                    <use fill="url(#radialGradient-1)" fill-rule="evenodd" xlink:href="#path-3"></use>
                    <path stroke="url(#radialGradient-2)" stroke-width="3" d="M142.5,86.5 C160.725397,86.5 175.5,71.7253967 175.5,53.5 C175.5,35.2746033 160.725397,20.5 142.5,20.5 C124.274603,20.5 109.5,35.2746033 109.5,53.5 C109.5,71.7253967 124.274603,86.5 142.5,86.5 Z M141.715909,70.6818182 C131.793611,70.6818182 123.75,62.6382067 123.75,52.7159091 C123.75,42.7936115 131.793611,34.75 141.715909,34.75 C151.638207,34.75 159.681818,42.7936115 159.681818,52.7159091 C159.681818,62.6382067 151.638207,70.6818182 141.715909,70.6818182 Z"></path>
                </g>
                <g id="Combined-Shape-Copy-2">
                    <use fill="url(#radialGradient-1)" fill-rule="evenodd" xlink:href="#path-4"></use>
                    <path stroke="url(#radialGradient-2)" stroke-width="3" d="M233.5,237.5 C251.725397,237.5 266.5,222.725397 266.5,204.5 C266.5,186.274603 251.725397,171.5 233.5,171.5 C215.274603,171.5 200.5,186.274603 200.5,204.5 C200.5,222.725397 215.274603,237.5 233.5,237.5 Z M232.715909,221.681818 C222.793611,221.681818 214.75,213.638207 214.75,203.715909 C214.75,193.793611 222.793611,185.75 232.715909,185.75 C242.638207,185.75 250.681818,193.793611 250.681818,203.715909 C250.681818,213.638207 242.638207,221.681818 232.715909,221.681818 Z"></path>
                </g>
                <g id="Combined-Shape-Copy">
                    <use fill="url(#radialGradient-1)" fill-rule="evenodd" xlink:href="#path-5"></use>
                    <path stroke="url(#radialGradient-2)" stroke-width="3" d="M54.5,237.5 C72.7253967,237.5 87.5,222.725397 87.5,204.5 C87.5,186.274603 72.7253967,171.5 54.5,171.5 C36.2746033,171.5 21.5,186.274603 21.5,204.5 C21.5,222.725397 36.2746033,237.5 54.5,237.5 Z M53.7159091,221.681818 C43.7936115,221.681818 35.75,213.638207 35.75,203.715909 C35.75,193.793611 43.7936115,185.75 53.7159091,185.75 C63.6382067,185.75 71.6818182,193.793611 71.6818182,203.715909 C71.6818182,213.638207 63.6382067,221.681818 53.7159091,221.681818 Z"></path>
                </g>
            </g>
        </g>
    </g>
</svg>