<?xml version="1.0" encoding="UTF-8" standalone="no"?>
<svg width="408px" height="482px" viewBox="0 0 408 482" version="1.1" xmlns="http://www.w3.org/2000/svg" xmlns:xlink="http://www.w3.org/1999/xlink">
    <!-- Generator: Sketch 46.2 (44496) - http://www.bohemiancoding.com/sketch -->
    <title>gallows10 copy</title>
    <desc>Created with Sketch.</desc>
    <defs>
        <linearGradient x1="50%" y1="0%" x2="50%" y2="40.2557902%" id="linearGradient-1">
            <stop stop-color="#FFFFFF" stop-opacity="0.870527627" offset="0%"></stop>
            <stop stop-color="#73D0F3" stop-opacity="0.5" offset="100%"></stop>
        </linearGradient>
        <linearGradient x1="142.798048%" y1="-12.9009136%" x2="68.7540401%" y2="32.3965821%" id="linearGradient-2">
            <stop stop-color="#E09504" offset="0%"></stop>
            <stop stop-color="#000000" stop-opacity="0.5" offset="100%"></stop>
        </linearGradient>
        <rect id="path-3" x="0" y="0" width="408" height="394.308475"></rect>
        <linearGradient x1="57.6150891%" y1="136.850435%" x2="33.3287788%" y2="-54.4536791%" id="linearGradient-4">
            <stop stop-color="#FFFFFF" stop-opacity="0" offset="0%"></stop>
            <stop stop-color="#000000" stop-opacity="0.5" offset="100%"></stop>
        </linearGradient>
        <rect id="path-5" x="0" y="394.308475" width="408" height="191.691525"></rect>
        <linearGradient x1="0%" y1="68.0856764%" x2="100%" y2="68.0856785%" id="linearGradient-6">
            <stop stop-color="#608293" stop-opacity="0.5" offset="0%"></stop>
            <stop stop-color="#C2CACE" stop-opacity="0.350656703" offset="49.2629929%"></stop>
            <stop stop-color="#608293" stop-opacity="0.5" offset="100%"></stop>
        </linearGradient>
        <path d="M245,113.626432 L245,87 L255,87 L255,113.196895 C260.612455,118.44091 265,124.167292 265,132.692799 C265,143.636848 259.751953,149.923873 250,149.999344 C240.248047,150.074815 235,143.636848 235,132.692799 C235,124.400344 239.780305,118.753816 245,113.626432 Z M250.5,141.035722 C254.642136,141.035722 258,136.873256 258,132.769238 C258,128.66522 254.642136,122.668714 250.5,122.668714 C246.357864,122.668714 243,128.66522 243,132.769238 C243,136.873256 246.357864,141.035722 250.5,141.035722 Z" id="path-7"></path>
        <linearGradient x1="74.0702391%" y1="14.804847%" x2="74.0702384%" y2="0%" id="linearGradient-8">
            <stop stop-color="#AA5042" stop-opacity="0.5" offset="0%"></stop>
            <stop stop-color="#000000" stop-opacity="0.361611187" offset="100%"></stop>
        </linearGradient>
        <linearGradient x1="8.25220481%" y1="75.5851984%" x2="0%" y2="75.5851963%" id="linearGradient-9">
            <stop stop-color="#AA5042" stop-opacity="0.166411911" offset="0%"></stop>
            <stop stop-color="#000000" stop-opacity="0.31456635" offset="100%"></stop>
        </linearGradient>
        <polygon id="path-10" points="30.6648649 81.4238876 84.5756757 31.6738372 133.282224 31.6738372 30.6648649 126.846508"></polygon>
        <linearGradient x1="5.13858006%" y1="50%" x2="0%" y2="50%" id="linearGradient-11">
            <stop stop-color="#AA5042" stop-opacity="0.224920743" offset="0%"></stop>
            <stop stop-color="#000000" stop-opacity="0.211956522" offset="100%"></stop>
        </linearGradient>
        <rect id="path-12" x="30.6648649" y="0" width="152.335135" height="31.7751756"></rect>
        <linearGradient x1="43.3925514%" y1="100%" x2="43.3925509%" y2="0%" id="linearGradient-13">
            <stop stop-color="#AA5042" stop-opacity="0.5" offset="0%"></stop>
            <stop stop-color="#000000" stop-opacity="0.5" offset="100%"></stop>
        </linearGradient>
        <rect id="path-14" x="6.93396226" y="7" width="301.132075" height="30"></rect>
    </defs>
    <g id="Page-1" stroke="none" stroke-width="1" fill="none" fill-rule="evenodd">
        <g id="Dribble" transform="translate(-196.000000, -74.000000)">
            <g id="gallows10-copy" transform="translate(196.000000, 7.000000)">
                <g id="backdrop-copy-2">
                    <g id="sky">
                        <use fill="#C9E6F4" xlink:href="#path-3"></use>
                        <use fill="url(#linearGradient-1)" xlink:href="#path-3"></use>
                        <use fill="url(#linearGradient-2)" xlink:href="#path-3"></use>
                    </g>
                    <g id="sand">
                        <use fill="#F5CF96" xlink:href="#path-5"></use>
                        <use fill="url(#linearGradient-4)" xlink:href="#path-5"></use>
                    </g>
                </g>
                <path d="M132.181391,235 L132.5,235 L132.5,235 C134.432997,235 136,236.567003 136,238.5 L136,246.395995 L136,246.395995 C136,248.296319 135.323535,250.134586 134.091739,251.581621 L126.5,260.499906 L132.580745,269.690026 L132.580745,269.690026 C133.447046,270.999308 133.908969,272.534545 133.908969,274.10448 L133.908969,282.5 L133.908969,282.5 C133.908969,284.432997 132.341965,286 130.408969,286 L130.000005,286 L130.000005,286 C128.067008,286 126.500005,284.432997 126.500005,282.5 L126.500005,271.697435 L117,260.499906 L128.681391,249.339919 L128.681391,238.5 L128.681391,238.5 C128.681391,236.567003 130.248394,235 132.181391,235 Z" id="Rectangle-5" fill="#869EAA"></path>
                <g id="body" transform="translate(157.000000, 232.000000)" stroke="#FFA604" stroke-width="7" stroke-linecap="round">
                    <path d="M109.5,0.496031746 L109.5,145.833333" id="Line-4"></path>
                    <polyline id="Line-6" points="108.40113 42.6666667 82.2683616 87.5846664 32.8305085 107.150794"></polyline>
                    <polyline id="Line-6-Copy" transform="translate(128.282486, 88.346629) scale(-1, 1) translate(-128.282486, -88.346629) " points="147.175141 41.6666667 109.389831 73.9087302 127.601123 135.026592"></polyline>
                    <ellipse id="Oval-3" cx="14.9152542" cy="107.638889" rx="14.9152542" ry="7.44047619"></ellipse>
                    <ellipse id="Oval-3-Copy" transform="translate(133.358308, 148.503316) rotate(-120.000000) translate(-133.358308, -148.503316) " cx="133.358308" cy="148.503316" rx="14.9152542" ry="7.44047619"></ellipse>
                    <path d="M36.1124166,222.962727 L60.3732255,228.949771 L60.3732255,228.949771 C61.9818222,229.346738 63.6076527,228.364518 64.0046197,226.755922 C64.0464241,226.586521 64.0733701,226.413796 64.0851514,226.239712 L67.4691914,176.235623 L107.150953,145.109631" id="Line-5"></path>
                    <path d="M91.8037825,240.966809 L118.830768,238.271222 L118.830768,238.271222 C120.287979,238.125884 121.427308,236.949693 121.526189,235.488595 L124.980316,184.448864 L164.662078,153.322872" id="Line-5-Copy" transform="translate(128.232930, 197.144840) scale(-1, 1) rotate(-17.000000) translate(-128.232930, -197.144840) "></path>
                </g>
                <g id="ropesource" transform="translate(115.000000, 136.000000)" stroke="#F5CF96" stroke-width="6" stroke-linecap="round">
                    <path d="M13.0849138,91.572668 C5.35879471,99.2854378 1.46978609,104.730593 1.41788793,107.908134 C1.39195855,109.495699 -0.164062946,120.281462 1.41788793,139.580206 C2.19616848,149.074708 4.51246871,138.159451 8.36678862,106.834435 C9.28447843,99.3761421 7.94576441,129.570333 4.35064655,197.417007" id="Line-Copy"></path>
                    <path d="M143.489871,4.9049152 C139.354701,1.92968108 136.36052,0.502319668 134.507328,0.622830952 C126.777347,1.12550403 121.040428,7.01442935 117.721552,9.35315248 C67.354564,44.8454173 35.1014597,70.8159063 27.2075431,77.7984846 C18.2528017,85.7194174 11.4737069,92.5397888 6.87025862,98.2595988" id="Line-3"></path>
                </g>
                <g id="pin">
                    <use fill="#869EAA" xlink:href="#path-7"></use>
                    <use fill="url(#linearGradient-6)" xlink:href="#path-7"></use>
                </g>
                <g id="noose" transform="translate(243.000000, 137.000000)" stroke="#F5CF96" stroke-width="6" stroke-linecap="round">
                    <path d="M6.74023437,0.4091889 C13.1510417,1.62321271 16.7832923,3.64997144 17.6369864,6.4894651 C18.4906804,9.32895876 18.3343412,21.2987821 17.1679688,42.398935 C7.7109375,55.6348578 2.23307292,65.5843713 0.734375,72.2474757 C-1.51367187,82.2421322 3.1743634,104.427329 17.6369864,104.427329 C32.0996094,104.427329 39.0235324,84.0802157 34.7207031,72.2474757 C31.8521503,64.3589824 27.410093,54.4094688 21.3945313,42.398935" id="Line"></path>
                    <path d="M11,19.8113208 L26.5,19.8113208" id="Line-2"></path>
                    <path d="M9,24.7641509 L27.5,24.7641509" id="Line-2-Copy"></path>
                    <path d="M9,29.7169811 L27.5,29.7169811" id="Line-2-Copy-2"></path>
                    <path d="M9,34.6698113 L27.5,34.6698113" id="Line-2-Copy-3"></path>
                    <path d="M9,34.6698113 L27.5,34.6698113" id="Line-2-Copy-4"></path>
                    <path d="M12,39.6226415 L25.5,39.6226415" id="Line-2-Copy-5"></path>
                </g>
                <g id="head" transform="translate(237.000000, 153.000000)">
                    <ellipse id="Oval-4" fill="#FFA604" transform="translate(42.950451, 47.817089) rotate(22.000000) translate(-42.950451, -47.817089) " cx="42.9504508" cy="47.817089" rx="30.3929173" ry="38.2754445"></ellipse>
                    <path d="M22.9041585,46.7216561 L33.9118274,73.35966" id="Line-7-Copy-2" stroke="#0C0C0B" stroke-width="2" stroke-linecap="square"></path>
                    <g id="x" transform="translate(23.000000, 19.000000)" stroke="#0C0C0B" stroke-width="2" stroke-linecap="square">
                        <path d="M15,0 L15,27" id="Line-7"></path>
                        <path d="M14,0 L14,27" id="Line-7-Copy" transform="translate(14.000000, 14.000000) rotate(-75.000000) translate(-14.000000, -14.000000) "></path>
                    </g>
                    <g id="x2" transform="translate(41.000000, 39.000000)" stroke="#0C0C0B" stroke-width="2" stroke-linecap="square">
                        <path d="M15,0 L15,27" id="Line-7"></path>
                        <path d="M14,0 L14,27" id="Line-7-Copy" transform="translate(14.000000, 14.000000) rotate(-75.000000) translate(-14.000000, -14.000000) "></path>
                    </g>
                </g>
                <g id="stand" transform="translate(83.000000, 74.000000)">
                    <rect id="Rectangle" fill="#AA5042" x="0" y="0" width="30.6648649" height="424"></rect>
                    <g id="Rectangle-3">
                        <use fill="#AA5042" xlink:href="#path-10"></use>
                        <use fill="url(#linearGradient-8)" xlink:href="#path-10"></use>
                        <use fill="url(#linearGradient-9)" xlink:href="#path-10"></use>
                    </g>
                    <g id="Rectangle-2">
                        <use fill="#AA5042" xlink:href="#path-12"></use>
                        <use fill="url(#linearGradient-11)" xlink:href="#path-12"></use>
                    </g>
                </g>
                <g id="gallowsbase" transform="translate(45.000000, 498.000000)">
                    <rect id="gallows-base-top" fill="#AA5042" x="0" y="0" width="315" height="7"></rect>
                    <g id="gallows-base">
                        <use fill="#AA5042" xlink:href="#path-14"></use>
                        <use fill="url(#linearGradient-13)" xlink:href="#path-14"></use>
                    </g>
                </g>
            </g>
        </g>
    </g>
</svg>