<?xml version="1.0" encoding="UTF-8" standalone="no"?>
<svg width="800px" height="600px" viewBox="0 0 800 600" version="1.1" xmlns="http://www.w3.org/2000/svg" xmlns:xlink="http://www.w3.org/1999/xlink" style="background: #EEEDBD;">
    <!-- Generator: Sketch 46.2 (44496) - http://www.bohemiancoding.com/sketch -->
    <title>Dribble Copy</title>
    <desc>Created with Sketch.</desc>
    <defs>
        <radialGradient cx="50%" cy="50%" fx="50%" fy="50%" r="100%" gradientTransform="translate(0.500000,0.500000),scale(0.866716,1.000000),rotate(90.000000),translate(-0.500000,-0.500000)" id="radialGradient-1">
            <stop stop-color="#FFFFFF" stop-opacity="0.364724864" offset="0%"></stop>
            <stop stop-color="#D2F3ED" offset="100%"></stop>
        </radialGradient>
        <radialGradient cx="50%" cy="50%" fx="50%" fy="50%" r="100%" gradientTransform="translate(0.500000,0.500000),scale(0.477042,1.000000),rotate(90.000000),translate(-0.500000,-0.500000)" id="radialGradient-2">
            <stop stop-color="#FFFFFF" stop-opacity="0.364724864" offset="0%"></stop>
            <stop stop-color="#D2F3ED" offset="100%"></stop>
        </radialGradient>
        <radialGradient cx="50%" cy="50%" fx="50%" fy="50%" r="100%" gradientTransform="translate(0.500000,0.500000),scale(0.832173,1.000000),rotate(90.000000),translate(-0.500000,-0.500000)" id="radialGradient-3">
            <stop stop-color="#FFFFFF" stop-opacity="0.364724864" offset="0%"></stop>
            <stop stop-color="#D2F3ED" offset="100%"></stop>
        </radialGradient>
        <radialGradient cx="50%" cy="50%" fx="50%" fy="50%" r="100%" gradientTransform="translate(0.500000,0.500000),scale(0.534139,1.000000),rotate(90.000000),translate(-0.500000,-0.500000)" id="radialGradient-4">
            <stop stop-color="#FFFFFF" stop-opacity="0.364724864" offset="0%"></stop>
            <stop stop-color="#D2F3ED" offset="100%"></stop>
        </radialGradient>
        <radialGradient cx="50%" cy="50%" fx="50%" fy="50%" r="100%" gradientTransform="translate(0.500000,0.500000),scale(0.298796,1.000000),rotate(90.000000),translate(-0.500000,-0.500000)" id="radialGradient-5">
            <stop stop-color="#FFFFFF" stop-opacity="0.364724864" offset="0%"></stop>
            <stop stop-color="#D2F3ED" offset="100%"></stop>
        </radialGradient>
        <radialGradient cx="50%" cy="50%" fx="50%" fy="50%" r="100%" gradientTransform="translate(0.500000,0.500000),scale(0.519823,1.000000),rotate(90.000000),translate(-0.500000,-0.500000)" id="radialGradient-6">
            <stop stop-color="#FFFFFF" stop-opacity="0.364724864" offset="0%"></stop>
            <stop stop-color="#D2F3ED" offset="100%"></stop>
        </radialGradient>
        <linearGradient x1="0%" y1="68.0856764%" x2="100%" y2="68.0856785%" id="linearGradient-7">
            <stop stop-color="#608293" stop-opacity="0.5" offset="0%"></stop>
            <stop stop-color="#C2CACE" stop-opacity="0.350656703" offset="49.2629929%"></stop>
            <stop stop-color="#608293" stop-opacity="0.5" offset="100%"></stop>
        </linearGradient>
        <path d="M157.12093,29.6949921 L157.12093,9.22528662 L164.84186,9.22528662 L164.84186,29.364775 C169.175198,33.3962368 172.562791,37.7985303 172.562791,44.3527175 C172.562791,52.766216 168.51081,57.5995168 160.981395,57.6575369 C153.45198,57.715557 149.4,52.766216 149.4,44.3527175 C149.4,37.9776947 153.09084,33.6367908 157.12093,29.6949921 Z M161.367442,50.7665383 C164.565556,50.7665383 167.15814,47.5665433 167.15814,44.4114814 C167.15814,41.2564195 164.565556,36.6464625 161.367442,36.6464625 C158.169328,36.6464625 155.576744,41.2564195 155.576744,44.4114814 C155.576744,47.5665433 158.169328,50.7665383 161.367442,50.7665383 Z" id="path-8"></path>
        <linearGradient x1="74.0702391%" y1="14.804847%" x2="74.0702384%" y2="0%" id="linearGradient-9">
            <stop stop-color="#AA5042" stop-opacity="0.5" offset="0%"></stop>
            <stop stop-color="#000000" stop-opacity="0.361611187" offset="100%"></stop>
        </linearGradient>
        <linearGradient x1="8.25220481%" y1="75.5851984%" x2="0%" y2="75.5851963%" id="linearGradient-10">
            <stop stop-color="#AA5042" stop-opacity="0.166411911" offset="0%"></stop>
            <stop stop-color="#000000" stop-opacity="0.31456635" offset="100%"></stop>
        </linearGradient>
        <polygon id="path-11" points="24.2583281 63.9990756 66.9060339 24.8955971 105.436758 24.8955971 24.2583281 99.7011998"></polygon>
        <linearGradient x1="5.13858006%" y1="50%" x2="0%" y2="50%" id="linearGradient-12">
            <stop stop-color="#AA5042" stop-opacity="0.224920743" offset="0%"></stop>
            <stop stop-color="#000000" stop-opacity="0.211956522" offset="100%"></stop>
        </linearGradient>
        <rect id="path-13" x="24.2583281" y="0" width="120.509114" height="24.975249"></rect>
        <linearGradient x1="43.3925514%" y1="100%" x2="43.3925509%" y2="0%" id="linearGradient-14">
            <stop stop-color="#AA5042" stop-opacity="0.5" offset="0%"></stop>
            <stop stop-color="#000000" stop-opacity="0.5" offset="100%"></stop>
        </linearGradient>
        <rect id="path-15" x="5.48113208" y="5.45413905" width="238.037736" height="23.3748816"></rect>
        <linearGradient x1="50%" y1="0%" x2="50%" y2="66.4257812%" id="linearGradient-16">
            <stop stop-color="#79756C" stop-opacity="0.5" offset="0%"></stop>
            <stop stop-color="#F3E0E0" stop-opacity="0.5" offset="100%"></stop>
        </linearGradient>
        <ellipse id="path-17" cx="12.7056962" cy="6.92420538" rx="12.7056962" ry="5.77017115"></ellipse>
        <rect id="path-18" x="409" y="27" width="367" height="273"></rect>
    </defs>
    <g id="Page-1" stroke="none" stroke-width="1" fill="none" fill-rule="evenodd">
        <g id="Dribble-Copy">
            <g id="Group" transform="translate(24.000000, 27.000000)">
                <g id="backdrop">
                    <rect id="Rectangle-6" fill="#B3ECEC" x="0.908415842" y="0" width="365.183168" height="472"></rect>
                    <rect id="Rectangle" fill="#ACCF85" x="0.908415842" y="270.04401" width="365.183168" height="201.95599"></rect>
                    <g id="cloud" transform="translate(178.877428, 8.078240)">
                        <ellipse id="Oval-5" fill="url(#radialGradient-1)" cx="59.5156113" cy="26.5427873" rx="30.6245378" ry="26.5427873"></ellipse>
                        <ellipse id="Oval-5-Copy-6" fill="url(#radialGradient-2)" cx="96.4961853" cy="55.9706601" rx="90.7179706" ry="43.2762836"></ellipse>
                        <ellipse id="Oval-5-Copy-8" fill="url(#radialGradient-1)" cx="90.7179706" cy="83.0904645" rx="30.6245378" ry="26.5427873"></ellipse>
                        <ellipse id="Oval-5-Copy-2" fill="url(#radialGradient-3)" cx="97.0740068" cy="52.5085575" rx="52.0039322" ry="43.2762836"></ellipse>
                        <ellipse id="Oval-5-Copy" fill="url(#radialGradient-1)" cx="75.6946124" cy="35.7750611" rx="30.6245378" ry="26.5427873"></ellipse>
                        <ellipse id="Oval-5-Copy-3" fill="url(#radialGradient-1)" cx="117.297758" cy="30.00489" rx="30.6245378" ry="26.5427873"></ellipse>
                        <ellipse id="Oval-5-Copy-4" fill="url(#radialGradient-1)" cx="156.589618" cy="26.5427873" rx="30.6245378" ry="26.5427873"></ellipse>
                        <ellipse id="Oval-5-Copy-7" fill="url(#radialGradient-1)" cx="148.500117" cy="72.7041565" rx="30.6245378" ry="26.5427873"></ellipse>
                        <ellipse id="Oval-5-Copy-9" fill="url(#radialGradient-1)" cx="49.1148249" cy="77.3202934" rx="30.6245378" ry="26.5427873"></ellipse>
                        <ellipse id="Oval-5-Copy-10" fill="url(#radialGradient-1)" cx="53.7373966" cy="77.3202934" rx="30.6245378" ry="26.5427873"></ellipse>
                        <ellipse id="Oval-5-Copy-5" fill="url(#radialGradient-1)" cx="30.6245378" cy="62.3178484" rx="30.6245378" ry="26.5427873"></ellipse>
                    </g>
                    <g id="cloud-copy" transform="translate(76.297641, 45.310513) scale(-1, 1) translate(-76.297641, -45.310513) translate(0.297641, 17.310513)">
                        <ellipse id="Oval-5" fill="url(#radialGradient-4)" cx="47.9591819" cy="13.2713936" rx="24.8463232" ry="13.2713936"></ellipse>
                        <ellipse id="Oval-5-Copy-6" fill="url(#radialGradient-5)" cx="78.0058983" cy="28.8508557" rx="73.3833265" ry="21.9266504"></ellipse>
                        <ellipse id="Oval-5-Copy-8" fill="url(#radialGradient-4)" cx="73.3833265" cy="42.1222494" rx="24.8463232" ry="13.2713936"></ellipse>
                        <ellipse id="Oval-5-Copy-2" fill="url(#radialGradient-6)" cx="79.1615412" cy="26.5427873" rx="42.1809672" ry="21.9266504"></ellipse>
                        <ellipse id="Oval-5-Copy" fill="url(#radialGradient-4)" cx="61.8268972" cy="17.8875306" rx="24.8463232" ry="13.2713936"></ellipse>
                        <ellipse id="Oval-5-Copy-3" fill="url(#radialGradient-4)" cx="95.3405424" cy="15.5794621" rx="24.8463232" ry="13.2713936"></ellipse>
                        <ellipse id="Oval-5-Copy-4" fill="url(#radialGradient-4)" cx="126.542902" cy="13.2713936" rx="24.8463232" ry="13.2713936"></ellipse>
                        <ellipse id="Oval-5-Copy-7" fill="url(#radialGradient-4)" cx="119.609044" cy="36.3520782" rx="24.8463232" ry="13.2713936"></ellipse>
                        <ellipse id="Oval-5-Copy-9" fill="url(#radialGradient-4)" cx="39.8696814" cy="38.6601467" rx="24.8463232" ry="13.2713936"></ellipse>
                        <ellipse id="Oval-5-Copy-10" fill="url(#radialGradient-4)" cx="43.3366102" cy="38.6601467" rx="24.8463232" ry="13.2713936"></ellipse>
                        <ellipse id="Oval-5-Copy-5" fill="url(#radialGradient-4)" cx="24.8463232" cy="31.7359413" rx="24.8463232" ry="13.2713936"></ellipse>
                    </g>
                </g>
                <g id="gallows" transform="translate(29.000000, 26.000000)">
                    <path d="M66.8117498,125.69453 L66.8117498,125.69453 L66.8117498,125.69453 C68.2900075,125.69453 69.4883721,126.892895 69.4883721,128.371153 L69.4883721,134.273034 L69.4883721,134.273034 C69.4883721,136.067374 68.8851439,137.809617 67.7756215,139.2198 L62.5395349,145.874771 L66.7837763,152.814838 L66.7837763,152.814838 C67.5522368,154.071404 67.9588736,155.515731 67.9588736,156.98865 L67.9588736,163.345492 L67.9588736,163.345492 C67.9588736,164.842 66.7457141,166.055159 65.249206,166.055159 L65.249206,166.055159 L65.249206,166.055159 C63.7526979,166.055159 62.5395383,164.842 62.5395383,163.345492 L62.5395383,154.736325 L55.5906977,145.874771 L64.1351274,137.042925 L64.1351274,128.371153 L64.1351274,128.371153 C64.1351274,126.892895 65.3334921,125.69453 66.8117498,125.69453 Z" id="Rectangle-5" fill="#869EAA"></path>
                    <g id="ropesource" transform="translate(54.432558, 48.432755)" stroke="#F5CF96" stroke-width="5" stroke-linecap="round">
                        <path d="M10.313245,71.9986457 C4.22368568,78.0627803 1.15845349,82.3440121 1.11754849,84.8423411 C1.09711152,86.0905574 -0.129310853,94.5708209 1.11754849,109.744381 C1.73097233,117.209396 3.55662989,108.627319 6.59452118,83.9981495 C7.31782438,78.1340962 6.26267904,101.874158 3.42908518,155.218336" id="Line-Copy"></path>
                        <path d="M113.095602,3.85647005 C109.836351,1.51720407 107.476402,0.39494684 106.015756,0.489698356 C99.9231531,0.88492306 95.4014382,5.51506715 92.7855719,7.3538789 C53.0874054,35.2595308 27.6662086,55.6787244 21.4443949,61.1687488 C14.3864621,67.3965507 9.04332673,72.7590405 5.41498872,77.2562184" id="Line-3"></path>
                    </g>
                    <g id="pin">
                        <use fill="#869EAA" xlink:href="#path-8"></use>
                        <use fill="url(#linearGradient-7)" xlink:href="#path-8"></use>
                    </g>
                    <g id="noose" transform="translate(156.348837, 48.432755)" stroke="#F5CF96" stroke-width="5" stroke-linecap="round">
                        <path d="M5.42092493,0.323561562 C10.5769037,1.28353735 13.4981905,2.88617423 14.1847856,5.13147219 C14.8713806,7.37677016 14.7456426,16.8417745 13.8075718,33.5264852 C6.20162609,43.9926436 1.79597919,51.8601106 0.590631056,57.1288861 C-1.21739114,65.0320493 2.55302482,82.5747464 14.1847856,82.5747464 C25.8165463,82.5747464 31.3852053,66.4854933 27.9245965,57.1288861 C25.617524,50.8911479 22.0449391,43.023681 17.206842,33.5264852" id="Line"></path>
                        <path d="M8.84689922,17.0138483 L21.3129845,17.0138483" id="Line-2"></path>
                        <path d="M7.23837209,19.736064 L22.1172481,19.736064" id="Line-2-Copy"></path>
                        <path d="M7.23837209,23.8193876 L22.1172481,23.8193876" id="Line-2-Copy-2"></path>
                        <path d="M7.23837209,27.9027112 L22.1172481,27.9027112" id="Line-2-Copy-3"></path>
                        <path d="M7.23837209,27.9027112 L22.1172481,27.9027112" id="Line-2-Copy-4"></path>
                        <path d="M9.65116279,33.3471426 L20.5087209,33.3471426" id="Line-2-Copy-5"></path>
                    </g>
                    <g id="stand" transform="translate(30.111628, 0.000000)">
                        <rect id="Rectangle" fill="#AA5042" x="0" y="0" width="24.2583281" height="333.263479"></rect>
                        <g id="Rectangle-3">
                            <use fill="#AA5042" xlink:href="#path-11"></use>
                            <use fill="url(#linearGradient-9)" xlink:href="#path-11"></use>
                            <use fill="url(#linearGradient-10)" xlink:href="#path-11"></use>
                        </g>
                        <g id="Rectangle-2">
                            <use fill="#AA5042" xlink:href="#path-13"></use>
                            <use fill="url(#linearGradient-12)" xlink:href="#path-13"></use>
                        </g>
                    </g>
                    <g id="gallowsbase" transform="translate(0.000000, 333.263479)">
                        <rect id="gallows-base-top" fill="#AA5042" x="0" y="0" width="249" height="5.45413905"></rect>
                        <g id="gallows-base">
                            <use fill="#AA5042" xlink:href="#path-15"></use>
                            <use fill="url(#linearGradient-14)" xlink:href="#path-15"></use>
                        </g>
                    </g>
                </g>
                <g id="body" transform="translate(145.000000, 103.000000)">
                    <path d="M53,56.8985288 L53,155.67394" id="trunk" stroke="#FFA604" stroke-width="6"></path>
                    <polyline id="arm-left" stroke="#FFA604" stroke-width="6" stroke-linecap="round" transform="translate(39.169856, 123.006162) scale(-1, -1) rotate(-30.000000) translate(-39.169856, -123.006162) " points="67.3981174 97.0611861 47.8751179 133.206405 10.9415956 148.951138"></polyline>
                    <polyline id="arm-right" stroke="#FFA604" stroke-width="6" stroke-linecap="round" transform="translate(69.706522, 122.806220) scale(-1, 1) translate(-69.706522, -122.806220) " points="84.1086957 85.3301435 55.3043478 111.215041 69.1871076 160.282297"></polyline>
                    <path d="M0,218.859243 L17.1617715,223.382563 L17.1617715,223.382563 C18.7639106,223.804838 20.4050225,222.848369 20.8272975,221.24623 C20.8768899,221.058073 20.9080588,220.865537 20.9203636,220.671344 L23.3944721,181.625328 L53,156.822967" id="leg-left" stroke="#FFA604" stroke-width="6" stroke-linecap="round"></path>
                    <path d="M41.4782609,234.08134 L61.3919984,231.981399 L61.3919984,231.981399 C62.8461041,231.828061 63.9778619,230.648755 64.0712607,229.189572 L66.6614817,188.722172 L96.7826087,163.741627" id="leg-right" stroke="#FFA604" stroke-width="6" stroke-linecap="round" transform="translate(69.130435, 198.911483) scale(-1, 1) rotate(-17.000000) translate(-69.130435, -198.911483) "></path>
                    <ellipse id="head" fill="#FFA604" transform="translate(59.066772, 29.119285) rotate(22.000000) translate(-59.066772, -29.119285) " cx="59.066772" cy="29.1192853" rx="16.8287168" ry="24.1755798"></ellipse>
                    <g id="face" transform="translate(46.086957, 11.531100)" stroke="#0C0C0B" stroke-width="2" stroke-linecap="round">
                        <path d="M-1.20792265e-13,19.6028708 C7.88677242,21.5345787 12.5127207,23.3201727 13.8778448,24.9596525 C15.2429689,26.5991324 14.4576003,29.4259787 11.5217391,33.4401914" id="Line-7-Copy-2"></path>
                        <g id="eye-left" transform="translate(2.845164, 0.000000)">
                            <path d="M8.1122449,0 L8.1122449,14.6139049" id="Line-7"></path>
                            <path d="M7.57142857,0 L7.57142857,14.6139049" id="Line-7-Copy" transform="translate(7.571429, 7.577580) rotate(-75.000000) translate(-7.571429, -7.577580) "></path>
                        </g>
                        <g id="eye-right" transform="translate(12.579858, 10.825115)">
                            <path d="M8.1122449,0 L8.1122449,14.6139049" id="Line-7"></path>
                            <path d="M7.57142857,0 L7.57142857,14.6139049" id="Line-7-Copy" transform="translate(7.571429, 7.577580) rotate(-75.000000) translate(-7.571429, -7.577580) "></path>
                        </g>
                    </g>
                </g>
                <g id="window" transform="translate(1.000000, 0.000000)">
                    <g id="latch" transform="translate(167.484177, 228.498778)">
                        <ellipse id="Oval-4" fill="#878079" transform="translate(23.678797, 2.885086) rotate(-13.000000) translate(-23.678797, -2.885086) " cx="23.6787975" cy="2.88508557" rx="4.04272152" ry="1.73105134"></ellipse>
                        <g id="Oval-3">
                            <use fill="#736D64" xlink:href="#path-17"></use>
                            <use fill="url(#linearGradient-16)" xlink:href="#path-17"></use>
                        </g>
                    </g>
                    <rect stroke="#FFFFFF" stroke-width="14" x="7" y="7" width="351" height="458"></rect>
                    <path d="M10.9731013,241.193154 L354.026899,241.193154" id="Line-4" stroke="#FFFFFF" stroke-width="10" stroke-linecap="square"></path>
                </g>
            </g>
            <g id="Rectangle-7">
                <use fill="#201F1D" fill-rule="evenodd" xlink:href="#path-18"></use>
                <rect stroke="#E6C28B" stroke-width="10" x="414" y="32" width="357" height="263"></rect>
            </g>
            <text id="A-B-C-D-E-F-G-H" font-family="Chalkduster" font-size="24" font-weight="normal" fill="#F0F0F0">
                <tspan x="478.707182" y="90">A B C D E F G H</tspan>
            </text>
            <text id="I-J-K-L-M-N-O-P-Q" font-family="Chalkduster" font-size="24" font-weight="normal" fill="#F0F0F0">
                <tspan x="471.050829" y="126">I J K L M N O P Q</tspan>
            </text>
            <text id="R-S-T-U-V-W-X-Y-Z" font-family="Chalkduster" font-size="24" font-weight="normal" fill="#F0F0F0">
                <tspan x="465.167956" y="163">R S T U V W X Y Z</tspan>
            </text>
            <text id="WORD-TO-GUESS:" font-family="Chalkduster" font-size="20" font-weight="normal" fill="#F0F0F0">
                <tspan x="495.209945" y="209">WORD TO GUESS: </tspan>
            </text>
            <text id="H-_-N-_-_-_-N" font-family="Chalkduster" font-size="20" font-weight="normal" fill="#F0F0F0">
                <tspan x="511.607735" y="239" text-decoration="underline">H</tspan>
                <tspan x="523.939227" y="239"> _ N _ _ _ </tspan>
                <tspan x="652.18232" y="239" text-decoration="underline">N</tspan>
            </text>
        </g>
    </g>
</svg>