<?xml version="1.0" encoding="UTF-8" standalone="no"?>
<svg width="400px" height="300px" viewBox="0 0 400 300" version="1.1" xmlns="http://www.w3.org/2000/svg" xmlns:xlink="http://www.w3.org/1999/xlink">
    <!-- Generator: Sketch 46.2 (44496) - http://www.bohemiancoding.com/sketch -->
    <title>Dribble Copy</title>
    <desc>Created with Sketch.</desc>
    <defs>
        <circle id="path-1" cx="114" cy="114" r="114"></circle>
        <path d="M313.571429,142.019997 C313.571429,102.890263 292.571797,68.6652563 261.227555,50 L206,142.019997 L313.571429,142.019997 Z" id="path-2"></path>
        <path d="M245.68508,117.591355 C245.68508,78.0363907 224.45724,43.4394539 192.772374,24.5713585 L136.94465,117.591355 L245.68508,117.591355 Z" id="path-3"></path>
        <path d="M203.580002,238.593625 C203.580002,198.369505 181.993049,163.187289 149.772166,144 L93,238.593625 L203.580002,238.593625 Z" id="path-4"></path>
        <path d="M121.57606,0 C121.57606,20.5140624 97.8425035,38.456784 62.4175819,48.2421875 L0,0 L121.57606,0 Z" id="path-5"></path>
        <path d="M121.57606,48 C121.57606,68.5140624 97.8425035,86.456784 62.4175819,96.2421875 L0,48 L121.57606,48 Z" id="path-6"></path>
    </defs>
    <g id="Page-1" stroke="none" stroke-width="1" fill="none" fill-rule="evenodd">
        <g id="Dribble-Copy">
            <g id="holder" transform="translate(90.000000, 29.000000)">
                <g id="Oval-4">
                    <use fill="#A0B7E6" fill-rule="evenodd" xlink:href="#path-1"></use>
                    <circle stroke="#3157A2" stroke-width="4" cx="114" cy="114" r="112"></circle>
                </g>
                <path d="M58.5,17.5 L170.5,211.5" id="Line" stroke="#3157A2" stroke-width="3" stroke-linecap="square"></path>
                <path d="M170.504464,17.5025774 L58.4955358,211.497423" id="Line-Copy" stroke="#3157A2" stroke-width="3" stroke-linecap="square"></path>
                <path d="M226.504464,114.015464 L2.49553583,114" id="Line-Copy-2" stroke="#3157A2" stroke-width="3" stroke-linecap="square"></path>
            </g>
            <g id="Oval-4">
                <use fill="#E5480B" fill-rule="evenodd" xlink:href="#path-2"></use>
                <path stroke="#A24931" stroke-width="4" d="M311.552624,140.019997 C310.875486,104.029835 291.955246,71.4215913 261.907109,52.7542244 L209.532893,140.019997 L311.552624,140.019997 Z"></path>
            </g>
            <g id="Oval-4-Copy" transform="translate(191.314865, 71.081357) rotate(-60.000000) translate(-191.314865, -71.081357) ">
                <use fill="#25AD35" fill-rule="evenodd" xlink:href="#path-3"></use>
                <path stroke="#2D9139" stroke-width="4" d="M243.666481,115.591355 C242.989051,79.1863883 223.849951,46.2013963 193.452034,27.325407 L140.477543,115.591355 L243.666481,115.591355 Z"></path>
            </g>
            <g id="Oval-4-Copy-2" transform="translate(148.290001, 191.296812) scale(-1, -1) translate(-148.290001, -191.296812) ">
                <use fill="#DB71B5" fill-rule="evenodd" xlink:href="#path-4"></use>
                <path stroke="#D05C9C" stroke-width="4" d="M201.561718,236.593625 C200.883843,199.535909 181.400334,165.958051 150.451988,146.753779 L96.5328928,236.593625 L201.561718,236.593625 Z"></path>
            </g>
            <g id="threedpie" transform="translate(252.000000, 190.000000)">
                <g id="Oval-4-Copy-3">
                    <use fill="#DB71B5" fill-rule="evenodd" xlink:href="#path-5"></use>
                    <path stroke="#D05C9C" stroke-width="4" d="M119.493243,2 L5.85816071,2 L62.8465334,46.0459832 C96.6490041,36.510227 118.008398,19.923396 119.493243,2 Z"></path>
                </g>
                <g id="Oval-4-Copy-4">
                    <use fill="#DB71B5" fill-rule="evenodd" xlink:href="#path-6"></use>
                    <path stroke="#D05C9C" stroke-width="4" d="M119.493243,50 L5.85816071,50 L62.8465334,94.0459832 C96.6490041,84.510227 118.008398,67.923396 119.493243,50 Z"></path>
                </g>
                <polygon id="Rectangle" fill="#DB71B5" points="0 0 62.4375 47.96875 62.4375 96.1542969 0 47.96875"></polygon>
                <path d="M63.1806641,1.7109375 C65.4847005,13.0651042 71.258138,22.249349 80.5009766,29.2636719 C89.7438151,36.2779948 103.669271,42.624349 122.277344,48.3027344 L122.277344,95.9960938 C102.426432,92.0872396 87.4475911,85.3541667 77.3408203,75.796875 C67.2340495,66.2395833 62.1806641,57.0748698 62.1806641,48.3027344 L63.1806641,1.7109375 Z" id="Rectangle-Copy" fill="#DB71B5" transform="translate(92.229004, 48.853516) scale(-1, 1) translate(-92.229004, -48.853516) "></path>
            </g>
        </g>
    </g>
</svg>